  <svg preserveAspectRatio="none" viewBox="0 0 40 40" fill="none" xmlns="http://www.w3.org/2000/svg">
<circle cx="20" cy="20" r="20" fill="#D62C49"/>
<path d="M2.81372 30.2351C5.24836 34.3138 9.09418 37.4526 13.6775 38.9785C14.6781 39.1614 15.0428 38.5438 15.0428 38.0134C15.0428 37.7939 15.0391 37.4058 15.0341 36.8866C15.0284 36.2853 15.021 35.5079 15.0158 34.6125C9.45266 35.8206 8.2789 31.931 8.2789 31.931C7.36911 29.6215 6.05783 29.0064 6.05783 29.0064C4.24194 27.7651 6.19535 27.7897 6.19535 27.7897C8.20278 27.9321 9.25867 29.8511 9.25867 29.8511C11.0426 32.9071 13.9402 32.0243 15.0796 31.5135C15.2613 30.2207 15.777 29.3391 16.3491 28.8394C11.9082 28.3348 7.23896 26.6184 7.23896 18.9545C7.23896 16.7715 8.01861 14.9863 9.29796 13.5879C9.09169 13.082 8.40536 11.0488 9.49318 8.29491C9.49318 8.29491 11.1728 7.75714 14.9937 10.3453C16.5885 9.90208 18.3001 9.67985 20.0006 9.67249C21.6986 9.67985 23.4101 9.90208 25.0075 10.3453C28.8259 7.75714 30.5018 8.29491 30.5018 8.29491C31.5933 11.0488 30.907 13.082 30.7007 13.5879C31.9825 14.9863 32.7572 16.7715 32.7572 18.9545C32.7572 26.638 28.0806 28.3287 23.625 28.8235C24.3432 29.441 24.9829 30.6615 24.9829 32.5277C24.9829 34.3153 24.9719 35.8722 24.9646 36.9036C24.961 37.4144 24.9583 37.7963 24.9583 38.0134C24.9583 38.5488 25.3181 39.1712 26.3335 38.976C29.9846 37.7573 33.1673 35.5155 35.5405 32.5904C31.8736 37.1109 26.2742 40 19.9999 40C12.6946 40 6.30402 36.0832 2.81372 30.2351Z" fill="white"/>
</svg>