<svg width="1440" height="1024" viewBox="0 0 1440 1024" fill="none" preserveAspectRatio="none"
    xmlns="http://www.w3.org/2000/svg">
    <g clip-path="url(#clip0_21_5)">
        <rect width="1440" height="1024" fill="#1D061E"/>
        <path d="M1506.18 833.235C1531.48 851.353 1537.09 887.577 1539.93 918.547C1542.8 949.79 1536.78 981.519 1522.32 1009.33C1508.07 1036.72 1484.04 1056.76 1458.8 1074.53C1433.25 1092.51 1406.22 1115.56 1375.05 1113C1343.98 1110.45 1324.87 1078.69 1298.91 1061.39C1276.85 1046.7 1250.81 1038.71 1233.47 1018.67C1214.98 997.287 1195.81 971.895 1197.09 943.68C1198.36 915.634 1230.74 899.448 1240.09 872.988C1251.1 841.832 1231.33 798.76 1256.05 776.84C1279.82 755.762 1319.52 765.965 1349.8 775.693C1375.8 784.045 1386.33 817.491 1411.96 826.922C1442.02 837.984 1480.13 814.583 1506.18 833.235Z" fill="url(#paint0_linear_21_5)"/>
        <path d="M81.326 120.079C103.24 126.172 131.249 121.797 146.041 137.135C160.832 152.471 152.395 175.604 154.133 195.573C155.781 214.496 165.264 234.158 155.983 251.33C146.68 268.542 124.821 277.07 105.387 285.765C87.1566 293.921 67.8483 300.823 47.3778 299.92C27.2236 299.031 10.0965 289.043 -7.70954 280.776C-27.5967 271.542 -53.42 266.596 -62.8103 248.757C-72.2091 230.903 -58.1817 210.869 -54.7258 191.461C-51.2227 171.788 -55.3984 150.303 -42.3661 133.945C-28.7309 116.83 -6.61506 103.947 17.1137 101.287C39.9728 98.725 59.3707 113.975 81.326 120.079Z" fill="url(#paint1_linear_21_5)"/>
        <path d="M1349.05 642.789C1311.51 665.736 1270.89 688.911 1231.92 692.102C1192.72 695.312 1164.25 674.073 1132.74 660.501C1100.53 646.629 1061.56 639.092 1043.45 610.93C1025.33 582.754 1022.43 543.224 1032.32 504.38C1041.77 467.237 1085.23 435.761 1097.51 398.552C1110.94 357.867 1078.76 318.975 1105.98 281.218C1132 245.114 1183.96 239.281 1224.58 222.272C1259.78 207.533 1294.7 201.308 1330.03 187.39C1373.06 170.438 1418.15 123.692 1456.61 130.853C1494.91 137.984 1483.54 197.621 1510.03 220.908C1536.47 244.148 1587.7 237.846 1609.49 265.251C1632.15 293.756 1655.39 334.915 1633.74 376.52C1609.09 423.881 1539.72 437.835 1499.15 477.29C1472.83 502.885 1464.53 537.871 1440 564.91C1413.11 594.56 1383.16 621.938 1349.05 642.789Z" fill="url(#paint2_linear_21_5)"/>
        <path fill-rule="evenodd" clip-rule="evenodd" d="M-152.168 385.851C-38.0932 350.8 -45.1978 516.434 67.8619 488.088C170.569 462.339 231.565 252.778 312.602 269.329C401.734 287.534 192.353 476.277 249.448 525.175C297.236 566.102 501.708 401.491 529.883 455.417C556.913 507.148 350.855 576.749 314.021 648.76C287.964 699.702 369.872 710.987 377.453 753.414C389.825 822.643 473.553 917.169 372.369 975.251C254.547 1042.88 184.489 934.548 82.1815 922.906C44.5615 918.625 2.37674 923.024 -40.6026 928.26C-82.2463 933.332 -124.198 942.122 -167.701 953.345C-252.668 975.266 -346.151 1028.87 -421.122 1026.43C-497.529 1023.94 -573.072 998.302 -580.39 939.888C-587.566 882.601 -515.7 804.683 -457.016 739.894C-405.038 682.507 -313.244 647.811 -263.34 589.853C-205.876 523.118 -239.429 412.663 -152.168 385.851Z" fill="url(#paint3_linear_21_5)" fill-opacity="0.8"/>
    </g>
    <defs>
        <linearGradient id="paint0_linear_21_5" x1="1470.14" y1="801.787" x2="1261.13" y2="1043.63" gradientUnits="userSpaceOnUse">
            <stop stop-color="#BEF264"/>
            <stop offset="1" stop-color="#EA580C"/>
        </linearGradient>
        <linearGradient id="paint1_linear_21_5" x1="47" y1="101" x2="47" y2="300" gradientUnits="userSpaceOnUse">
            <stop stop-color="#FD6F00"/>
            <stop offset="1" stop-color="#BE185D"/>
        </linearGradient>
        <linearGradient id="paint2_linear_21_5" x1="1324.1" y1="762.629" x2="1490.22" y2="86.4665" gradientUnits="userSpaceOnUse">
            <stop stop-color="#A3E635"/>
            <stop offset="0.499731" stop-color="#BE185D"/>
            <stop offset="0.942708" stop-color="#701A75"/>
        </linearGradient>
        <linearGradient id="paint3_linear_21_5" x1="-200.295" y1="411.426" x2="199.839" y2="1078.74" gradientUnits="userSpaceOnUse">
            <stop stop-color="#701A75"/>
            <stop offset="0.447917" stop-color="#701A75"/>
            <stop offset="0.65625" stop-color="#9D174D"/>
            <stop offset="0.979167" stop-color="#C34A1E"/>
        </linearGradient>
        <clipPath id="clip0_21_5">
            <rect width="1440" height="1024" fill="white"/>
        </clipPath>
    </defs>
</svg>
