
<svg viewBox="0 0 1440 1024" width="100%" height="100%" preserveAspectRatio="none" fill="none"
    xmlns="http://www.w3.org/2000/svg">


    <g clip-path="url(#clip0_21_5)">
        <rect width="1440" height="1024" fill="#1D061E"/>
        <path d="M1524.18 697.235C1549.48 715.353 1555.09 751.577 1557.93 782.547C1560.8 813.79 1554.78 845.519 1540.32 873.333C1526.07 900.718 1502.04 920.758 1476.8 938.527C1451.25 956.515 1424.22 979.564 1393.05 977.003C1361.98 974.451 1342.87 942.688 1316.91 925.392C1294.85 910.697 1268.81 902.711 1251.47 882.668C1232.98 861.287 1213.81 835.895 1215.09 807.68C1216.36 779.634 1248.74 763.448 1258.09 736.988C1269.1 705.832 1249.33 662.76 1274.05 640.84C1297.82 619.762 1337.52 629.965 1367.8 639.693C1393.8 648.045 1404.33 681.491 1429.96 690.922C1460.02 701.984 1498.13 678.583 1524.18 697.235Z" fill="url(#paint0_linear_21_5)"/>
        <path d="M49.8183 79.9134C81.6226 89.4663 122.273 82.6057 143.741 106.653C165.208 130.699 152.962 166.967 155.485 198.275C157.876 227.944 171.64 258.771 158.17 285.694C144.669 312.68 112.943 326.049 84.7387 339.681C58.2804 352.469 30.2577 363.291 0.548342 361.875C-28.7021 360.481 -53.5591 344.822 -79.4015 331.859C-108.264 317.382 -145.742 309.627 -159.371 281.66C-173.011 253.667 -152.653 222.258 -147.637 191.829C-142.553 160.985 -148.614 127.299 -129.699 101.652C-109.91 74.8186 -77.813 54.621 -43.3749 50.4506C-10.1988 46.4331 17.9539 70.3425 49.8183 79.9134Z" fill="url(#paint1_linear_21_5)"/>
        <path d="M1505.65 60.4601C1544.42 48.1393 1569.1 98.0533 1603.77 113.586C1633.33 126.826 1669.09 129.144 1696.06 145.75C1723.63 162.719 1741.07 188.258 1762.12 211.067C1786.01 236.955 1824.57 256.848 1829.63 290.484C1834.66 323.87 1805.84 356.202 1788.76 387.995C1773.26 416.841 1764.21 452.391 1733.17 470.019C1699.48 489.142 1655.22 474.581 1617.38 485.297C1590.99 492.769 1572.1 514.193 1546.17 522.977C1518.92 532.207 1489.95 531.7 1461.83 537.988C1422.51 546.779 1381.49 580.824 1345.76 567.787C1311.72 555.368 1318.01 509.716 1303.85 480.347C1292.4 456.59 1286.16 430.93 1269.58 409.767C1246.7 380.563 1174.97 367.926 1187.91 332.382C1202.91 291.193 1286.82 303.193 1320.43 270.132C1342.48 248.449 1312.29 209.024 1334.91 187.78C1356.96 167.076 1402.84 187.984 1427.5 169.594C1465.51 141.246 1459.08 75.2548 1505.65 60.4601Z" fill="url(#paint2_linear_21_5)"/>
        <path d="M-48.9477 1031.79C-86.4885 1054.74 -127.114 1077.91 -166.08 1081.1C-205.284 1084.31 -233.749 1063.07 -265.262 1049.5C-297.471 1035.63 -336.435 1028.09 -354.55 999.93C-372.672 971.754 -375.57 932.224 -365.681 893.38C-356.226 856.237 -312.767 824.761 -300.485 787.552C-287.056 746.867 -319.237 707.975 -292.021 670.218C-265.997 634.114 -214.036 628.281 -173.419 611.272C-138.223 596.533 -103.295 590.308 -67.9709 576.39C-24.943 559.438 20.1552 512.692 58.6105 519.853C96.9069 526.984 85.5449 586.621 112.034 609.908C138.468 633.148 189.7 626.846 211.486 654.251C234.146 682.756 257.388 723.915 235.739 765.52C211.094 812.881 141.722 826.835 101.148 866.29C74.8275 891.885 66.5273 926.871 42.005 953.91C15.1149 983.56 -14.8349 1010.94 -48.9477 1031.79Z" fill="url(#paint3_linear_21_5)"/>
    </g>
    <defs>
        <linearGradient id="paint0_linear_21_5" x1="1488.14" y1="665.787" x2="1279.13" y2="907.632" gradientUnits="userSpaceOnUse">
            <stop stop-color="#BEF264"/>
            <stop offset="1" stop-color="#EA580C"/>
        </linearGradient>
        <linearGradient id="paint1_linear_21_5" x1="0" y1="50" x2="0" y2="362" gradientUnits="userSpaceOnUse">
            <stop stop-color="#FD6F00"/>
            <stop offset="1" stop-color="#BE185D"/>
        </linearGradient>
        <linearGradient id="paint2_linear_21_5" x1="1450.62" y1="73.3189" x2="1699.5" y2="374" gradientUnits="userSpaceOnUse">
            <stop stop-color="#BE185D"/>
            <stop offset="0.0001" stop-color="#EA580C"/>
            <stop offset="1" stop-color="#BE185D"/>
        </linearGradient>
        <linearGradient id="paint3_linear_21_5" x1="-73.8975" y1="1151.63" x2="92.2186" y2="475.466" gradientUnits="userSpaceOnUse">
            <stop stop-color="#A3E635"/>
            <stop offset="0.499731" stop-color="#BE185D"/>
            <stop offset="0.942708" stop-color="#701A75"/>
        </linearGradient>
        <clipPath id="clip0_21_5">
            <rect width="1440" height="1024" fill="white"/>
        </clipPath>
    </defs>
</svg>
