<svg width="1440" height="1024" viewBox="0 0 1440 1024" fill="none"
    xmlns="http://www.w3.org/2000/svg">
    <g clip-path="url(#clip0_21_5)">
        <rect width="1440" height="1024" fill="#1D061E"/>
        <path d="M110.615 106.584C155.104 137.453 160.46 205.471 161.398 263.897C162.344 322.838 146.726 383.945 115.946 438.8C85.6407 492.808 38.1782 534.237 -11.2167 571.521C-61.2214 609.266 -114.672 656.829 -172.243 656.331C-229.63 655.834 -260.696 598.181 -306.514 568.963C-345.441 544.14 -392.726 532.62 -422.138 496.978C-453.514 458.957 -485.585 413.414 -479.252 359.643C-472.957 306.195 -410.523 270.917 -389.44 219.35C-364.616 158.633 -395.324 79.5919 -346.319 34.4955C-299.196 -8.86871 -226.849 4.95251 -171.93 19.1891C-124.783 31.411 -109.9 93.463 -63.5927 107.787C-9.27375 124.588 64.8146 74.8052 110.615 106.584Z" fill="url(#paint0_linear_21_5)"/>
        <path d="M54.5163 872.816C41.705 880.225 27.7949 887.632 13.9259 887.727C-0.0283596 887.822 -10.8133 879.213 -22.4776 873.342C-34.3996 867.342 -48.5657 863.487 -55.8351 852.615C-63.1076 841.739 -65.2412 827.103 -62.7757 813.075C-60.4182 799.661 -45.7234 789.276 -42.3554 775.916C-38.6727 761.308 -51.2781 746.096 -42.5758 732.948C-34.2546 720.376 -15.8035 719.669 -1.72581 714.532C10.473 710.08 22.8119 708.757 35.0796 704.611C50.0225 699.562 64.8812 683.6 78.8546 687.303C92.7703 690.99 90.3533 712.633 100.487 721.942C110.6 731.231 128.777 730.331 137.341 741.025C146.248 752.149 155.714 767.948 149.112 782.667C141.597 799.422 117.135 802.637 103.694 816.04C94.9754 824.734 92.972 837.386 84.9374 846.662C76.1271 856.834 66.1577 866.084 54.5163 872.816Z" fill="url(#paint1_linear_21_5)"/>
        <path fill-rule="evenodd" clip-rule="evenodd" d="M2157.92 1558.65C2049.92 1609.42 2033.62 1444.44 1925.68 1488.44C1827.63 1528.4 1796.77 1744.46 1714.21 1739.49C1623.4 1734.03 1804.1 1517.67 1740.68 1477.3C1687.61 1443.52 1508.37 1635.29 1472.87 1585.88C1438.82 1538.47 1633.02 1440.53 1659.34 1364.05C1677.96 1309.94 1595.28 1310.31 1581.8 1269.37C1559.79 1202.58 1463.58 1120.79 1555.58 1049.03C1662.69 965.477 1747.32 1062.86 1850.24 1059.97C1888.09 1058.91 1929.23 1048.61 1971.05 1037.37C2011.56 1026.48 2051.86 1011.87 2093.34 994.63C2174.38 960.956 2259.37 894.712 2333.94 886.569C2409.94 878.271 2488.34 893.007 2503.81 949.807C2518.99 1005.51 2458.82 1092.78 2409.85 1165.19C2366.47 1229.33 2280.48 1276.61 2239.24 1341.02C2191.75 1415.19 2240.54 1519.81 2157.92 1558.65Z" fill="url(#paint2_linear_21_5)" fill-opacity="0.8"/>
        <path d="M1614.56 368.348C1661.2 385.066 1720.81 373.06 1752.29 415.144C1783.77 457.223 1765.81 520.692 1769.51 575.481C1773.02 627.402 1793.2 681.349 1773.45 728.464C1753.65 775.689 1707.13 799.086 1665.77 822.942C1626.97 845.321 1585.87 864.259 1542.3 861.781C1499.41 859.342 1462.96 831.938 1425.06 809.254C1382.73 783.918 1327.77 770.348 1307.79 721.405C1287.79 672.418 1317.64 617.451 1325 564.2C1332.45 510.223 1323.56 451.274 1351.3 406.392C1380.32 359.433 1427.39 324.087 1477.89 316.789C1526.54 309.758 1567.83 351.599 1614.56 368.348Z" fill="url(#paint3_linear_21_5)"/>
    </g>
    <defs>
        <linearGradient id="paint0_linear_21_5" x1="48.0546" y1="51.8983" x2="-374.226" y2="540.52" gradientUnits="userSpaceOnUse">
            <stop stop-color="#BEF264"/>
            <stop offset="1" stop-color="#EA580C"/>
        </linearGradient>
        <linearGradient id="paint1_linear_21_5" x1="48.9008" y1="916.25" x2="124.375" y2="683.129" gradientUnits="userSpaceOnUse">
            <stop stop-color="#A3E635"/>
            <stop offset="0.499731" stop-color="#BE185D"/>
            <stop offset="0.942708" stop-color="#701A75"/>
        </linearGradient>
        <linearGradient id="paint2_linear_21_5" x1="2201.97" y1="1526.55" x2="1711.8" y2="922.272" gradientUnits="userSpaceOnUse">
            <stop stop-color="#701A75"/>
            <stop offset="0.447917" stop-color="#701A75"/>
            <stop offset="0.65625" stop-color="#9D174D"/>
            <stop offset="0.979167" stop-color="#C34A1E"/>
        </linearGradient>
        <linearGradient id="paint3_linear_21_5" x1="1541.5" y1="316" x2="1541.5" y2="862" gradientUnits="userSpaceOnUse">
            <stop stop-color="#FD6F00"/>
            <stop offset="1" stop-color="#BE185D"/>
        </linearGradient>
        <clipPath id="clip0_21_5">
            <rect width="1440" height="1024" fill="white"/>
        </clipPath>
    </defs>
</svg>
