<svg width="1440" height="518" viewBox="0 0 1440 518" fill="none" xmlns="http://www.w3.org/2000/svg">
<g clip-path="url(#clip0)">
<rect width="1440" height="518" fill="white"/>
<path fill-rule="evenodd" clip-rule="evenodd" d="M569.078 40.3656C598.565 36.9442 628.089 27.4302 657.448 24.5634C687.758 21.6038 723.871 14.2317 744.9 23.1974C767.228 32.7168 755.509 58.4495 770.051 72.5708C782.258 84.4246 811.579 86.2028 822.565 98.6166C833.889 111.413 828.966 129.394 833.753 144.554C839.952 164.189 874.41 180.504 855.224 202.059C835.405 224.325 783.904 227.792 747.895 241.016C722.283 250.421 695.401 257.448 671.941 269.364C643.58 283.77 628.549 311.011 596.174 318.078C565.035 324.876 549.615 300.646 519.075 302.736C479.163 305.467 424.004 345.101 398.336 331.617C370.563 317.027 422.033 278.214 423.397 252.475C424.162 238.042 417.514 224.643 404.52 214.919C380.057 196.613 313.493 198.084 314.504 170.986C315.341 148.561 383.344 136.96 408.238 115.29C432.496 94.1728 422.011 63.7143 455.839 47.956C490.885 31.6302 530.482 44.8438 569.078 40.3656Z" fill="url(#paint0_linear)"/>
<path fill-rule="evenodd" clip-rule="evenodd" d="M132.643 106.939C192.859 145.296 241.019 192.227 285.567 244.711C339.428 308.167 430.563 374.002 417.631 442.694C404.532 512.274 294.674 513.295 228.625 547.184C178.226 573.044 134.76 603.049 77.0079 617.465C3.03236 635.931 -73.1607 675.093 -151.967 642.188C-231.58 608.947 -276.233 527.492 -309.21 456.205C-339.09 391.615 -339.273 325.767 -327.072 263.662C-315.674 205.643 -283.952 157.845 -242.346 115.855C-197.272 70.3644 -152.77 14.5653 -78.505 12.7996C-4.43773 11.0386 66.0436 64.5156 132.643 106.939Z" fill="url(#paint1_linear)"/>
<path fill-rule="evenodd" clip-rule="evenodd" d="M970.126 265.489C1007.02 290.185 1035.31 322.31 1060.81 358.933C1091.63 403.212 1146.89 446.514 1133.21 499.776C1119.35 553.727 1046.73 562.722 1000.58 593.463C965.358 616.92 934.41 643.014 895.193 658.31C844.96 677.902 791.714 713.416 742.133 694.261C692.045 674.911 668.651 616.24 652.207 564.437C637.307 517.5 642.112 467.385 654.815 419.193C666.683 374.17 691.207 335.409 721.824 300.329C754.993 262.326 788.556 216.518 837.731 209.618C886.775 202.736 929.319 238.175 970.126 265.489Z" fill="url(#paint2_linear)"/>
<path fill-rule="evenodd" clip-rule="evenodd" d="M1393.46 24.7242C1436.51 19.7708 1479.6 5.87307 1522.46 1.73363C1566.71 -2.53981 1619.42 -13.2774 1650.15 -0.0652993C1682.78 13.9629 1665.72 51.7135 1686.99 72.4794C1704.84 89.9109 1747.66 92.5906 1763.73 110.841C1780.3 129.655 1773.15 156.04 1780.18 178.309C1789.27 207.149 1839.63 231.182 1811.66 262.782C1782.78 295.425 1707.58 300.393 1655.04 319.722C1617.66 333.469 1578.43 343.722 1544.2 361.161C1502.82 382.242 1480.94 422.2 1433.68 432.499C1388.23 442.406 1365.66 406.797 1321.07 409.793C1262.79 413.709 1182.35 471.764 1144.84 451.908C1104.25 430.423 1179.31 373.563 1181.24 335.779C1182.32 314.591 1172.58 294.905 1153.59 280.598C1117.83 253.665 1020.63 255.668 1022.05 215.887C1023.22 182.967 1122.48 166.096 1158.78 134.341C1194.15 103.396 1178.77 58.6552 1228.13 35.6003C1279.26 11.7151 1337.11 31.2075 1393.46 24.7242Z" fill="url(#paint3_linear)"/>
</g>
<defs>
<linearGradient id="paint0_linear" x1="544.35" y1="22.4405" x2="623.65" y2="310.622" gradientUnits="userSpaceOnUse">
<stop stop-color="#EF860D"/>
<stop offset="1" stop-color="#FF4899"/>
<stop offset="1" stop-color="#DC941D"/>
</linearGradient>
<linearGradient id="paint1_linear" x1="167.045" y1="116.232" x2="-121.691" y2="659.239" gradientUnits="userSpaceOnUse">
<stop stop-color="#B4207A"/>
<stop offset="1" stop-color="#DE5336"/>
</linearGradient>
<linearGradient id="paint2_linear" x1="992.149" y1="269.99" x2="760.852" y2="704.977" gradientUnits="userSpaceOnUse">
<stop stop-color="#B2B340"/>
<stop offset="1" stop-color="#EF860D"/>
</linearGradient>
<linearGradient id="paint3_linear" x1="1357.31" y1="-1.65013" x2="1473.78" y2="421.617" gradientUnits="userSpaceOnUse">
<stop stop-color="#DF921B"/>
<stop offset="1" stop-color="#F37B28"/>
</linearGradient>
<clipPath id="clip0">
<rect width="1440" height="518" fill="white"/>
</clipPath>
</defs>
</svg>
