<svg  class="object-scale-down" width="100%" height="100%">
    <defs>  
        <linearGradient id="logo-gradient" x1="50%" y1="0%" x2="50%" y2="100%" > 
            
            <stop offset="0%" stop-color="#A9B947">
                <animate attributeName="stop-color" values="#A9B947; #DF921B;  #A9B947" dur="4s" repeatCount="indefinite"></animate>
            </stop>

            <stop offset="100%" stop-color="#DF921B">
                <animate attributeName="stop-color" values="#DF921B; #A9B947; #DF921B" dur="4s" repeatCount="indefinite"></animate>
            </stop>

        </linearGradient> 

    </defs>
  
    <g>
    <path fill-rule="evenodd" clip-rule="evenodd" d="M486.943 1.98259C571.97 22.1275 504.988 119.601 586.846 143.429C661.208 165.075 778.687 60.5861 823.445 99.9344C872.675 143.213 669.658 181.384 687.14 231.599C701.771 273.629 892.591 248.256 889.973 291.034C887.462 332.07 731.502 299.48 681.141 329.635C645.514 350.968 692.808 387.451 681.568 415.825C663.228 462.122 680.253 549.544 594.646 547.979C494.965 546.157 491.756 455.345 431.757 411.259C409.695 395.048 381.483 382.426 352.457 370.021C324.331 358.003 294.61 348.118 262.993 339.14C201.241 321.607 122.171 320.129 75.9077 291.499C28.7573 262.32 -9.11492 219.475 8.32497 181.54C25.4284 144.338 100.068 123.302 161.455 105.422C215.828 89.5854 286.697 101.874 339.98 84.9411C401.334 65.4429 421.901 -13.4272 486.943 1.98259Z" fill="url(#logo-gradient)"/>
    </g>
</svg>