<svg width="861" height="254" viewBox="0 0 861 254" fill="none" xmlns="http://www.w3.org/2000/svg">
<g filter="url(#filter0_d)">
<path fill-rule="evenodd" clip-rule="evenodd" d="M453.943 -300.017C538.97 -279.873 471.988 -182.399 553.846 -158.571C628.208 -136.925 745.687 -241.414 790.445 -202.066C839.675 -158.787 636.658 -120.616 654.14 -70.4008C668.771 -28.3714 859.591 -53.7441 856.973 -10.9664C854.462 30.0703 698.502 -2.52008 648.141 27.6355C612.514 48.9685 659.808 85.4512 648.568 113.825C630.228 160.122 647.253 247.544 561.646 245.979C461.965 244.157 458.756 153.345 398.757 109.259C376.695 93.0477 348.483 80.4256 319.457 68.0215C291.331 56.0026 261.61 46.1175 229.993 37.1404C168.241 19.6068 89.1715 18.1292 42.9077 -10.5009C-4.24273 -39.6796 -42.1149 -82.5255 -24.675 -120.46C-7.57162 -157.662 67.0675 -178.698 128.455 -196.578C182.828 -212.415 253.697 -200.126 306.98 -217.059C368.334 -236.557 388.901 -315.427 453.943 -300.017Z" fill="url(#logo-gradient)"/>
</g>
<defs>
        <linearGradient id="logo-gradient" x1="50%" y1="0%" x2="50%" y2="100%" > 
            
            <stop offset="0%" stop-color="#A9B947">
                <animate attributeName="stop-color" values="#A9B947; #DF921B;  #A9B947" dur="4s" repeatCount="indefinite"></animate>
            </stop>

            <stop offset="100%" stop-color="#DF921B">
                <animate attributeName="stop-color" values="#DF921B; #A9B947; #DF921B" dur="4s" repeatCount="indefinite"></animate>
            </stop>

        </linearGradient> 
</defs>
</svg>
