<svg width="832" height="817" viewBox="0 0 832 817" fill="none" xmlns="http://www.w3.org/2000/svg">
<path fill-rule="evenodd" clip-rule="evenodd" d="M566.963 6.69031C674.589 -23.392 761.361 -159.694 867.035 -124.124C964.239 -91.4045 954.106 47.6264 970.564 142.545C983.19 215.36 931.536 287.734 950.852 359.268C979.691 466.07 1131.37 541.65 1107.45 649.497C1086.01 746.201 954.458 798.318 849.802 814.9C750.998 830.553 665.07 754.196 566.963 735.13C493.001 720.756 416.039 740.794 345.02 716.801C265.825 690.046 193.465 648.405 137.314 589.979C73.3913 523.467 -12.0077 447.601 1.40579 359.268C15.2035 268.405 133.487 229.29 202.099 163.346C253.611 113.836 288.368 47.6956 355.624 18.819C420.816 -9.17153 498.197 25.9107 566.963 6.69031Z" fill="url(#paint0_linear)"/>
<defs>
<linearGradient id="paint0_linear" x1="-13" y1="817" x2="1013" y2="841" gradientUnits="userSpaceOnUse">
<stop stop-color="#B4207A"/>
<stop offset="0.455963" stop-color="#E3670C"/>
<stop offset="0.940347" stop-color="#A9B947"/>
</linearGradient>
</defs>
</svg>
