<svg width="3949" height="2396" viewBox="0 0 3949 2396" fill="none" xmlns="http://www.w3.org/2000/svg">
<defs>
            <linearGradient id="logo-gradient2" x1="50%" y1="0%" x2="50%" y2="100%" >

                <stop offset="0%" stop-color="#A9B947">
                  <animate attributeName="stop-color" values="#A9B947; #E3670C; #B4207A; #A9B947" dur="4s" repeatCount="indefinite"></animate>
                </stop>

                <stop offset="100%" stop-color="#B4207A">
                  <animate attributeName="stop-color" values="#B4207A; #E3670C; #B4207A" dur="4s" repeatCount="indefinite"></animate>
                </stop>

              </linearGradient>

          </defs>

<g>
<path fill-rule="evenodd" clip-rule="evenodd" d="M956.746 749.745C1052.83 809.461 1131.19 880.144 1204.53 958.321C1293.19 1052.84 1439.34 1154.2 1425.88 1249.87C1412.25 1346.78 1243.58 1337.96 1145.28 1379.6C1070.27 1411.36 1006.3 1449.62 918.921 1464.57C807.002 1483.71 693.607 1531.83 569.473 1478.07C444.067 1423.76 367.87 1304.71 310.557 1201.09C258.628 1107.21 252.201 1014.33 265.148 927.876C277.244 847.113 321.515 782.662 381.513 727.324C446.511 667.374 509.669 592.832 623.591 597.272C737.21 601.701 850.476 683.699 956.746 749.745Z" fill="url(#logo-gradient2)"/>
</g>
<g>
<path fill-rule="evenodd" clip-rule="evenodd" d="M2942.09 1042.61C3140.86 998.902 3301.12 800.854 3496.28 852.538C3675.8 900.08 3657.09 1102.09 3687.48 1240.01C3710.8 1345.81 3615.4 1450.97 3651.08 1554.91C3704.34 1710.1 3984.47 1819.91 3940.3 1976.62C3900.69 2117.13 3657.74 2192.86 3464.45 2216.95C3281.98 2239.69 3123.28 2128.75 2942.09 2101.04C2805.5 2080.16 2663.36 2109.27 2532.2 2074.41C2385.94 2035.53 2252.3 1975.03 2148.6 1890.14C2030.54 1793.49 1872.82 1683.26 1897.6 1554.91C1923.08 1422.89 2141.53 1366.05 2268.25 1270.23C2363.38 1198.3 2427.57 1102.19 2551.78 1060.24C2672.18 1019.56 2815.09 1070.54 2942.09 1042.61Z" fill="url(#logo-gradient2)"/>
</g>
<g>
<path fill-rule="evenodd" clip-rule="evenodd" d="M1975.38 4.42827C2112.42 49.4234 2004.46 267.139 2136.4 320.36C2256.25 368.708 2445.59 135.324 2517.73 223.211C2597.08 319.877 2269.87 405.135 2298.04 517.294C2321.62 611.17 2629.18 554.499 2624.96 650.046C2620.91 741.704 2369.54 668.911 2288.37 736.266C2230.95 783.915 2307.18 865.402 2289.06 928.777C2259.5 1032.18 2286.94 1227.45 2148.97 1223.95C1988.31 1219.88 1983.13 1017.05 1886.43 918.578C1850.87 882.369 1805.4 854.177 1758.62 826.471C1713.29 799.626 1665.39 777.547 1614.43 757.496C1514.9 718.333 1387.46 715.033 1312.9 651.086C1236.9 585.913 1175.86 490.213 1203.97 405.484C1231.54 322.39 1351.84 275.405 1450.78 235.469C1538.41 200.096 1652.63 227.544 1738.51 189.722C1837.4 146.172 1870.55 -29.9907 1975.38 4.42827Z" fill="url(#logo-gradient2)"/>
</g>
<g>
<path fill-rule="evenodd" clip-rule="evenodd" d="M377.386 1727.53C495.892 1698.52 517.065 1461.9 635.007 1492.77C742.049 1520.79 587.474 1702.51 634.655 1794.88C666.884 1857.98 784.599 1835.8 836.31 1886.87C895.612 1945.45 1001.14 2040.31 945.103 2101.53C869.484 2184.13 715.396 2125.25 599.761 2145.28C558.517 2152.43 508.949 2152.31 481.965 2181.76C428.094 2240.56 461.183 2388.17 377.386 2388C293.476 2387.83 326.484 2240.58 273.034 2181.33C246.588 2152.01 193.453 2162.1 157.08 2143.77C108.981 2119.52 52.2687 2100.25 25.3078 2056.44C-1.98581 2012.09 1.44328 1956.37 10.8799 1906.2C20.5286 1854.89 54.233 1811.98 80.0114 1765.58C110.872 1710.04 111.131 1613.14 178.508 1604.52C258.735 1594.25 299.126 1746.69 377.386 1727.53Z" fill="url(#logo-gradient2)"/>
</g>
<g >
<path fill-rule="evenodd" clip-rule="evenodd" d="M1524.1 1707.04C1644.67 1681.69 1679.97 1408.63 1785.3 1468.58C1898.3 1532.89 1713.2 1710.61 1741.23 1830.62C1752.97 1880.89 1854.44 1860.63 1886.66 1902.54C1917.9 1943.17 1899.29 2000.01 1909.17 2049.03C1922.35 2114.45 2010.05 2199 1955.05 2241.86C1886.09 2295.61 1778.4 2214.71 1688.5 2221.01C1649.16 2223.76 1620.04 2255.42 1582.97 2267.92C1542.07 2281.71 1499.23 2312.03 1458.17 2298.68C1415.47 2284.81 1418.12 2215.26 1375.74 2200.58C1311.5 2178.32 1212.21 2251.19 1172.21 2199.61C1134.71 2151.25 1284.66 2088.32 1249.87 2038.25C1175.98 1931.91 877.552 1949.95 914.086 1828.12C949.876 1708.78 1201.85 1905.59 1311.1 1834.06C1390.09 1782.35 1229.56 1616.84 1310.89 1568.34C1384.72 1524.31 1438.46 1725.05 1524.1 1707.04Z" fill="url(#logo-gradient2)"/>
</g>
<defs>
<filter id="filter0_d" x="255.403" y="597.083" width="1175.35" height="913.632" filterUnits="userSpaceOnUse" color-interpolation-filters="sRGB">
<feFlood flood-opacity="0" result="BackgroundImageFix"/>
<feColorMatrix in="SourceAlpha" type="matrix" values="0 0 0 0 0 0 0 0 0 0 0 0 0 0 0 0 0 0 127 0" result="hardAlpha"/>
<feOffset dy="4"/>
<feGaussianBlur stdDeviation="2"/>
<feComposite in2="hardAlpha" operator="out"/>
<feColorMatrix type="matrix" values="0 0 0 0 0 0 0 0 0 0 0 0 0 0 0 0 0 0 0.25 0"/>
<feBlend mode="normal" in2="BackgroundImageFix" result="effect1_dropShadow"/>
<feBlend mode="normal" in="SourceGraphic" in2="effect1_dropShadow" result="shape"/>
</filter>
<filter id="filter1_d" x="1891" y="844" width="2058" height="1384" filterUnits="userSpaceOnUse" color-interpolation-filters="sRGB">
<feFlood flood-opacity="0" result="BackgroundImageFix"/>
<feColorMatrix in="SourceAlpha" type="matrix" values="0 0 0 0 0 0 0 0 0 0 0 0 0 0 0 0 0 0 127 0" result="hardAlpha"/>
<feOffset dy="4"/>
<feGaussianBlur stdDeviation="2"/>
<feComposite in2="hardAlpha" operator="out"/>
<feColorMatrix type="matrix" values="0 0 0 0 0 0 0 0 0 0 0 0 0 0 0 0 0 0 0.25 0"/>
<feBlend mode="normal" in2="BackgroundImageFix" result="effect1_dropShadow"/>
<feBlend mode="normal" in="SourceGraphic" in2="effect1_dropShadow" result="shape"/>
</filter>
<filter id="filter2_d" x="1193" y="0" width="1436" height="1232" filterUnits="userSpaceOnUse" color-interpolation-filters="sRGB">
<feFlood flood-opacity="0" result="BackgroundImageFix"/>
<feColorMatrix in="SourceAlpha" type="matrix" values="0 0 0 0 0 0 0 0 0 0 0 0 0 0 0 0 0 0 127 0" result="hardAlpha"/>
<feOffset dy="4"/>
<feGaussianBlur stdDeviation="2"/>
<feComposite in2="hardAlpha" operator="out"/>
<feColorMatrix type="matrix" values="0 0 0 0 0 0 0 0 0 0 0 0 0 0 0 0 0 0 0.25 0"/>
<feBlend mode="normal" in2="BackgroundImageFix" result="effect1_dropShadow"/>
<feBlend mode="normal" in="SourceGraphic" in2="effect1_dropShadow" result="shape"/>
</filter>
<filter id="filter3_d" x="0" y="1490" width="965" height="906" filterUnits="userSpaceOnUse" color-interpolation-filters="sRGB">
<feFlood flood-opacity="0" result="BackgroundImageFix"/>
<feColorMatrix in="SourceAlpha" type="matrix" values="0 0 0 0 0 0 0 0 0 0 0 0 0 0 0 0 0 0 127 0" result="hardAlpha"/>
<feOffset dy="4"/>
<feGaussianBlur stdDeviation="2"/>
<feComposite in2="hardAlpha" operator="out"/>
<feColorMatrix type="matrix" values="0 0 0 0 0 0 0 0 0 0 0 0 0 0 0 0 0 0 0.25 0"/>
<feBlend mode="normal" in2="BackgroundImageFix" result="effect1_dropShadow"/>
<feBlend mode="normal" in="SourceGraphic" in2="effect1_dropShadow" result="shape"/>
</filter>
<filter id="filter4_d" x="907" y="1460" width="1070" height="850" filterUnits="userSpaceOnUse" color-interpolation-filters="sRGB">
<feFlood flood-opacity="0" result="BackgroundImageFix"/>
<feColorMatrix in="SourceAlpha" type="matrix" values="0 0 0 0 0 0 0 0 0 0 0 0 0 0 0 0 0 0 127 0" result="hardAlpha"/>
<feOffset dy="4"/>
<feGaussianBlur stdDeviation="2"/>
<feComposite in2="hardAlpha" operator="out"/>
<feColorMatrix type="matrix" values="0 0 0 0 0 0 0 0 0 0 0 0 0 0 0 0 0 0 0.25 0"/>
<feBlend mode="normal" in2="BackgroundImageFix" result="effect1_dropShadow"/>
<feBlend mode="normal" in="SourceGraphic" in2="effect1_dropShadow" result="shape"/>
</filter>
<linearGradient id="paint0_linear" x1="1010.46" y1="766.061" x2="617.575" y2="1504.94" gradientUnits="userSpaceOnUse">
<stop stop-color="#B4207A"/>
<stop offset="1" stop-color="#DE5336"/>
</linearGradient>
<linearGradient id="paint1_linear" x1="1870.99" y1="2220" x2="3765.22" y2="2276.32" gradientUnits="userSpaceOnUse">
<stop stop-color="#B4207A"/>
<stop offset="0.455963" stop-color="#E3670C"/>
<stop offset="0.940347" stop-color="#A9B947"/>
</linearGradient>
<linearGradient id="paint2_linear" x1="1911" y1="93.0526" x2="1911" y2="1224" gradientUnits="userSpaceOnUse">
<stop stop-color="#A9B947"/>
<stop offset="1" stop-color="#DF921B"/>
</linearGradient>
<linearGradient id="paint3_linear" x1="482.5" y1="1490" x2="482.5" y2="2388" gradientUnits="userSpaceOnUse">
<stop stop-color="#FF7A00"/>
<stop offset="1" stop-color="#C2355A"/>
</linearGradient>
<linearGradient id="paint4_linear" x1="1123.4" y1="2302" x2="1973.76" y2="2399.08" gradientUnits="userSpaceOnUse">
<stop stop-color="#BA296C"/>
<stop offset="1" stop-color="#DA7416"/>
</linearGradient>
</defs>
</svg>
