  <svg preserveAspectRatio="none" viewBox="0 0 61 63" fill="none" xmlns="http://www.w3.org/2000/svg">
<path fill-rule="evenodd" clip-rule="evenodd" d="M22.5315 16.1971C22.5315 18.1581 21.0857 19.7452 18.8248 19.7452C16.652 19.7452 15.2063 18.1581 15.251 16.1971C15.2063 14.1408 16.652 12.6 18.8681 12.6C21.0857 12.6 22.4881 14.1408 22.5315 16.1971ZM15.4328 45.39V22.548H22.3064V45.3886H15.4328V45.39Z" fill="white"/>
<path fill-rule="evenodd" clip-rule="evenodd" d="M27.8157 29.8378C27.8157 26.9887 27.7248 24.5598 27.6339 22.5511H33.6043L33.9216 25.6803H34.0573C34.9619 24.232 37.2228 22.0385 40.8861 22.0385C45.408 22.0385 48.8 25.1215 48.8 31.845V45.3931H41.9264V32.7345C41.9264 29.7901 40.9323 27.7829 38.4449 27.7829C36.5447 27.7829 35.415 29.1374 34.9633 30.4443C34.7816 30.9121 34.6921 31.5648 34.6921 32.2204V45.3931H27.8185V29.8378H27.8157Z" fill="white"/>
</svg>