<svg class="transform hover:-translate-y-1 hover:scale-110 transition duration-500 ease-in-out"viewBox="0 0 39 38" fill="none" xmlns="http://www.w3.org/2000/svg">
                <path d="M8.77739 38H0.746063V12.6293H8.77739V38ZM4.7574 9.16855C2.18925 9.16855 0.106186 7.0819 0.106186 4.56265C0.106186 3.35256 0.596223 2.19203 1.4685 1.33637C2.34077 0.480706 3.52382 0 4.7574 0C5.99098 0 7.17404 0.480706 8.04631 1.33637C8.91858 2.19203 9.40862 3.35256 9.40862 4.56265C9.40862 7.0819 7.32469 9.16855 4.7574 9.16855ZM38.836 38H30.822V25.6497C30.822 22.7064 30.7615 18.9317 26.6464 18.9317C22.4708 18.9317 21.8309 22.1296 21.8309 25.4377V38H13.8082V12.6293H21.5109V16.0901H21.6234C22.6956 14.0968 25.3148 11.9932 29.2223 11.9932C37.3505 11.9932 38.8447 17.2437 38.8447 24.0635V38H38.836Z" fill="white" />
              </svg>