<svg width="1440" height="1024" viewBox="0 0 1440 1024" fill="none" xmlns="http://www.w3.org/2000/svg">

 <defs>
              <linearGradient id="logo-gradient" x1="50%" y1="0%" x2="50%" y2="100%" >

                <stop offset="0%" stop-color="#A9B947">
                  <animate attributeName="stop-color" values="#A9B947; #E3670C; #B4207A; #A9B947" dur="20s" repeatCount="indefinite"></animate>
                </stop>

                <stop offset="100%" stop-color="#B4207A">
                  <animate attributeName="stop-color" values="#B4207A; #E3670C; #B4207A" dur="4s" repeatCount="indefinite"></animate>
                </stop>

              </linearGradient>

            </defs>
<g>
<path fill-rule="evenodd" clip-rule="evenodd" d="M438.869 -292.41C542.898 -266.089 460.947 -138.732 561.098 -107.6C652.078 -79.318 795.811 -215.84 850.572 -164.429C910.803 -107.882 662.417 -58.009 683.805 7.60035C701.707 62.5147 935.17 29.3635 931.967 85.2555C928.895 138.873 738.081 96.2913 676.466 135.692C632.878 163.565 690.741 211.232 676.989 248.304C654.55 308.794 675.379 423.017 570.642 420.973C448.684 418.592 444.758 299.94 371.351 242.338C344.358 221.157 309.842 204.666 274.328 188.459C239.918 172.755 203.554 159.84 164.872 148.11C89.3202 125.202 -7.42 123.271 -64.0227 85.8638C-121.71 47.7398 -168.046 -8.24132 -146.709 -57.8049C-125.783 -106.412 -34.4637 -133.897 40.6424 -157.258C107.166 -177.951 193.873 -161.894 259.064 -184.019C334.129 -209.494 359.293 -312.544 438.869 -292.41Z" fill="url(#logo-gradient)"/>
</g>
<g>
<path fill-rule="evenodd" clip-rule="evenodd" d="M1383.42 617.657C1486.2 594.405 1569.07 489.047 1669.98 516.542C1762.8 541.833 1753.13 649.299 1768.85 722.668C1780.9 778.952 1731.58 834.895 1750.02 890.188C1777.56 972.742 1922.41 1031.16 1899.57 1114.53C1879.09 1189.28 1753.46 1229.56 1653.52 1242.38C1559.17 1254.48 1477.11 1195.45 1383.42 1180.72C1312.79 1169.61 1239.3 1185.1 1171.48 1166.55C1095.85 1145.87 1026.75 1113.68 973.128 1068.52C912.085 1017.11 830.533 958.467 843.342 890.188C856.519 819.954 969.474 789.72 1035 738.747C1084.19 700.477 1117.38 649.353 1181.61 627.032C1243.86 605.396 1317.76 632.514 1383.42 617.657Z" fill="url(#logo-gradient)"/>
</g>
<g>
<path fill-rule="evenodd" clip-rule="evenodd" d="M82.0999 649.042C202.673 623.686 237.972 350.631 343.299 410.576C456.305 474.891 271.199 652.606 299.231 772.619C310.973 822.891 412.441 802.633 444.66 844.538C475.9 885.168 457.285 942.011 467.165 991.032C480.349 1056.45 568.045 1141 513.05 1183.86C444.089 1237.61 336.396 1156.71 246.501 1163.01C207.159 1165.76 178.041 1197.42 140.97 1209.92C100.073 1223.71 57.2347 1254.03 16.1652 1240.68C-26.5318 1226.81 -23.8834 1157.26 -66.2637 1142.58C-130.502 1120.32 -229.793 1193.19 -269.787 1141.61C-307.29 1093.25 -157.342 1030.32 -192.134 980.251C-266.023 873.91 -564.448 891.948 -527.914 770.12C-492.124 650.776 -240.151 847.585 -130.9 776.062C-51.9098 724.348 -212.443 558.844 -131.109 510.342C-57.2784 466.315 -3.54479 667.053 82.0999 649.042Z" fill="url(#logo-gradient)"/>
</g>
<g>
<path fill-rule="evenodd" clip-rule="evenodd" d="M1422.39 -148.466C1540.89 -177.475 1562.06 -414.103 1680.01 -383.228C1787.05 -355.207 1632.47 -173.488 1679.66 -81.118C1711.88 -18.0218 1829.6 -40.2046 1881.31 10.8725C1940.61 69.4485 2046.14 164.314 1990.1 225.529C1914.48 308.135 1760.4 249.248 1644.76 269.28C1603.52 276.425 1553.95 276.307 1526.96 305.76C1473.09 364.559 1506.18 512.174 1422.39 512C1338.48 511.826 1371.48 364.582 1318.03 305.327C1291.59 276.009 1238.45 286.105 1202.08 267.768C1153.98 243.52 1097.27 224.252 1070.31 180.441C1043.01 136.09 1046.44 80.3701 1055.88 30.1959C1065.53 -21.1058 1099.23 -64.0226 1125.01 -110.416C1155.87 -165.956 1156.13 -262.862 1223.51 -271.483C1303.73 -281.748 1344.13 -129.309 1422.39 -148.466Z" fill="url(#logo-gradient)"/>
</g>
<defs>
<filter id="filter0_d" x="-156" y="-295" width="1092" height="724" filterUnits="userSpaceOnUse" color-interpolation-filters="sRGB">
<feFlood flood-opacity="0" result="BackgroundImageFix"/>
<feColorMatrix in="SourceAlpha" type="matrix" values="0 0 0 0 0 0 0 0 0 0 0 0 0 0 0 0 0 0 127 0" result="hardAlpha"/>
<feOffset dy="4"/>
<feGaussianBlur stdDeviation="2"/>
<feComposite in2="hardAlpha" operator="out"/>
<feColorMatrix type="matrix" values="0 0 0 0 0 0 0 0 0 0 0 0 0 0 0 0 0 0 0.25 0"/>
<feBlend mode="normal" in2="BackgroundImageFix" result="effect1_dropShadow"/>
<feBlend mode="normal" in="SourceGraphic" in2="effect1_dropShadow" result="shape"/>
</filter>
<filter id="filter1_d" x="838" y="512" width="1068" height="740" filterUnits="userSpaceOnUse" color-interpolation-filters="sRGB">
<feFlood flood-opacity="0" result="BackgroundImageFix"/>
<feColorMatrix in="SourceAlpha" type="matrix" values="0 0 0 0 0 0 0 0 0 0 0 0 0 0 0 0 0 0 127 0" result="hardAlpha"/>
<feOffset dy="4"/>
<feGaussianBlur stdDeviation="2"/>
<feComposite in2="hardAlpha" operator="out"/>
<feColorMatrix type="matrix" values="0 0 0 0 0 0 0 0 0 0 0 0 0 0 0 0 0 0 0.25 0"/>
<feBlend mode="normal" in2="BackgroundImageFix" result="effect1_dropShadow"/>
<feBlend mode="normal" in="SourceGraphic" in2="effect1_dropShadow" result="shape"/>
</filter>
<filter id="filter2_d" x="-535" y="402" width="1070" height="850" filterUnits="userSpaceOnUse" color-interpolation-filters="sRGB">
<feFlood flood-opacity="0" result="BackgroundImageFix"/>
<feColorMatrix in="SourceAlpha" type="matrix" values="0 0 0 0 0 0 0 0 0 0 0 0 0 0 0 0 0 0 127 0" result="hardAlpha"/>
<feOffset dy="4"/>
<feGaussianBlur stdDeviation="2"/>
<feComposite in2="hardAlpha" operator="out"/>
<feColorMatrix type="matrix" values="0 0 0 0 0 0 0 0 0 0 0 0 0 0 0 0 0 0 0.25 0"/>
<feBlend mode="normal" in2="BackgroundImageFix" result="effect1_dropShadow"/>
<feBlend mode="normal" in="SourceGraphic" in2="effect1_dropShadow" result="shape"/>
</filter>
<filter id="filter3_d" x="1045" y="-386" width="965" height="906" filterUnits="userSpaceOnUse" color-interpolation-filters="sRGB">
<feFlood flood-opacity="0" result="BackgroundImageFix"/>
<feColorMatrix in="SourceAlpha" type="matrix" values="0 0 0 0 0 0 0 0 0 0 0 0 0 0 0 0 0 0 127 0" result="hardAlpha"/>
<feOffset dy="4"/>
<feGaussianBlur stdDeviation="2"/>
<feComposite in2="hardAlpha" operator="out"/>
<feColorMatrix type="matrix" values="0 0 0 0 0 0 0 0 0 0 0 0 0 0 0 0 0 0 0.25 0"/>
<feBlend mode="normal" in2="BackgroundImageFix" result="effect1_dropShadow"/>
<feBlend mode="normal" in="SourceGraphic" in2="effect1_dropShadow" result="shape"/>
</filter>
<linearGradient id="paint0_linear" x1="390" y1="-240.567" x2="390" y2="421" gradientUnits="userSpaceOnUse">
<stop stop-color="#A9B947"/>
<stop offset="1" stop-color="#DF921B"/>
</linearGradient>
<linearGradient id="paint1_linear" x1="829.586" y1="1244" x2="1809.09" y2="1272.31" gradientUnits="userSpaceOnUse">
<stop stop-color="#B4207A"/>
<stop offset="0.455963" stop-color="#E3670C"/>
<stop offset="0.940347" stop-color="#A9B947"/>
</linearGradient>
<linearGradient id="paint2_linear" x1="-318.6" y1="1244" x2="531.759" y2="1341.08" gradientUnits="userSpaceOnUse">
<stop stop-color="#BA296C"/>
<stop offset="1" stop-color="#DA7416"/>
</linearGradient>
<linearGradient id="paint3_linear" x1="1527.5" y1="-386" x2="1527.5" y2="512" gradientUnits="userSpaceOnUse">
<stop stop-color="#FF7A00"/>
<stop offset="1" stop-color="#C2355A"/>
</linearGradient>
</defs>
</svg>
