   <svg preserveAspectRatio="none" viewBox="0 0 186 43" fill="none" xmlns="http://www.w3.org/2000/svg">
<path d="M2.64429 21.5C2.64429 11.1101 11.0669 2.6875 21.4568 2.6875H164.543C174.933 2.6875 183.355 11.1101 183.355 21.5V21.5C183.355 31.8899 174.933 40.3125 164.543 40.3125H21.4568C11.0669 40.3125 2.64429 31.8899 2.64429 21.5V21.5Z" stroke="url(#paint0_linear)" stroke-width="5"/>
<path d="M69.4214 24.9766H67.1948V31H63.0815V13.9375H69.7964C71.8198 13.9375 73.4019 14.3867 74.5425 15.2852C75.6831 16.1836 76.2534 17.4531 76.2534 19.0938C76.2534 20.2812 76.0112 21.2656 75.5269 22.0469C75.0503 22.8281 74.3003 23.4609 73.2769 23.9453L76.8394 30.8242V31H72.4331L69.4214 24.9766ZM67.1948 21.8008H69.7964C70.5776 21.8008 71.1636 21.5977 71.5542 21.1914C71.9526 20.7773 72.1519 20.2031 72.1519 19.4688C72.1519 18.7344 71.9526 18.1602 71.5542 17.7461C71.1558 17.3242 70.5698 17.1133 69.7964 17.1133H67.1948V21.8008ZM84.6909 31.2344C82.7456 31.2344 81.1714 30.6562 79.9683 29.5C78.7651 28.3359 78.1636 26.8242 78.1636 24.9648V24.6367C78.1636 23.3398 78.4019 22.1953 78.8784 21.2031C79.3628 20.2109 80.0659 19.4453 80.9878 18.9062C81.9097 18.3594 83.0034 18.0859 84.269 18.0859C86.0503 18.0859 87.4565 18.6406 88.4878 19.75C89.519 20.8516 90.0347 22.3906 90.0347 24.3672V25.9023H82.1831C82.3237 26.6133 82.6323 27.1719 83.1089 27.5781C83.5854 27.9844 84.2026 28.1875 84.9604 28.1875C86.2104 28.1875 87.187 27.75 87.8901 26.875L89.6948 29.0078C89.2026 29.6875 88.5034 30.2305 87.5972 30.6367C86.6987 31.0352 85.73 31.2344 84.6909 31.2344ZM84.2456 21.1328C83.0894 21.1328 82.4019 21.8984 82.1831 23.4297H86.1675V23.125C86.1831 22.4922 86.0229 22.0039 85.687 21.6602C85.3511 21.3086 84.8706 21.1328 84.2456 21.1328ZM98.2729 27.4375C98.2729 27.1016 98.0972 26.832 97.7456 26.6289C97.394 26.4258 96.7261 26.2148 95.7417 25.9961C94.7573 25.7773 93.9448 25.4922 93.3042 25.1406C92.6636 24.7812 92.1753 24.3477 91.8394 23.8398C91.5034 23.332 91.3354 22.75 91.3354 22.0938C91.3354 20.9297 91.8159 19.9727 92.7769 19.2227C93.7378 18.4648 94.9956 18.0859 96.5503 18.0859C98.2222 18.0859 99.5659 18.4648 100.582 19.2227C101.597 19.9805 102.105 20.9766 102.105 22.2109H98.144C98.144 21.1953 97.6089 20.6875 96.5386 20.6875C96.1245 20.6875 95.7769 20.8047 95.4956 21.0391C95.2144 21.2656 95.0737 21.5508 95.0737 21.8945C95.0737 22.2461 95.2456 22.5312 95.5894 22.75C95.9331 22.9688 96.48 23.1484 97.23 23.2891C97.9878 23.4297 98.6519 23.5977 99.2222 23.793C101.128 24.4492 102.082 25.625 102.082 27.3203C102.082 28.4766 101.566 29.418 100.535 30.1445C99.5112 30.8711 98.1831 31.2344 96.5503 31.2344C95.4644 31.2344 94.4956 31.0391 93.644 30.6484C92.7925 30.2578 92.1284 29.7266 91.6519 29.0547C91.1753 28.3828 90.937 27.6758 90.937 26.9336H94.6284C94.644 27.5195 94.8394 27.9492 95.2144 28.2227C95.5894 28.4883 96.0698 28.6211 96.6558 28.6211C97.1948 28.6211 97.5972 28.5117 97.8628 28.293C98.1362 28.0742 98.2729 27.7891 98.2729 27.4375ZM111.492 29.6289C110.656 30.6992 109.527 31.2344 108.105 31.2344C106.714 31.2344 105.66 30.832 104.941 30.0273C104.23 29.2148 103.875 28.0508 103.875 26.5352V18.3203H107.824V26.5586C107.824 27.6445 108.351 28.1875 109.406 28.1875C110.312 28.1875 110.957 27.8633 111.339 27.2148V18.3203H115.312V31H111.609L111.492 29.6289ZM121.218 18.3203L121.347 19.8086C122.246 18.6602 123.453 18.0859 124.968 18.0859C126.57 18.0859 127.652 18.7227 128.214 19.9961C129.074 18.7227 130.316 18.0859 131.941 18.0859C134.511 18.0859 135.832 19.6406 135.902 22.75V31H131.941V22.9961C131.941 22.3477 131.832 21.875 131.613 21.5781C131.394 21.2812 130.996 21.1328 130.417 21.1328C129.636 21.1328 129.054 21.4805 128.671 22.1758L128.683 22.3398V31H124.722V23.0195C124.722 22.3555 124.617 21.875 124.406 21.5781C124.195 21.2812 123.792 21.1328 123.199 21.1328C122.441 21.1328 121.863 21.4805 121.464 22.1758V31H117.515V18.3203H121.218ZM144.292 31.2344C142.347 31.2344 140.773 30.6562 139.57 29.5C138.367 28.3359 137.765 26.8242 137.765 24.9648V24.6367C137.765 23.3398 138.003 22.1953 138.48 21.2031C138.964 20.2109 139.667 19.4453 140.589 18.9062C141.511 18.3594 142.605 18.0859 143.871 18.0859C145.652 18.0859 147.058 18.6406 148.089 19.75C149.121 20.8516 149.636 22.3906 149.636 24.3672V25.9023H141.785C141.925 26.6133 142.234 27.1719 142.71 27.5781C143.187 27.9844 143.804 28.1875 144.562 28.1875C145.812 28.1875 146.789 27.75 147.492 26.875L149.296 29.0078C148.804 29.6875 148.105 30.2305 147.199 30.6367C146.3 31.0352 145.332 31.2344 144.292 31.2344ZM143.847 21.1328C142.691 21.1328 142.003 21.8984 141.785 23.4297H145.769V23.125C145.785 22.4922 145.625 22.0039 145.289 21.6602C144.953 21.3086 144.472 21.1328 143.847 21.1328Z" fill="white"/>
<path d="M48.3992 19.3177H43.428V12.375H35.9712V19.3177H31L39.6996 27.4175L48.3992 19.3177ZM31 29.7318V32.046H48.3992V29.7318H31Z" fill="white"/>
<defs>
<linearGradient id="paint0_linear" x1="92.9997" y1="2.6875" x2="92.9997" y2="40.3125" gradientUnits="userSpaceOnUse">
<stop stop-color="#D62C49"/>
<stop offset="0.395833" stop-color="#D12784"/>
<stop offset="0.421875" stop-color="#A749BC"/>
<stop offset="0.598958" stop-color="#8B52C6"/>
<stop offset="0.765625" stop-color="#4169E1"/>
<stop offset="0.875" stop-color="#007EE8"/>
<stop offset="0.953125" stop-color="#1DA1F2"/>
</linearGradient>
</defs>
</svg>