<svg class="transform hover:-translate-y-1 hover:scale-110 transition duration-500 ease-in-out" width="43" height="42" viewBox="0 0 43 42" fill="none" xmlns="http://www.w3.org/2000/svg">
                <path d="M14.3825 33.8183C14.3825 33.992 14.1831 34.131 13.9317 34.131C13.6456 34.157 13.4462 34.0181 13.4462 33.8183C13.4462 33.6446 13.6456 33.5057 13.897 33.5057C14.1571 33.4796 14.3825 33.6186 14.3825 33.8183ZM11.6863 33.4275C11.6256 33.6012 11.799 33.801 12.0591 33.8531C12.2845 33.9399 12.5446 33.8531 12.5966 33.6794C12.6486 33.5057 12.4839 33.3059 12.2238 33.2278C11.9984 33.167 11.747 33.2538 11.6863 33.4275ZM15.5181 33.2799C15.2667 33.3407 15.0933 33.5057 15.1194 33.7054C15.1454 33.8791 15.3708 33.992 15.6308 33.9312C15.8823 33.8704 16.0556 33.7054 16.0296 33.5317C16.0036 33.3667 15.7696 33.2538 15.5181 33.2799ZM21.2226 0C9.19819 0 0 9.14502 0 21.1907C0 30.8221 6.05121 39.0639 14.6946 41.9646C15.8042 42.1644 16.1944 41.4783 16.1944 40.9138C16.1944 40.3753 16.1683 37.4051 16.1683 35.5813C16.1683 35.5813 10.0998 36.884 8.8254 32.9933C8.8254 32.9933 7.8371 30.466 6.41532 29.8147C6.41532 29.8147 4.43004 28.4512 6.55403 28.4772C6.55403 28.4772 8.7127 28.6509 9.9004 30.7179C11.799 34.0702 14.9806 33.1062 16.2204 32.533C16.4198 31.1434 16.9833 30.1794 17.6075 29.6062C12.7613 29.0678 7.87177 28.3643 7.87177 20.0096C7.87177 17.6213 8.53065 16.4228 9.91774 14.8943C9.69234 14.3298 8.95544 12.0023 10.1431 8.99738C11.955 8.43287 16.125 11.3423 16.125 11.3423C17.8589 10.8559 19.7228 10.6041 21.5694 10.6041C23.4159 10.6041 25.2798 10.8559 27.0137 11.3423C27.0137 11.3423 31.1837 8.42419 32.9956 8.99738C34.1833 12.011 33.4464 14.3298 33.221 14.8943C34.6081 16.4315 35.4577 17.63 35.4577 20.0096C35.4577 28.3904 30.3514 29.0591 25.5052 29.6062C26.3028 30.2923 26.979 31.595 26.979 33.636C26.979 36.5627 26.953 40.1842 26.953 40.8964C26.953 41.4609 27.3518 42.147 28.4528 41.9472C37.1222 39.0639 43 30.8221 43 21.1907C43 9.14502 33.247 0 21.2226 0ZM8.42661 29.9536C8.31391 30.0405 8.33992 30.2402 8.4873 30.4052C8.62601 30.5442 8.8254 30.605 8.9381 30.4921C9.05081 30.4052 9.0248 30.2055 8.87742 30.0405C8.73871 29.9015 8.53931 29.8407 8.42661 29.9536ZM7.49032 29.2502C7.42964 29.3631 7.51633 29.502 7.68972 29.5889C7.82843 29.6757 8.00181 29.6497 8.0625 29.5281C8.12319 29.4152 8.03649 29.2762 7.8631 29.1894C7.68972 29.1373 7.55101 29.1633 7.49032 29.2502ZM10.2992 32.3419C10.1605 32.4548 10.2125 32.7154 10.4119 32.8804C10.6113 33.0801 10.8627 33.1062 10.9754 32.9672C11.0881 32.8543 11.0361 32.5938 10.8627 32.4288C10.672 32.229 10.4119 32.203 10.2992 32.3419ZM9.31089 31.0653C9.17218 31.1521 9.17218 31.3779 9.31089 31.5777C9.4496 31.7774 9.68367 31.8643 9.79637 31.7774C9.93508 31.6645 9.93508 31.4387 9.79637 31.239C9.675 31.0392 9.4496 30.9524 9.31089 31.0653Z" fill="white" />
              </svg>