 <svg class="transform hover:-translate-y-1 hover:scale-110 transition duration-500 ease-in-out" viewBox="0 0 40 39" fill="none" xmlns="http://www.w3.org/2000/svg">
                <path d="M18.7053 19.5076C18.2009 18.2889 18.211 15.9352 18.5036 15.9352C19.351 15.9352 19.2703 18.7459 18.7053 19.5076ZM18.5338 23.1029C17.7571 24.6416 16.7886 26.4012 15.6688 27.8789C17.5149 27.3457 19.6032 26.5688 22.0143 26.2107C20.7331 25.4795 19.5023 24.4283 18.5338 23.1029ZM9.0409 32.6092C9.0409 32.6701 10.3725 32.1978 12.5617 29.5471C11.8858 30.027 9.62601 31.4133 9.0409 32.6092ZM25.3736 12.1875H39.0935V37.1719C39.0935 38.185 38.0141 39 36.6723 39H2.77615C1.43443 39 0.354996 38.185 0.354996 37.1719V1.82812C0.354996 0.815039 1.43443 0 2.77615 0H22.9525V10.3594C22.9525 11.3648 24.042 12.1875 25.3736 12.1875ZM24.5666 25.2738C22.5489 24.3445 21.2072 23.0648 20.2589 21.1758C20.7129 19.7666 21.4291 17.6262 20.8844 16.2855C20.4102 14.0461 16.607 14.267 16.0623 15.7676C15.5578 17.1615 16.0219 19.1268 16.8794 21.6328C15.7092 23.7352 13.9841 26.5535 12.7634 28.1684C12.7533 28.1684 12.7533 28.176 12.7432 28.176C10.0094 29.2348 5.31837 31.5656 7.24521 33.3557C7.81014 33.8812 8.85931 34.1174 9.41416 34.1174C11.2199 34.1174 13.0156 32.7463 15.578 29.41C18.1808 28.7625 21.0357 27.9551 23.5477 27.6428C25.7368 28.5416 28.2992 29.1281 30.0041 29.1281C32.9498 29.1281 33.1516 26.6906 31.9914 25.8223C30.5892 24.7863 26.5136 25.0834 24.5666 25.2738ZM38.3873 7.99805L28.5009 0.533203C28.047 0.19043 27.4316 0 26.786 0H26.1807V9.75H39.0935V9.28535C39.0935 8.80547 38.8413 8.34082 38.3873 7.99805ZM30.912 27.4447C31.3256 27.2391 30.6598 26.5383 26.5943 26.7592C30.337 27.9627 30.912 27.4447 30.912 27.4447Z" fill="white" />
              </svg>
