<svg width="1338" height="543" viewBox="0 0 1338 543" fill="none"
    xmlns="http://www.w3.org/2000/svg">
    <path d="M96.46 51.35L64.87 143H32.24L0.52 51.35H27.82L48.62 117.52L69.29 51.35H96.46ZM117.269 63.31C112.762 63.31 109.122 62.0967 106.349 59.67C103.662 57.1567 102.319 54.0367 102.319 50.31C102.319 46.4967 103.662 43.3333 106.349 40.82C109.122 38.3067 112.762 37.05 117.269 37.05C121.689 37.05 125.242 38.3067 127.929 40.82C130.702 43.3333 132.089 46.4967 132.089 50.31C132.089 54.0367 130.702 57.1567 127.929 59.67C125.242 62.0967 121.689 63.31 117.269 63.31ZM129.879 70.07V143H104.399V70.07H129.879ZM140.229 106.47C140.229 98.93 141.789 92.3433 144.909 86.71C148.029 81.0767 152.363 76.7433 157.909 73.71C163.543 70.6767 169.956 69.16 177.149 69.16C186.423 69.16 194.223 71.7167 200.549 76.83C206.876 81.8567 210.949 88.92 212.769 98.02H185.729C184.169 93.2533 181.136 90.87 176.629 90.87C173.423 90.87 170.866 92.2133 168.959 94.9C167.139 97.5 166.229 101.357 166.229 106.47C166.229 111.583 167.139 115.483 168.959 118.17C170.866 120.857 173.423 122.2 176.629 122.2C181.223 122.2 184.256 119.817 185.729 115.05H212.769C210.949 124.063 206.876 131.127 200.549 136.24C194.223 141.353 186.423 143.91 177.149 143.91C169.956 143.91 163.543 142.393 157.909 139.36C152.363 136.327 148.029 131.993 144.909 126.36C141.789 120.727 140.229 114.097 140.229 106.47ZM266.384 121.29V143H255.334C236.701 143 227.384 133.77 227.384 115.31V91.26H218.414V70.07H227.384V52.39H252.994V70.07H266.254V91.26H252.994V115.7C252.994 117.693 253.428 119.123 254.294 119.99C255.248 120.857 256.808 121.29 258.974 121.29H266.384ZM312.001 143.91C304.721 143.91 298.178 142.393 292.371 139.36C286.651 136.327 282.144 131.993 278.851 126.36C275.558 120.727 273.911 114.097 273.911 106.47C273.911 98.93 275.558 92.3433 278.851 86.71C282.231 81.0767 286.781 76.7433 292.501 73.71C298.308 70.6767 304.851 69.16 312.131 69.16C319.411 69.16 325.911 70.6767 331.631 73.71C337.438 76.7433 341.988 81.0767 345.281 86.71C348.661 92.3433 350.351 98.93 350.351 106.47C350.351 114.01 348.661 120.64 345.281 126.36C341.988 131.993 337.438 136.327 331.631 139.36C325.824 142.393 319.281 143.91 312.001 143.91ZM312.001 121.81C315.554 121.81 318.501 120.51 320.841 117.91C323.268 115.223 324.481 111.41 324.481 106.47C324.481 101.53 323.268 97.76 320.841 95.16C318.501 92.56 315.598 91.26 312.131 91.26C308.664 91.26 305.761 92.56 303.421 95.16C301.081 97.76 299.911 101.53 299.911 106.47C299.911 111.497 301.038 115.31 303.291 117.91C305.544 120.51 308.448 121.81 312.001 121.81ZM386.198 82.94C389.058 78.78 392.524 75.4867 396.598 73.06C400.671 70.6333 405.048 69.42 409.728 69.42V96.59H402.578C397.031 96.59 392.914 97.6733 390.228 99.84C387.541 102.007 386.198 105.777 386.198 111.15V143H360.718V70.07H386.198V82.94ZM431.732 63.31C427.225 63.31 423.585 62.0967 420.812 59.67C418.125 57.1567 416.782 54.0367 416.782 50.31C416.782 46.4967 418.125 43.3333 420.812 40.82C423.585 38.3067 427.225 37.05 431.732 37.05C436.152 37.05 439.705 38.3067 442.392 40.82C445.165 43.3333 446.552 46.4967 446.552 50.31C446.552 54.0367 445.165 57.1567 442.392 59.67C439.705 62.0967 436.152 63.31 431.732 63.31ZM444.342 70.07V143H418.862V70.07H444.342ZM454.692 106.47C454.692 98.93 456.036 92.3433 458.722 86.71C461.496 81.0767 465.222 76.7433 469.902 73.71C474.669 70.6767 479.956 69.16 485.762 69.16C490.789 69.16 495.122 70.1567 498.762 72.15C502.402 74.1433 505.219 76.83 507.212 80.21V70.07H532.692V143H507.212V132.86C505.219 136.24 502.359 138.927 498.632 140.92C494.992 142.913 490.702 143.91 485.762 143.91C479.956 143.91 474.669 142.393 469.902 139.36C465.222 136.327 461.496 131.993 458.722 126.36C456.036 120.64 454.692 114.01 454.692 106.47ZM507.212 106.47C507.212 101.79 505.912 98.1067 503.312 95.42C500.799 92.7333 497.679 91.39 493.952 91.39C490.139 91.39 486.976 92.7333 484.462 95.42C481.949 98.02 480.692 101.703 480.692 106.47C480.692 111.15 481.949 114.877 484.462 117.65C486.976 120.337 490.139 121.68 493.952 121.68C497.679 121.68 500.799 120.337 503.312 117.65C505.912 114.963 507.212 111.237 507.212 106.47ZM701.184 51.35L678.694 143H647.364L634.754 86.84L621.884 143H590.554L568.324 51.35H595.884L606.544 114.01L620.974 51.35H648.924L662.964 113.49L673.624 51.35H701.184ZM724.867 63.31C720.36 63.31 716.72 62.0967 713.947 59.67C711.26 57.1567 709.917 54.0367 709.917 50.31C709.917 46.4967 711.26 43.3333 713.947 40.82C716.72 38.3067 720.36 37.05 724.867 37.05C729.287 37.05 732.84 38.3067 735.527 40.82C738.3 43.3333 739.687 46.4967 739.687 50.31C739.687 54.0367 738.3 57.1567 735.527 59.67C732.84 62.0967 729.287 63.31 724.867 63.31ZM737.477 70.07V143H711.997V70.07H737.477ZM777.467 46.8V143H751.987V46.8H777.467ZM817.457 46.8V143H791.977V46.8H817.457ZM844.838 63.31C840.331 63.31 836.691 62.0967 833.918 59.67C831.231 57.1567 829.888 54.0367 829.888 50.31C829.888 46.4967 831.231 43.3333 833.918 40.82C836.691 38.3067 840.331 37.05 844.838 37.05C849.258 37.05 852.811 38.3067 855.498 40.82C858.271 43.3333 859.658 46.4967 859.658 50.31C859.658 54.0367 858.271 57.1567 855.498 59.67C852.811 62.0967 849.258 63.31 844.838 63.31ZM857.448 70.07V143H831.968V70.07H857.448ZM867.798 106.47C867.798 98.93 869.141 92.3433 871.828 86.71C874.601 81.0767 878.328 76.7433 883.008 73.71C887.774 70.6767 893.061 69.16 898.868 69.16C903.894 69.16 908.228 70.1567 911.868 72.15C915.508 74.1433 918.324 76.83 920.318 80.21V70.07H945.798V143H920.318V132.86C918.324 136.24 915.464 138.927 911.738 140.92C908.098 142.913 903.808 143.91 898.868 143.91C893.061 143.91 887.774 142.393 883.008 139.36C878.328 136.327 874.601 131.993 871.828 126.36C869.141 120.64 867.798 114.01 867.798 106.47ZM920.318 106.47C920.318 101.79 919.018 98.1067 916.418 95.42C913.904 92.7333 910.784 91.39 907.058 91.39C903.244 91.39 900.081 92.7333 897.568 95.42C895.054 98.02 893.798 101.703 893.798 106.47C893.798 111.15 895.054 114.877 897.568 117.65C900.081 120.337 903.244 121.68 907.058 121.68C910.784 121.68 913.904 120.337 916.418 117.65C919.018 114.963 920.318 111.237 920.318 106.47ZM1055.61 69.42C1064.79 69.42 1071.99 72.1933 1077.19 77.74C1082.47 83.2867 1085.12 90.87 1085.12 100.49V143H1059.64V103.87C1059.64 99.97 1058.55 96.9367 1056.39 94.77C1054.22 92.6033 1051.27 91.52 1047.55 91.52C1043.82 91.52 1040.87 92.6033 1038.71 94.77C1036.54 96.9367 1035.46 99.97 1035.46 103.87V143H1009.98V103.87C1009.98 99.97 1008.89 96.9367 1006.73 94.77C1004.65 92.6033 1001.74 91.52 998.017 91.52C994.204 91.52 991.214 92.6033 989.047 94.77C986.88 96.9367 985.797 99.97 985.797 103.87V143H960.317V70.07H985.797V79.69C988.05 76.57 990.954 74.1 994.507 72.28C998.147 70.3733 1002.31 69.42 1006.99 69.42C1012.36 69.42 1017.13 70.59 1021.29 72.93C1025.53 75.27 1028.87 78.5633 1031.3 82.81C1033.9 78.8233 1037.32 75.6167 1041.57 73.19C1045.81 70.6767 1050.49 69.42 1055.61 69.42ZM1130.15 143.91C1123.56 143.91 1117.67 142.827 1112.47 140.66C1107.35 138.407 1103.28 135.373 1100.25 131.56C1097.3 127.66 1095.65 123.283 1095.31 118.43H1120.01C1120.35 120.77 1121.44 122.59 1123.26 123.89C1125.08 125.19 1127.33 125.84 1130.02 125.84C1132.1 125.84 1133.74 125.407 1134.96 124.54C1136.17 123.673 1136.78 122.547 1136.78 121.16C1136.78 119.34 1135.78 117.997 1133.79 117.13C1131.79 116.263 1128.5 115.31 1123.91 114.27C1118.71 113.23 1114.37 112.06 1110.91 110.76C1107.44 109.46 1104.41 107.337 1101.81 104.39C1099.29 101.443 1098.04 97.4567 1098.04 92.43C1098.04 88.0967 1099.21 84.1967 1101.55 80.73C1103.89 77.1767 1107.31 74.36 1111.82 72.28C1116.41 70.2 1121.91 69.16 1128.33 69.16C1137.86 69.16 1145.36 71.5 1150.82 76.18C1156.28 80.86 1159.44 87.0133 1160.31 94.64H1137.3C1136.86 92.3 1135.82 90.5233 1134.18 89.31C1132.62 88.01 1130.49 87.36 1127.81 87.36C1125.73 87.36 1124.12 87.75 1123 88.53C1121.96 89.31 1121.44 90.3933 1121.44 91.78C1121.44 93.5133 1122.43 94.8567 1124.43 95.81C1126.42 96.6767 1129.63 97.5867 1134.05 98.54C1139.33 99.6667 1143.71 100.923 1147.18 102.31C1150.73 103.697 1153.81 105.95 1156.41 109.07C1159.09 112.103 1160.44 116.263 1160.44 121.55C1160.44 125.797 1159.18 129.61 1156.67 132.99C1154.24 136.37 1150.73 139.057 1146.14 141.05C1141.63 142.957 1136.3 143.91 1130.15 143.91ZM1206.89 143.91C1199.61 143.91 1193.07 142.393 1187.26 139.36C1181.54 136.327 1177.04 131.993 1173.74 126.36C1170.45 120.727 1168.8 114.097 1168.8 106.47C1168.8 98.93 1170.45 92.3433 1173.74 86.71C1177.12 81.0767 1181.67 76.7433 1187.39 73.71C1193.2 70.6767 1199.74 69.16 1207.02 69.16C1214.3 69.16 1220.8 70.6767 1226.52 73.71C1232.33 76.7433 1236.88 81.0767 1240.17 86.71C1243.55 92.3433 1245.24 98.93 1245.24 106.47C1245.24 114.01 1243.55 120.64 1240.17 126.36C1236.88 131.993 1232.33 136.327 1226.52 139.36C1220.72 142.393 1214.17 143.91 1206.89 143.91ZM1206.89 121.81C1210.45 121.81 1213.39 120.51 1215.73 117.91C1218.16 115.223 1219.37 111.41 1219.37 106.47C1219.37 101.53 1218.16 97.76 1215.73 95.16C1213.39 92.56 1210.49 91.26 1207.02 91.26C1203.56 91.26 1200.65 92.56 1198.31 95.16C1195.97 97.76 1194.8 101.53 1194.8 106.47C1194.8 111.497 1195.93 115.31 1198.18 117.91C1200.44 120.51 1203.34 121.81 1206.89 121.81ZM1303.32 69.42C1311.73 69.42 1318.4 72.2367 1323.34 77.87C1328.28 83.4167 1330.75 90.9567 1330.75 100.49V143H1305.27V103.87C1305.27 99.71 1304.19 96.46 1302.02 94.12C1299.85 91.6933 1296.95 90.48 1293.31 90.48C1289.5 90.48 1286.51 91.6933 1284.34 94.12C1282.17 96.46 1281.09 99.71 1281.09 103.87V143H1255.61V70.07H1281.09V80.47C1283.34 77.1767 1286.38 74.5333 1290.19 72.54C1294 70.46 1298.38 69.42 1303.32 69.42Z" fill="white"/>
    <path d="M150.366 231.08C150.366 225.64 151.62 220.76 154.126 216.44C156.686 212.12 160.126 208.76 164.446 206.36C168.82 203.907 173.593 202.68 178.766 202.68C184.686 202.68 189.94 204.147 194.526 207.08C199.166 209.96 202.526 214.067 204.606 219.4H193.646C192.206 216.467 190.206 214.28 187.646 212.84C185.086 211.4 182.126 210.68 178.766 210.68C175.086 210.68 171.806 211.507 168.926 213.16C166.046 214.813 163.78 217.187 162.126 220.28C160.526 223.373 159.726 226.973 159.726 231.08C159.726 235.187 160.526 238.787 162.126 241.88C163.78 244.973 166.046 247.373 168.926 249.08C171.806 250.733 175.086 251.56 178.766 251.56C182.126 251.56 185.086 250.84 187.646 249.4C190.206 247.96 192.206 245.773 193.646 242.84H204.606C202.526 248.173 199.166 252.28 194.526 255.16C189.94 258.04 184.686 259.48 178.766 259.48C173.54 259.48 168.766 258.28 164.446 255.88C160.126 253.427 156.686 250.04 154.126 245.72C151.62 241.4 150.366 236.52 150.366 231.08ZM234.401 259.72C230.241 259.72 226.481 258.787 223.121 256.92C219.761 255 217.121 252.333 215.201 248.92C213.281 245.453 212.321 241.453 212.321 236.92C212.321 232.44 213.308 228.467 215.281 225C217.255 221.533 219.948 218.867 223.361 217C226.775 215.133 230.588 214.2 234.801 214.2C239.015 214.2 242.828 215.133 246.241 217C249.655 218.867 252.348 221.533 254.321 225C256.295 228.467 257.281 232.44 257.281 236.92C257.281 241.4 256.268 245.373 254.241 248.84C252.215 252.307 249.441 255 245.921 256.92C242.455 258.787 238.615 259.72 234.401 259.72ZM234.401 251.8C236.748 251.8 238.935 251.24 240.961 250.12C243.041 249 244.721 247.32 246.001 245.08C247.281 242.84 247.921 240.12 247.921 236.92C247.921 233.72 247.308 231.027 246.081 228.84C244.855 226.6 243.228 224.92 241.201 223.8C239.175 222.68 236.988 222.12 234.641 222.12C232.295 222.12 230.108 222.68 228.081 223.8C226.108 224.92 224.535 226.6 223.361 228.84C222.188 231.027 221.601 233.72 221.601 236.92C221.601 241.667 222.801 245.347 225.201 247.96C227.655 250.52 230.721 251.8 234.401 251.8ZM319.657 214.2C323.124 214.2 326.217 214.92 328.937 216.36C331.71 217.8 333.87 219.933 335.417 222.76C337.017 225.587 337.817 229 337.817 233V259H328.777V234.36C328.777 230.413 327.79 227.4 325.817 225.32C323.844 223.187 321.15 222.12 317.737 222.12C314.324 222.12 311.604 223.187 309.577 225.32C307.604 227.4 306.617 230.413 306.617 234.36V259H297.577V234.36C297.577 230.413 296.59 227.4 294.617 225.32C292.644 223.187 289.95 222.12 286.537 222.12C283.124 222.12 280.404 223.187 278.377 225.32C276.404 227.4 275.417 230.413 275.417 234.36V259H266.297V214.92H275.417V219.96C276.91 218.147 278.804 216.733 281.097 215.72C283.39 214.707 285.844 214.2 288.457 214.2C291.977 214.2 295.124 214.947 297.897 216.44C300.67 217.933 302.804 220.093 304.297 222.92C305.63 220.253 307.71 218.147 310.537 216.6C313.364 215 316.404 214.2 319.657 214.2ZM358.542 221.4C360.089 219.373 362.195 217.667 364.862 216.28C367.529 214.893 370.542 214.2 373.902 214.2C377.742 214.2 381.235 215.16 384.382 217.08C387.582 218.947 390.089 221.587 391.902 225C393.715 228.413 394.622 232.333 394.622 236.76C394.622 241.187 393.715 245.16 391.902 248.68C390.089 252.147 387.582 254.867 384.382 256.84C381.235 258.76 377.742 259.72 373.902 259.72C370.542 259.72 367.555 259.053 364.942 257.72C362.329 256.333 360.195 254.627 358.542 252.6V279.96H349.422V214.92H358.542V221.4ZM385.342 236.76C385.342 233.72 384.702 231.107 383.422 228.92C382.195 226.68 380.542 225 378.462 223.88C376.435 222.707 374.249 222.12 371.902 222.12C369.609 222.12 367.422 222.707 365.342 223.88C363.315 225.053 361.662 226.76 360.382 229C359.155 231.24 358.542 233.88 358.542 236.92C358.542 239.96 359.155 242.627 360.382 244.92C361.662 247.16 363.315 248.867 365.342 250.04C367.422 251.213 369.609 251.8 371.902 251.8C374.249 251.8 376.435 251.213 378.462 250.04C380.542 248.813 382.195 247.053 383.422 244.76C384.702 242.467 385.342 239.8 385.342 236.76ZM443.561 214.92V259H434.441V253.8C433.001 255.613 431.107 257.053 428.761 258.12C426.467 259.133 424.014 259.64 421.401 259.64C417.934 259.64 414.814 258.92 412.041 257.48C409.321 256.04 407.161 253.907 405.561 251.08C404.014 248.253 403.241 244.84 403.241 240.84V214.92H412.281V239.48C412.281 243.427 413.267 246.467 415.241 248.6C417.214 250.68 419.907 251.72 423.321 251.72C426.734 251.72 429.427 250.68 431.401 248.6C433.427 246.467 434.441 243.427 434.441 239.48V214.92H443.561ZM466.234 222.36V246.76C466.234 248.413 466.607 249.613 467.354 250.36C468.154 251.053 469.487 251.4 471.354 251.4H476.954V259H469.754C465.647 259 462.5 258.04 460.314 256.12C458.127 254.2 457.034 251.08 457.034 246.76V222.36H451.834V214.92H457.034V203.96H466.234V214.92H476.954V222.36H466.234ZM525.759 235.88C525.759 237.533 525.653 239.027 525.439 240.36H491.759C492.026 243.88 493.333 246.707 495.679 248.84C498.026 250.973 500.906 252.04 504.319 252.04C509.226 252.04 512.693 249.987 514.719 245.88H524.559C523.226 249.933 520.799 253.267 517.279 255.88C513.813 258.44 509.493 259.72 504.319 259.72C500.106 259.72 496.319 258.787 492.959 256.92C489.653 255 487.039 252.333 485.119 248.92C483.253 245.453 482.319 241.453 482.319 236.92C482.319 232.387 483.226 228.413 485.039 225C486.906 221.533 489.493 218.867 492.799 217C496.159 215.133 499.999 214.2 504.319 214.2C508.479 214.2 512.186 215.107 515.439 216.92C518.693 218.733 521.226 221.293 523.039 224.6C524.853 227.853 525.759 231.613 525.759 235.88ZM516.239 233C516.186 229.64 514.986 226.947 512.639 224.92C510.293 222.893 507.386 221.88 503.919 221.88C500.773 221.88 498.079 222.893 495.839 224.92C493.599 226.893 492.266 229.587 491.839 233H516.239ZM543.854 221.32C545.188 219.08 546.948 217.347 549.134 216.12C551.374 214.84 554.014 214.2 557.054 214.2V223.64H554.734C551.161 223.64 548.441 224.547 546.574 226.36C544.761 228.173 543.854 231.32 543.854 235.8V259H534.734V214.92H543.854V221.32ZM604.539 259.56C600.805 259.56 597.445 258.92 594.459 257.64C591.472 256.307 589.125 254.44 587.419 252.04C585.712 249.64 584.859 246.84 584.859 243.64H594.619C594.832 246.04 595.765 248.013 597.419 249.56C599.125 251.107 601.499 251.88 604.539 251.88C607.685 251.88 610.139 251.133 611.899 249.64C613.659 248.093 614.539 246.12 614.539 243.72C614.539 241.853 613.979 240.333 612.859 239.16C611.792 237.987 610.432 237.08 608.779 236.44C607.179 235.8 604.939 235.107 602.059 234.36C598.432 233.4 595.472 232.44 593.179 231.48C590.939 230.467 589.019 228.92 587.419 226.84C585.819 224.76 585.019 221.987 585.019 218.52C585.019 215.32 585.819 212.52 587.419 210.12C589.019 207.72 591.259 205.88 594.139 204.6C597.019 203.32 600.352 202.68 604.139 202.68C609.525 202.68 613.925 204.04 617.339 206.76C620.805 209.427 622.725 213.107 623.099 217.8H613.019C612.859 215.773 611.899 214.04 610.139 212.6C608.379 211.16 606.059 210.44 603.179 210.44C600.565 210.44 598.432 211.107 596.779 212.44C595.125 213.773 594.299 215.693 594.299 218.2C594.299 219.907 594.805 221.32 595.819 222.44C596.885 223.507 598.219 224.36 599.819 225C601.419 225.64 603.605 226.333 606.379 227.08C610.059 228.093 613.045 229.107 615.339 230.12C617.685 231.133 619.659 232.707 621.259 234.84C622.912 236.92 623.739 239.72 623.739 243.24C623.739 246.067 622.965 248.733 621.419 251.24C619.925 253.747 617.712 255.773 614.779 257.32C611.899 258.813 608.485 259.56 604.539 259.56ZM631.46 236.92C631.46 232.387 632.367 228.413 634.18 225C636.047 221.533 638.607 218.867 641.86 217C645.113 215.133 648.847 214.2 653.06 214.2C658.393 214.2 662.793 215.48 666.26 218.04C669.78 220.547 672.153 224.147 673.38 228.84H663.54C662.74 226.653 661.46 224.947 659.7 223.72C657.94 222.493 655.727 221.88 653.06 221.88C649.327 221.88 646.34 223.213 644.1 225.88C641.913 228.493 640.82 232.173 640.82 236.92C640.82 241.667 641.913 245.373 644.1 248.04C646.34 250.707 649.327 252.04 653.06 252.04C658.34 252.04 661.833 249.72 663.54 245.08H673.38C672.1 249.56 669.7 253.133 666.18 255.8C662.66 258.413 658.287 259.72 653.06 259.72C648.847 259.72 645.113 258.787 641.86 256.92C638.607 255 636.047 252.333 634.18 248.92C632.367 245.453 631.46 241.453 631.46 236.92ZM687.109 209.08C685.455 209.08 684.069 208.52 682.949 207.4C681.829 206.28 681.269 204.893 681.269 203.24C681.269 201.587 681.829 200.2 682.949 199.08C684.069 197.96 685.455 197.4 687.109 197.4C688.709 197.4 690.069 197.96 691.189 199.08C692.309 200.2 692.869 201.587 692.869 203.24C692.869 204.893 692.309 206.28 691.189 207.4C690.069 208.52 688.709 209.08 687.109 209.08ZM691.589 214.92V259H682.469V214.92H691.589ZM743.963 235.88C743.963 237.533 743.856 239.027 743.643 240.36H709.963C710.229 243.88 711.536 246.707 713.883 248.84C716.229 250.973 719.109 252.04 722.523 252.04C727.429 252.04 730.896 249.987 732.923 245.88H742.762C741.429 249.933 739.003 253.267 735.483 255.88C732.016 258.44 727.696 259.72 722.523 259.72C718.309 259.72 714.523 258.787 711.163 256.92C707.856 255 705.243 252.333 703.323 248.92C701.456 245.453 700.523 241.453 700.523 236.92C700.523 232.387 701.429 228.413 703.243 225C705.109 221.533 707.696 218.867 711.003 217C714.363 215.133 718.203 214.2 722.523 214.2C726.683 214.2 730.389 215.107 733.643 216.92C736.896 218.733 739.429 221.293 741.243 224.6C743.056 227.853 743.963 231.613 743.963 235.88ZM734.443 233C734.389 229.64 733.189 226.947 730.843 224.92C728.496 222.893 725.589 221.88 722.123 221.88C718.976 221.88 716.283 222.893 714.043 224.92C711.803 226.893 710.469 229.587 710.043 233H734.443ZM775.178 214.2C778.644 214.2 781.738 214.92 784.458 216.36C787.231 217.8 789.391 219.933 790.938 222.76C792.484 225.587 793.258 229 793.258 233V259H784.218V234.36C784.218 230.413 783.231 227.4 781.258 225.32C779.284 223.187 776.591 222.12 773.178 222.12C769.764 222.12 767.044 223.187 765.018 225.32C763.044 227.4 762.058 230.413 762.058 234.36V259H752.938V214.92H762.058V219.96C763.551 218.147 765.444 216.733 767.738 215.72C770.084 214.707 772.564 214.2 775.178 214.2ZM801.851 236.92C801.851 232.387 802.757 228.413 804.571 225C806.437 221.533 808.997 218.867 812.251 217C815.504 215.133 819.237 214.2 823.451 214.2C828.784 214.2 833.184 215.48 836.651 218.04C840.171 220.547 842.544 224.147 843.771 228.84H833.931C833.131 226.653 831.851 224.947 830.091 223.72C828.331 222.493 826.117 221.88 823.451 221.88C819.717 221.88 816.731 223.213 814.491 225.88C812.304 228.493 811.211 232.173 811.211 236.92C811.211 241.667 812.304 245.373 814.491 248.04C816.731 250.707 819.717 252.04 823.451 252.04C828.731 252.04 832.224 249.72 833.931 245.08H843.771C842.491 249.56 840.091 253.133 836.571 255.8C833.051 258.413 828.677 259.72 823.451 259.72C819.237 259.72 815.504 258.787 812.251 256.92C808.997 255 806.437 252.333 804.571 248.92C802.757 245.453 801.851 241.453 801.851 236.92ZM893.259 235.88C893.259 237.533 893.153 239.027 892.939 240.36H859.259C859.526 243.88 860.833 246.707 863.179 248.84C865.526 250.973 868.406 252.04 871.819 252.04C876.726 252.04 880.193 249.987 882.219 245.88H892.059C890.726 249.933 888.299 253.267 884.779 255.88C881.313 258.44 876.993 259.72 871.819 259.72C867.606 259.72 863.819 258.787 860.459 256.92C857.153 255 854.539 252.333 852.619 248.92C850.753 245.453 849.819 241.453 849.819 236.92C849.819 232.387 850.726 228.413 852.539 225C854.406 221.533 856.993 218.867 860.299 217C863.659 215.133 867.499 214.2 871.819 214.2C875.979 214.2 879.686 215.107 882.939 216.92C886.193 218.733 888.726 221.293 890.539 224.6C892.353 227.853 893.259 231.613 893.259 235.88ZM883.739 233C883.686 229.64 882.486 226.947 880.139 224.92C877.793 222.893 874.886 221.88 871.419 221.88C868.273 221.88 865.579 222.893 863.339 224.92C861.099 226.893 859.766 229.587 859.339 233H883.739ZM952.776 230.44C955.762 230.973 958.296 232.547 960.376 235.16C962.456 237.773 963.496 240.733 963.496 244.04C963.496 246.867 962.749 249.427 961.256 251.72C959.816 253.96 957.709 255.747 954.936 257.08C952.162 258.36 948.936 259 945.256 259H923.016V203.4H944.216C948.002 203.4 951.256 204.04 953.976 205.32C956.696 206.6 958.749 208.333 960.136 210.52C961.522 212.653 962.216 215.053 962.216 217.72C962.216 220.92 961.362 223.587 959.656 225.72C957.949 227.853 955.656 229.427 952.776 230.44ZM932.136 226.76H943.416C946.402 226.76 948.722 226.093 950.376 224.76C952.082 223.373 952.936 221.4 952.936 218.84C952.936 216.333 952.082 214.387 950.376 213C948.722 211.56 946.402 210.84 943.416 210.84H932.136V226.76ZM944.456 251.56C947.549 251.56 949.976 250.813 951.736 249.32C953.496 247.827 954.376 245.747 954.376 243.08C954.376 240.36 953.442 238.2 951.576 236.6C949.709 235 947.229 234.2 944.136 234.2H932.136V251.56H944.456ZM977.086 259.56C975.433 259.56 974.046 259 972.926 257.88C971.806 256.76 971.246 255.373 971.246 253.72C971.246 252.067 971.806 250.68 972.926 249.56C974.046 248.44 975.433 247.88 977.086 247.88C978.686 247.88 980.046 248.44 981.166 249.56C982.286 250.68 982.846 252.067 982.846 253.72C982.846 255.373 982.286 256.76 981.166 257.88C980.046 259 978.686 259.56 977.086 259.56ZM1011.02 259.56C1007.29 259.56 1003.93 258.92 1000.94 257.64C997.956 256.307 995.61 254.44 993.903 252.04C992.196 249.64 991.343 246.84 991.343 243.64H1001.1C1001.32 246.04 1002.25 248.013 1003.9 249.56C1005.61 251.107 1007.98 251.88 1011.02 251.88C1014.17 251.88 1016.62 251.133 1018.38 249.64C1020.14 248.093 1021.02 246.12 1021.02 243.72C1021.02 241.853 1020.46 240.333 1019.34 239.16C1018.28 237.987 1016.92 237.08 1015.26 236.44C1013.66 235.8 1011.42 235.107 1008.54 234.36C1004.92 233.4 1001.96 232.44 999.663 231.48C997.423 230.467 995.503 228.92 993.903 226.84C992.303 224.76 991.503 221.987 991.503 218.52C991.503 215.32 992.303 212.52 993.903 210.12C995.503 207.72 997.743 205.88 1000.62 204.6C1003.5 203.32 1006.84 202.68 1010.62 202.68C1016.01 202.68 1020.41 204.04 1023.82 206.76C1027.29 209.427 1029.21 213.107 1029.58 217.8H1019.5C1019.34 215.773 1018.38 214.04 1016.62 212.6C1014.86 211.16 1012.54 210.44 1009.66 210.44C1007.05 210.44 1004.92 211.107 1003.26 212.44C1001.61 213.773 1000.78 215.693 1000.78 218.2C1000.78 219.907 1001.29 221.32 1002.3 222.44C1003.37 223.507 1004.7 224.36 1006.3 225C1007.9 225.64 1010.09 226.333 1012.86 227.08C1016.54 228.093 1019.53 229.107 1021.82 230.12C1024.17 231.133 1026.14 232.707 1027.74 234.84C1029.4 236.92 1030.22 239.72 1030.22 243.24C1030.22 246.067 1029.45 248.733 1027.9 251.24C1026.41 253.747 1024.2 255.773 1021.26 257.32C1018.38 258.813 1014.97 259.56 1011.02 259.56ZM1067.69 222.44H1057.77L1066.17 203.4H1072.57L1067.69 222.44ZM1084.98 246.6C1090.1 242.173 1094.13 238.547 1097.06 235.72C1100.05 232.84 1102.53 229.853 1104.5 226.76C1106.47 223.667 1107.46 220.573 1107.46 217.48C1107.46 214.28 1106.69 211.773 1105.14 209.96C1103.65 208.147 1101.27 207.24 1098.02 207.24C1094.87 207.24 1092.42 208.253 1090.66 210.28C1088.95 212.253 1088.05 214.92 1087.94 218.28H1079.14C1079.3 212.2 1081.11 207.56 1084.58 204.36C1088.1 201.107 1092.55 199.48 1097.94 199.48C1103.75 199.48 1108.29 201.08 1111.54 204.28C1114.85 207.48 1116.5 211.747 1116.5 217.08C1116.5 220.92 1115.51 224.627 1113.54 228.2C1111.62 231.72 1109.3 234.893 1106.58 237.72C1103.91 240.493 1100.5 243.72 1096.34 247.4L1092.74 250.6H1118.1V258.2H1079.22V251.56L1084.98 246.6ZM1125.95 215.08C1126.27 210.12 1128.17 206.253 1131.63 203.48C1135.15 200.707 1139.63 199.32 1145.07 199.32C1148.81 199.32 1152.03 199.987 1154.75 201.32C1157.47 202.653 1159.53 204.467 1160.91 206.76C1162.3 209.053 1162.99 211.64 1162.99 214.52C1162.99 217.827 1162.11 220.653 1160.35 223C1158.59 225.347 1156.49 226.92 1154.03 227.72V228.04C1157.18 229 1159.63 230.76 1161.39 233.32C1163.15 235.827 1164.03 239.053 1164.03 243C1164.03 246.147 1163.31 248.947 1161.87 251.4C1160.43 253.853 1158.3 255.8 1155.47 257.24C1152.65 258.627 1149.26 259.32 1145.31 259.32C1139.55 259.32 1134.81 257.853 1131.07 254.92C1127.39 251.933 1125.42 247.667 1125.15 242.12H1133.95C1134.17 244.947 1135.26 247.267 1137.23 249.08C1139.21 250.84 1141.87 251.72 1145.23 251.72C1148.49 251.72 1150.99 250.84 1152.75 249.08C1154.51 247.267 1155.39 244.947 1155.39 242.12C1155.39 238.387 1154.19 235.747 1151.79 234.2C1149.45 232.6 1145.82 231.8 1140.91 231.8H1138.83V224.28H1140.99C1145.31 224.227 1148.59 223.507 1150.83 222.12C1153.13 220.733 1154.27 218.547 1154.27 215.56C1154.27 213 1153.45 210.973 1151.79 209.48C1150.14 207.933 1147.79 207.16 1144.75 207.16C1141.77 207.16 1139.45 207.933 1137.79 209.48C1136.14 210.973 1135.15 212.84 1134.83 215.08H1125.95ZM372.82 379.56C369.087 379.56 365.727 378.92 362.74 377.64C359.753 376.307 357.407 374.44 355.7 372.04C353.993 369.64 353.14 366.84 353.14 363.64H362.9C363.113 366.04 364.047 368.013 365.7 369.56C367.407 371.107 369.78 371.88 372.82 371.88C375.967 371.88 378.42 371.133 380.18 369.64C381.94 368.093 382.82 366.12 382.82 363.72C382.82 361.853 382.26 360.333 381.14 359.16C380.073 357.987 378.713 357.08 377.06 356.44C375.46 355.8 373.22 355.107 370.34 354.36C366.713 353.4 363.753 352.44 361.46 351.48C359.22 350.467 357.3 348.92 355.7 346.84C354.1 344.76 353.3 341.987 353.3 338.52C353.3 335.32 354.1 332.52 355.7 330.12C357.3 327.72 359.54 325.88 362.42 324.6C365.3 323.32 368.633 322.68 372.42 322.68C377.807 322.68 382.207 324.04 385.62 326.76C389.087 329.427 391.007 333.107 391.38 337.8H381.3C381.14 335.773 380.18 334.04 378.42 332.6C376.66 331.16 374.34 330.44 371.46 330.44C368.847 330.44 366.713 331.107 365.06 332.44C363.407 333.773 362.58 335.693 362.58 338.2C362.58 339.907 363.087 341.32 364.1 342.44C365.167 343.507 366.5 344.36 368.1 345C369.7 345.64 371.887 346.333 374.66 347.08C378.34 348.093 381.327 349.107 383.62 350.12C385.967 351.133 387.94 352.707 389.54 354.84C391.193 356.92 392.02 359.72 392.02 363.24C392.02 366.067 391.247 368.733 389.7 371.24C388.207 373.747 385.993 375.773 383.06 377.32C380.18 378.813 376.767 379.56 372.82 379.56ZM413.421 342.36V366.76C413.421 368.413 413.795 369.613 414.541 370.36C415.341 371.053 416.675 371.4 418.541 371.4H424.141V379H416.941C412.835 379 409.688 378.04 407.501 376.12C405.315 374.2 404.221 371.08 404.221 366.76V342.36H399.021V334.92H404.221V323.96H413.421V334.92H424.141V342.36H413.421ZM429.507 356.76C429.507 352.333 430.414 348.413 432.227 345C434.094 341.587 436.6 338.947 439.747 337.08C442.947 335.16 446.467 334.2 450.307 334.2C453.774 334.2 456.787 334.893 459.347 336.28C461.96 337.613 464.04 339.293 465.587 341.32V334.92H474.787V379H465.587V372.44C464.04 374.52 461.934 376.253 459.267 377.64C456.6 379.027 453.56 379.72 450.147 379.72C446.36 379.72 442.894 378.76 439.747 376.84C436.6 374.867 434.094 372.147 432.227 368.68C430.414 365.16 429.507 361.187 429.507 356.76ZM465.587 356.92C465.587 353.88 464.947 351.24 463.667 349C462.44 346.76 460.814 345.053 458.787 343.88C456.76 342.707 454.574 342.12 452.227 342.12C449.88 342.12 447.694 342.707 445.667 343.88C443.64 345 441.987 346.68 440.707 348.92C439.48 351.107 438.867 353.72 438.867 356.76C438.867 359.8 439.48 362.467 440.707 364.76C441.987 367.053 443.64 368.813 445.667 370.04C447.747 371.213 449.934 371.8 452.227 371.8C454.574 371.8 456.76 371.213 458.787 370.04C460.814 368.867 462.44 367.16 463.667 364.92C464.947 362.627 465.587 359.96 465.587 356.92ZM497.406 342.36V366.76C497.406 368.413 497.779 369.613 498.526 370.36C499.326 371.053 500.659 371.4 502.526 371.4H508.126V379H500.926C496.819 379 493.672 378.04 491.486 376.12C489.299 374.2 488.206 371.08 488.206 366.76V342.36H483.006V334.92H488.206V323.96H497.406V334.92H508.126V342.36H497.406ZM521.171 329.08C519.518 329.08 518.131 328.52 517.011 327.4C515.891 326.28 515.331 324.893 515.331 323.24C515.331 321.587 515.891 320.2 517.011 319.08C518.131 317.96 519.518 317.4 521.171 317.4C522.771 317.4 524.131 317.96 525.251 319.08C526.371 320.2 526.931 321.587 526.931 323.24C526.931 324.893 526.371 326.28 525.251 327.4C524.131 328.52 522.771 329.08 521.171 329.08ZM525.651 334.92V379H516.531V334.92H525.651ZM553.625 379.72C550.158 379.72 547.038 379.107 544.265 377.88C541.545 376.6 539.385 374.893 537.785 372.76C536.185 370.573 535.332 368.147 535.225 365.48H544.665C544.825 367.347 545.705 368.92 547.305 370.2C548.958 371.427 551.012 372.04 553.465 372.04C556.025 372.04 557.998 371.56 559.385 370.6C560.825 369.587 561.545 368.307 561.545 366.76C561.545 365.107 560.745 363.88 559.145 363.08C557.598 362.28 555.118 361.4 551.705 360.44C548.398 359.533 545.705 358.653 543.625 357.8C541.545 356.947 539.732 355.64 538.185 353.88C536.692 352.12 535.945 349.8 535.945 346.92C535.945 344.573 536.638 342.44 538.025 340.52C539.412 338.547 541.385 337 543.945 335.88C546.558 334.76 549.545 334.2 552.905 334.2C557.918 334.2 561.945 335.48 564.985 338.04C568.078 340.547 569.732 343.987 569.945 348.36H560.825C560.665 346.387 559.865 344.813 558.425 343.64C556.985 342.467 555.038 341.88 552.585 341.88C550.185 341.88 548.345 342.333 547.065 343.24C545.785 344.147 545.145 345.347 545.145 346.84C545.145 348.013 545.572 349 546.425 349.8C547.278 350.6 548.318 351.24 549.545 351.72C550.772 352.147 552.585 352.707 554.985 353.4C558.185 354.253 560.798 355.133 562.825 356.04C564.905 356.893 566.692 358.173 568.185 359.88C569.678 361.587 570.452 363.853 570.505 366.68C570.505 369.187 569.812 371.427 568.425 373.4C567.038 375.373 565.065 376.92 562.505 378.04C559.998 379.16 557.038 379.72 553.625 379.72ZM590.999 342.36V366.76C590.999 368.413 591.373 369.613 592.119 370.36C592.919 371.053 594.253 371.4 596.119 371.4H601.719V379H594.519C590.413 379 587.266 378.04 585.079 376.12C582.893 374.2 581.799 371.08 581.799 366.76V342.36H576.599V334.92H581.799V323.96H590.999V334.92H601.719V342.36H590.999ZM614.765 329.08C613.112 329.08 611.725 328.52 610.605 327.4C609.485 326.28 608.925 324.893 608.925 323.24C608.925 321.587 609.485 320.2 610.605 319.08C611.725 317.96 613.112 317.4 614.765 317.4C616.365 317.4 617.725 317.96 618.845 319.08C619.965 320.2 620.525 321.587 620.525 323.24C620.525 324.893 619.965 326.28 618.845 327.4C617.725 328.52 616.365 329.08 614.765 329.08ZM619.245 334.92V379H610.125V334.92H619.245ZM628.179 356.92C628.179 352.387 629.085 348.413 630.899 345C632.765 341.533 635.325 338.867 638.579 337C641.832 335.133 645.565 334.2 649.779 334.2C655.112 334.2 659.512 335.48 662.979 338.04C666.499 340.547 668.872 344.147 670.099 348.84H660.259C659.459 346.653 658.179 344.947 656.419 343.72C654.659 342.493 652.445 341.88 649.779 341.88C646.045 341.88 643.059 343.213 640.819 345.88C638.632 348.493 637.539 352.173 637.539 356.92C637.539 361.667 638.632 365.373 640.819 368.04C643.059 370.707 646.045 372.04 649.779 372.04C655.059 372.04 658.552 369.72 660.259 365.08H670.099C668.819 369.56 666.419 373.133 662.899 375.8C659.379 378.413 655.005 379.72 649.779 379.72C645.565 379.72 641.832 378.787 638.579 376.92C635.325 375 632.765 372.333 630.899 368.92C629.085 365.453 628.179 361.453 628.179 356.92ZM695.188 379.72C691.721 379.72 688.601 379.107 685.828 377.88C683.108 376.6 680.948 374.893 679.348 372.76C677.748 370.573 676.894 368.147 676.788 365.48H686.228C686.388 367.347 687.268 368.92 688.868 370.2C690.521 371.427 692.574 372.04 695.028 372.04C697.588 372.04 699.561 371.56 700.948 370.6C702.388 369.587 703.108 368.307 703.108 366.76C703.108 365.107 702.308 363.88 700.708 363.08C699.161 362.28 696.681 361.4 693.268 360.44C689.961 359.533 687.268 358.653 685.188 357.8C683.108 356.947 681.294 355.64 679.748 353.88C678.254 352.12 677.508 349.8 677.508 346.92C677.508 344.573 678.201 342.44 679.588 340.52C680.974 338.547 682.948 337 685.508 335.88C688.121 334.76 691.108 334.2 694.468 334.2C699.481 334.2 703.508 335.48 706.548 338.04C709.641 340.547 711.294 343.987 711.508 348.36H702.388C702.228 346.387 701.428 344.813 699.988 343.64C698.548 342.467 696.601 341.88 694.148 341.88C691.748 341.88 689.908 342.333 688.628 343.24C687.348 344.147 686.708 345.347 686.708 346.84C686.708 348.013 687.134 349 687.988 349.8C688.841 350.6 689.881 351.24 691.108 351.72C692.334 352.147 694.148 352.707 696.548 353.4C699.748 354.253 702.361 355.133 704.388 356.04C706.468 356.893 708.254 358.173 709.748 359.88C711.241 361.587 712.014 363.853 712.068 366.68C712.068 369.187 711.374 371.427 709.988 373.4C708.601 375.373 706.628 376.92 704.068 378.04C701.561 379.16 698.601 379.72 695.188 379.72ZM772.463 350.44C775.45 350.973 777.983 352.547 780.063 355.16C782.143 357.773 783.183 360.733 783.183 364.04C783.183 366.867 782.436 369.427 780.943 371.72C779.503 373.96 777.396 375.747 774.623 377.08C771.85 378.36 768.623 379 764.943 379H742.703V323.4H763.903C767.69 323.4 770.943 324.04 773.663 325.32C776.383 326.6 778.436 328.333 779.823 330.52C781.21 332.653 781.903 335.053 781.903 337.72C781.903 340.92 781.05 343.587 779.343 345.72C777.636 347.853 775.343 349.427 772.463 350.44ZM751.823 346.76H763.103C766.09 346.76 768.41 346.093 770.063 344.76C771.77 343.373 772.623 341.4 772.623 338.84C772.623 336.333 771.77 334.387 770.063 333C768.41 331.56 766.09 330.84 763.103 330.84H751.823V346.76ZM764.143 371.56C767.236 371.56 769.663 370.813 771.423 369.32C773.183 367.827 774.063 365.747 774.063 363.08C774.063 360.36 773.13 358.2 771.263 356.6C769.396 355 766.916 354.2 763.823 354.2H751.823V371.56H764.143ZM796.774 379.56C795.12 379.56 793.734 379 792.614 377.88C791.494 376.76 790.934 375.373 790.934 373.72C790.934 372.067 791.494 370.68 792.614 369.56C793.734 368.44 795.12 367.88 796.774 367.88C798.374 367.88 799.734 368.44 800.854 369.56C801.974 370.68 802.534 372.067 802.534 373.72C802.534 375.373 801.974 376.76 800.854 377.88C799.734 379 798.374 379.56 796.774 379.56ZM830.711 379.56C826.977 379.56 823.617 378.92 820.631 377.64C817.644 376.307 815.297 374.44 813.591 372.04C811.884 369.64 811.031 366.84 811.031 363.64H820.791C821.004 366.04 821.937 368.013 823.591 369.56C825.297 371.107 827.671 371.88 830.711 371.88C833.857 371.88 836.311 371.133 838.071 369.64C839.831 368.093 840.711 366.12 840.711 363.72C840.711 361.853 840.151 360.333 839.031 359.16C837.964 357.987 836.604 357.08 834.951 356.44C833.351 355.8 831.111 355.107 828.231 354.36C824.604 353.4 821.644 352.44 819.351 351.48C817.111 350.467 815.191 348.92 813.591 346.84C811.991 344.76 811.191 341.987 811.191 338.52C811.191 335.32 811.991 332.52 813.591 330.12C815.191 327.72 817.431 325.88 820.311 324.6C823.191 323.32 826.524 322.68 830.311 322.68C835.697 322.68 840.097 324.04 843.511 326.76C846.977 329.427 848.897 333.107 849.271 337.8H839.191C839.031 335.773 838.071 334.04 836.311 332.6C834.551 331.16 832.231 330.44 829.351 330.44C826.737 330.44 824.604 331.107 822.951 332.44C821.297 333.773 820.471 335.693 820.471 338.2C820.471 339.907 820.977 341.32 821.991 342.44C823.057 343.507 824.391 344.36 825.991 345C827.591 345.64 829.777 346.333 832.551 347.08C836.231 348.093 839.217 349.107 841.511 350.12C843.857 351.133 845.831 352.707 847.431 354.84C849.084 356.92 849.911 359.72 849.911 363.24C849.911 366.067 849.137 368.733 847.591 371.24C846.097 373.747 843.884 375.773 840.951 377.32C838.071 378.813 834.657 379.56 830.711 379.56ZM887.373 342.44H877.453L885.853 323.4H892.253L887.373 342.44ZM904.668 366.6C909.788 362.173 913.815 358.547 916.748 355.72C919.735 352.84 922.215 349.853 924.188 346.76C926.161 343.667 927.148 340.573 927.148 337.48C927.148 334.28 926.375 331.773 924.828 329.96C923.335 328.147 920.961 327.24 917.708 327.24C914.561 327.24 912.108 328.253 910.348 330.28C908.641 332.253 907.735 334.92 907.628 338.28H898.828C898.988 332.2 900.801 327.56 904.268 324.36C907.788 321.107 912.241 319.48 917.628 319.48C923.441 319.48 927.975 321.08 931.228 324.28C934.535 327.48 936.188 331.747 936.188 337.08C936.188 340.92 935.201 344.627 933.228 348.2C931.308 351.72 928.988 354.893 926.268 357.72C923.601 360.493 920.188 363.72 916.028 367.4L912.428 370.6H937.788V378.2H898.908V371.56L904.668 366.6ZM945.64 335.08C945.96 330.12 947.853 326.253 951.32 323.48C954.84 320.707 959.32 319.32 964.76 319.32C968.493 319.32 971.72 319.987 974.44 321.32C977.16 322.653 979.213 324.467 980.6 326.76C981.987 329.053 982.68 331.64 982.68 334.52C982.68 337.827 981.8 340.653 980.04 343C978.28 345.347 976.173 346.92 973.72 347.72V348.04C976.867 349 979.32 350.76 981.08 353.32C982.84 355.827 983.72 359.053 983.72 363C983.72 366.147 983 368.947 981.56 371.4C980.12 373.853 977.987 375.8 975.16 377.24C972.333 378.627 968.947 379.32 965 379.32C959.24 379.32 954.493 377.853 950.76 374.92C947.08 371.933 945.107 367.667 944.84 362.12H953.64C953.853 364.947 954.947 367.267 956.92 369.08C958.893 370.84 961.56 371.72 964.92 371.72C968.173 371.72 970.68 370.84 972.44 369.08C974.2 367.267 975.08 364.947 975.08 362.12C975.08 358.387 973.88 355.747 971.48 354.2C969.133 352.6 965.507 351.8 960.6 351.8H958.52V344.28H960.68C965 344.227 968.28 343.507 970.52 342.12C972.813 340.733 973.96 338.547 973.96 335.56C973.96 333 973.133 330.973 971.48 329.48C969.827 327.933 967.48 327.16 964.44 327.16C961.453 327.16 959.133 327.933 957.48 329.48C955.827 330.973 954.84 332.84 954.52 335.08H945.64Z" fill="white"/>
</svg>
