<svg width="227" height="59" viewBox="0 0 227 59" fill="none" xmlns="http://www.w3.org/2000/svg">
<path d="M17.33 17L12.94 2.2H17.46L20.67 13.62L23.95 2.2H28.16L23.77 17H17.33ZM29.0677 17V6H33.3277V17H29.0677ZM31.1977 4.92C30.3177 4.92 29.6743 4.73667 29.2677 4.37C28.861 4.00333 28.6577 3.48667 28.6577 2.82C28.6577 2.14667 28.861 1.63 29.2677 1.27C29.6743 0.903333 30.3177 0.72 31.1977 0.72C32.0777 0.72 32.721 0.903333 33.1277 1.27C33.5343 1.63 33.7377 2.14667 33.7377 2.82C33.7377 3.48667 33.5343 4.00333 33.1277 4.37C32.721 4.73667 32.0777 4.92 31.1977 4.92ZM41.0791 17.22C39.0524 17.22 37.5024 16.74 36.4291 15.78C35.3557 14.82 34.8191 13.4033 34.8191 11.53C34.8191 9.61667 35.3924 8.18667 36.5391 7.24C37.6857 6.29333 39.2924 5.82 41.3591 5.82C42.3057 5.82 43.1691 5.9 43.9491 6.06V9.36C43.6024 9.30667 43.2691 9.26667 42.9491 9.24C42.6357 9.21333 42.3124 9.2 41.9791 9.2C40.9924 9.2 40.2791 9.38667 39.8391 9.76C39.4057 10.1333 39.1891 10.7133 39.1891 11.5C39.1891 12.3267 39.4024 12.9233 39.8291 13.29C40.2624 13.6567 40.9057 13.84 41.7591 13.84C42.0991 13.84 42.4357 13.8167 42.7691 13.77C43.1091 13.7167 43.5024 13.6367 43.9491 13.53V16.83C43.5624 16.95 43.1191 17.0433 42.6191 17.11C42.1257 17.1833 41.6124 17.22 41.0791 17.22ZM50.9316 17.21C49.4649 17.21 48.3449 16.8533 47.5716 16.14C46.7982 15.42 46.4116 14.29 46.4116 12.75V9.3H44.8116V6H46.4116L47.2016 2.2H50.6616V6H53.1916V9.3H50.6616V12.09C50.6616 12.73 50.7716 13.1667 50.9916 13.4C51.2116 13.6333 51.5982 13.75 52.1516 13.75C52.3049 13.75 52.4649 13.7433 52.6316 13.73C52.7982 13.71 52.9849 13.6833 53.1916 13.65V16.95C52.8916 17.0167 52.5349 17.0767 52.1216 17.13C51.7149 17.1833 51.3182 17.21 50.9316 17.21ZM59.8769 17.22C58.0835 17.22 56.6669 16.7367 55.6269 15.77C54.5935 14.7967 54.0769 13.3867 54.0769 11.54C54.0769 9.66667 54.5802 8.24667 55.5869 7.28C56.6002 6.30667 58.0302 5.82 59.8769 5.82C61.7302 5.82 63.1602 6.31 64.1669 7.29C65.1735 8.27 65.6769 9.68 65.6769 11.52C65.6769 13.38 65.1569 14.7967 64.1169 15.77C63.0835 16.7367 61.6702 17.22 59.8769 17.22ZM59.8769 14.06C60.3902 14.06 60.7735 13.8867 61.0269 13.54C61.2869 13.1933 61.4169 12.5267 61.4169 11.54C61.4169 10.5333 61.2835 9.85667 61.0169 9.51C60.7569 9.15667 60.3769 8.98 59.8769 8.98C59.3769 8.98 58.9935 9.15667 58.7269 9.51C58.4669 9.85667 58.3369 10.5267 58.3369 11.52C58.3369 12.5133 58.4669 13.1867 58.7269 13.54C58.9869 13.8867 59.3702 14.06 59.8769 14.06ZM67.1731 17V6H70.6331L70.9631 7.39H71.1431C71.4098 6.83 71.7765 6.43 72.2431 6.19C72.7165 5.94333 73.2565 5.82 73.8631 5.82C74.0231 5.82 74.1831 5.83 74.3431 5.85C74.5098 5.86333 74.6531 5.88 74.7731 5.9V9.72C74.5865 9.68 74.3865 9.65333 74.1731 9.64C73.9598 9.62667 73.7665 9.62 73.5931 9.62C73.1665 9.62 72.7498 9.68333 72.3431 9.81C71.9431 9.93667 71.6365 10.1133 71.4231 10.34V17H67.1731ZM76.0989 17V6H80.3589V17H76.0989ZM78.2289 4.92C77.3489 4.92 76.7056 4.73667 76.2989 4.37C75.8922 4.00333 75.6889 3.48667 75.6889 2.82C75.6889 2.14667 75.8922 1.63 76.2989 1.27C76.7056 0.903333 77.3489 0.72 78.2289 0.72C79.1089 0.72 79.7522 0.903333 80.1589 1.27C80.5656 1.63 80.7689 2.14667 80.7689 2.82C80.7689 3.48667 80.5656 4.00333 80.1589 4.37C79.7522 4.73667 79.1089 4.92 78.2289 4.92ZM85.4803 17.22C84.2936 17.22 83.377 16.91 82.7303 16.29C82.0836 15.67 81.7603 14.8767 81.7603 13.91C81.7603 12.83 82.147 11.9833 82.9203 11.37C83.7003 10.75 84.9636 10.3933 86.7103 10.3L88.0103 10.23C87.9503 9.78333 87.7536 9.46667 87.4203 9.28C87.087 9.08667 86.5303 8.99 85.7503 8.99C85.3236 8.99 84.837 9.02667 84.2903 9.1C83.7503 9.16667 83.2403 9.26667 82.7603 9.4V6.27C83.3536 6.11667 83.9903 6.00333 84.6703 5.93C85.3503 5.85667 85.9803 5.82 86.5603 5.82C87.887 5.82 88.9603 5.98 89.7803 6.3C90.607 6.62 91.2103 7.15 91.5903 7.89C91.977 8.63 92.1703 9.63333 92.1703 10.9V17H88.6903L88.4003 15.99H88.2203C87.9136 16.4367 87.5203 16.7533 87.0403 16.94C86.567 17.1267 86.047 17.22 85.4803 17.22ZM85.9203 13.5C85.9203 14.06 86.2636 14.34 86.9503 14.34C87.1236 14.34 87.3036 14.3233 87.4903 14.29C87.6836 14.25 87.8636 14.18 88.0303 14.08V12.49L87.1803 12.53C86.7336 12.5567 86.4103 12.6533 86.2103 12.82C86.017 12.9867 85.9203 13.2133 85.9203 13.5ZM102.065 17L98.3353 2.2H102.705L105.185 12.87L107.905 2.2H112.625L115.235 13.07L117.845 2.2H121.935L118.205 17H112.665L110.215 7.08L107.605 17H102.065ZM123.052 17V6H127.312V17H123.052ZM125.182 4.92C124.302 4.92 123.659 4.73667 123.252 4.37C122.845 4.00333 122.642 3.48667 122.642 2.82C122.642 2.14667 122.845 1.63 123.252 1.27C123.659 0.903333 124.302 0.72 125.182 0.72C126.062 0.72 126.705 0.903333 127.112 1.27C127.519 1.63 127.722 2.14667 127.722 2.82C127.722 3.48667 127.519 4.00333 127.112 4.37C126.705 4.73667 126.062 4.92 125.182 4.92ZM129.243 17V0.839999H133.493V17H129.243ZM135.435 17V0.839999H139.685V17H135.435ZM141.626 17V6H145.886V17H141.626ZM143.756 4.92C142.876 4.92 142.233 4.73667 141.826 4.37C141.42 4.00333 141.216 3.48667 141.216 2.82C141.216 2.14667 141.42 1.63 141.826 1.27C142.233 0.903333 142.876 0.72 143.756 0.72C144.636 0.72 145.28 0.903333 145.686 1.27C146.093 1.63 146.296 2.14667 146.296 2.82C146.296 3.48667 146.093 4.00333 145.686 4.37C145.28 4.73667 144.636 4.92 143.756 4.92ZM151.008 17.22C149.821 17.22 148.904 16.91 148.258 16.29C147.611 15.67 147.288 14.8767 147.288 13.91C147.288 12.83 147.674 11.9833 148.448 11.37C149.228 10.75 150.491 10.3933 152.238 10.3L153.538 10.23C153.478 9.78333 153.281 9.46667 152.948 9.28C152.614 9.08667 152.058 8.99 151.278 8.99C150.851 8.99 150.364 9.02667 149.818 9.1C149.278 9.16667 148.768 9.26667 148.288 9.4V6.27C148.881 6.11667 149.518 6.00333 150.198 5.93C150.878 5.85667 151.508 5.82 152.088 5.82C153.414 5.82 154.488 5.98 155.308 6.3C156.134 6.62 156.738 7.15 157.118 7.89C157.504 8.63 157.698 9.63333 157.698 10.9V17H154.218L153.928 15.99H153.748C153.441 16.4367 153.048 16.7533 152.568 16.94C152.094 17.1267 151.574 17.22 151.008 17.22ZM151.448 13.5C151.448 14.06 151.791 14.34 152.478 14.34C152.651 14.34 152.831 14.3233 153.018 14.29C153.211 14.25 153.391 14.18 153.558 14.08V12.49L152.708 12.53C152.261 12.5567 151.938 12.6533 151.738 12.82C151.544 12.9867 151.448 13.2133 151.448 13.5ZM159.575 17V6H163.065L163.345 7.04H163.525C163.892 6.64667 164.325 6.34667 164.825 6.14C165.325 5.92667 165.899 5.82 166.545 5.82C167.125 5.82 167.655 5.92667 168.135 6.14C168.622 6.35333 169.029 6.69333 169.355 7.16C169.809 6.7 170.312 6.36333 170.865 6.15C171.425 5.93 172.002 5.82 172.595 5.82C173.342 5.82 174.005 5.97333 174.585 6.28C175.172 6.58667 175.632 7.08 175.965 7.76C176.299 8.43333 176.465 9.32667 176.465 10.44V17H172.225V10.68C172.225 10.2067 172.132 9.88333 171.945 9.71C171.759 9.53667 171.519 9.45 171.225 9.45C170.792 9.45 170.429 9.56667 170.135 9.8C170.142 9.96 170.145 10.1233 170.145 10.29V17H165.985V10.68C165.985 10.2067 165.902 9.88333 165.735 9.71C165.575 9.53667 165.345 9.45 165.045 9.45C164.525 9.45 164.119 9.62333 163.825 9.97V17H159.575ZM181.985 17.22C181.298 17.22 180.625 17.1767 179.965 17.09C179.312 17.0033 178.708 16.8767 178.155 16.71V13.67C178.688 13.83 179.278 13.9567 179.925 14.05C180.578 14.1433 181.238 14.19 181.905 14.19C182.485 14.19 182.878 14.1367 183.085 14.03C183.292 13.9233 183.395 13.7833 183.395 13.61C183.395 13.49 183.358 13.4 183.285 13.34C183.212 13.2733 183.072 13.2233 182.865 13.19L180.885 12.85C179.832 12.6767 179.055 12.32 178.555 11.78C178.062 11.2333 177.815 10.4933 177.815 9.56C177.815 8.42 178.282 7.51333 179.215 6.84C180.155 6.16 181.595 5.82 183.535 5.82C184.108 5.82 184.675 5.85333 185.235 5.92C185.795 5.98667 186.282 6.07667 186.695 6.19V9.23C186.282 9.11667 185.808 9.02667 185.275 8.96C184.742 8.88667 184.205 8.85 183.665 8.85C183.118 8.85 182.705 8.88 182.425 8.94C182.152 9 181.968 9.08 181.875 9.18C181.782 9.27333 181.735 9.37 181.735 9.47C181.735 9.66333 181.918 9.79 182.285 9.85L184.265 10.19C185.218 10.3567 185.965 10.6833 186.505 11.17C187.045 11.65 187.315 12.4167 187.315 13.47C187.315 14.6367 186.845 15.5533 185.905 16.22C184.965 16.8867 183.658 17.22 181.985 17.22ZM193.998 17.22C192.205 17.22 190.788 16.7367 189.748 15.77C188.715 14.7967 188.198 13.3867 188.198 11.54C188.198 9.66667 188.701 8.24667 189.708 7.28C190.721 6.30667 192.151 5.82 193.998 5.82C195.851 5.82 197.281 6.31 198.288 7.29C199.295 8.27 199.798 9.68 199.798 11.52C199.798 13.38 199.278 14.7967 198.238 15.77C197.205 16.7367 195.791 17.22 193.998 17.22ZM193.998 14.06C194.511 14.06 194.895 13.8867 195.148 13.54C195.408 13.1933 195.538 12.5267 195.538 11.54C195.538 10.5333 195.405 9.85667 195.138 9.51C194.878 9.15667 194.498 8.98 193.998 8.98C193.498 8.98 193.115 9.15667 192.848 9.51C192.588 9.85667 192.458 10.5267 192.458 11.52C192.458 12.5133 192.588 13.1867 192.848 13.54C193.108 13.8867 193.491 14.06 193.998 14.06ZM201.294 17V6H204.784L205.064 7.04H205.244C206.018 6.22667 207.044 5.82 208.324 5.82C209.071 5.82 209.738 5.97333 210.324 6.28C210.911 6.58667 211.371 7.08 211.704 7.76C212.044 8.43333 212.214 9.32 212.214 10.42V17H207.964V10.7C207.964 10.22 207.871 9.89333 207.684 9.72C207.498 9.54 207.238 9.45 206.904 9.45C206.638 9.45 206.381 9.5 206.134 9.6C205.894 9.69333 205.698 9.81667 205.544 9.97V17H201.294Z" fill="white"/>
<path d="M4.62898 32.1C3.32898 32.1 2.33065 31.7967 1.63398 31.19C0.937318 30.5833 0.588984 29.6267 0.588984 28.32C0.588984 27.07 0.943984 26.1217 1.65398 25.475C2.36732 24.825 3.38565 24.5 4.70898 24.5C5.27565 24.5 5.80565 24.555 6.29898 24.665V26.235C6.07232 26.185 5.84065 26.1467 5.60398 26.12C5.37065 26.0933 5.12732 26.08 4.87398 26.08C4.09398 26.08 3.51898 26.255 3.14898 26.605C2.78232 26.9517 2.59898 27.5167 2.59898 28.3C2.59898 29.1 2.77898 29.67 3.13898 30.01C3.50232 30.35 4.06232 30.52 4.81898 30.52C5.06565 30.52 5.31232 30.5017 5.55898 30.465C5.80565 30.425 6.05232 30.3717 6.29898 30.305V31.87C6.06565 31.94 5.80232 31.995 5.50898 32.035C5.21565 32.0783 4.92232 32.1 4.62898 32.1ZM9.46609 32.105C8.60609 32.105 7.92609 31.8667 7.42609 31.39C6.92609 30.9133 6.67609 30.2083 6.67609 29.275C6.67609 28.3283 6.91943 27.6167 7.40609 27.14C7.89276 26.6633 8.57943 26.425 9.46609 26.425C10.3494 26.425 11.0344 26.6667 11.5211 27.15C12.0111 27.63 12.2561 28.335 12.2561 29.265C12.2561 30.205 12.0061 30.9133 11.5061 31.39C11.0061 31.8667 10.3261 32.105 9.46609 32.105ZM9.46609 30.7C9.75943 30.7 9.98276 30.6 10.1361 30.4C10.2894 30.2 10.3661 29.825 10.3661 29.275C10.3661 28.715 10.2878 28.335 10.1311 28.135C9.97443 27.935 9.75276 27.835 9.46609 27.835C9.17609 27.835 8.95276 27.935 8.79609 28.135C8.63943 28.3317 8.56109 28.7083 8.56109 29.265C8.56109 29.8217 8.63776 30.2 8.79109 30.4C8.94776 30.6 9.17276 30.7 9.46609 30.7ZM13.0975 32V26.515H14.6475L14.7725 27.05H14.8525C15.2358 26.6333 15.7425 26.425 16.3725 26.425C16.6658 26.425 16.9325 26.48 17.1725 26.59C17.4158 26.7 17.6158 26.875 17.7725 27.115C18.0025 26.875 18.2575 26.7 18.5375 26.59C18.8208 26.48 19.1092 26.425 19.4025 26.425C19.7658 26.425 20.0875 26.5 20.3675 26.65C20.6508 26.7967 20.8742 27.035 21.0375 27.365C21.2008 27.6917 21.2825 28.125 21.2825 28.665V32H19.4025V28.77C19.4025 28.49 19.3475 28.2983 19.2375 28.195C19.1275 28.0883 18.9842 28.035 18.8075 28.035C18.5275 28.035 18.2992 28.1233 18.1225 28.3C18.1292 28.3967 18.1325 28.4967 18.1325 28.6V32H16.2875V28.77C16.2875 28.49 16.2375 28.2983 16.1375 28.195C16.0375 28.0883 15.8992 28.035 15.7225 28.035C15.5792 28.035 15.4408 28.0667 15.3075 28.13C15.1742 28.19 15.0642 28.275 14.9775 28.385V32H13.0975ZM22.3163 34.2V26.515H23.8963L24.0063 27.095H24.0913C24.2446 26.8917 24.4413 26.73 24.6813 26.61C24.9213 26.4867 25.2029 26.425 25.5263 26.425C25.9363 26.425 26.3129 26.5183 26.6563 26.705C27.0029 26.8917 27.2813 27.1867 27.4913 27.59C27.7046 27.99 27.8113 28.51 27.8113 29.15C27.8113 30.0967 27.5513 30.8267 27.0313 31.34C26.5113 31.85 25.7479 32.105 24.7413 32.105C24.6446 32.105 24.5496 32.1017 24.4563 32.095C24.3663 32.0883 24.2796 32.0817 24.1963 32.075V34.2H22.3163ZM24.7363 30.69C25.1329 30.69 25.4296 30.585 25.6263 30.375C25.8229 30.1617 25.9213 29.8017 25.9213 29.295C25.9213 28.7717 25.8329 28.4167 25.6563 28.23C25.4796 28.0433 25.2463 27.95 24.9563 27.95C24.8196 27.95 24.6829 27.9717 24.5463 28.015C24.4129 28.0583 24.2963 28.125 24.1963 28.215V30.64C24.2729 30.6533 24.3596 30.665 24.4563 30.675C24.5529 30.685 24.6463 30.69 24.7363 30.69ZM30.5444 32.095C30.171 32.095 29.8377 32.0217 29.5444 31.875C29.2544 31.725 29.026 31.4883 28.8594 31.165C28.6927 30.8383 28.6094 30.4083 28.6094 29.875V26.515H30.4894V29.74C30.4894 30.02 30.5444 30.2133 30.6544 30.32C30.7677 30.4267 30.9177 30.48 31.1044 30.48C31.2477 30.48 31.3944 30.45 31.5444 30.39C31.6944 30.33 31.8177 30.245 31.9144 30.135V26.515H33.7994V32H32.2494L32.1244 31.465H32.0494C31.636 31.885 31.1344 32.095 30.5444 32.095ZM37.5425 32.105C36.8425 32.105 36.3058 31.9333 35.9325 31.59C35.5592 31.2433 35.3725 30.6983 35.3725 29.955V27.98H34.5325V26.515H35.3725L35.7225 24.6H37.2575V26.515H38.6025V27.98H37.2575V29.66C37.2575 30.0067 37.3192 30.245 37.4425 30.375C37.5658 30.5017 37.7758 30.565 38.0725 30.565C38.1525 30.565 38.2358 30.56 38.3225 30.55C38.4092 30.54 38.5075 30.5267 38.6175 30.51V31.98C38.4708 32.0133 38.2992 32.0417 38.1025 32.065C37.9092 32.0917 37.7225 32.105 37.5425 32.105ZM42.2287 32.105C41.1287 32.105 40.327 31.8783 39.8237 31.425C39.3203 30.9717 39.0687 30.2467 39.0687 29.25C39.0687 28.3633 39.297 27.6717 39.7537 27.175C40.2103 26.675 40.8687 26.425 41.7287 26.425C42.5453 26.425 43.162 26.6767 43.5787 27.18C43.9953 27.6833 44.2037 28.395 44.2037 29.315V29.79H40.9437C40.9703 30.1267 41.092 30.3633 41.3087 30.5C41.5287 30.6333 41.9253 30.7 42.4987 30.7C42.7153 30.7 42.942 30.6867 43.1787 30.66C43.4187 30.63 43.6553 30.5917 43.8887 30.545V31.935C43.5853 31.995 43.2987 32.0383 43.0287 32.065C42.7587 32.0917 42.492 32.105 42.2287 32.105ZM41.7087 27.595C41.4587 27.595 41.2687 27.6783 41.1387 27.845C41.012 28.0083 40.9453 28.305 40.9387 28.735H42.4637C42.4537 28.3083 42.387 28.0117 42.2637 27.845C42.1437 27.6783 41.9587 27.595 41.7087 27.595ZM44.992 32V26.515H46.527L46.672 27.215H46.757C46.9004 26.9383 47.0937 26.7383 47.337 26.615C47.5804 26.4917 47.8537 26.43 48.157 26.43C48.237 26.43 48.317 26.435 48.397 26.445C48.477 26.4517 48.547 26.46 48.607 26.47V28.165C48.517 28.1483 48.422 28.1367 48.322 28.13C48.222 28.1233 48.1287 28.12 48.042 28.12C47.8187 28.12 47.597 28.1583 47.377 28.235C47.1604 28.3083 46.992 28.415 46.872 28.555V32H44.992ZM53.7951 32.1C53.4151 32.1 53.0384 32.07 52.6651 32.01C52.2917 31.9533 51.9517 31.875 51.6451 31.775V30.23C51.9584 30.3333 52.3101 30.415 52.7001 30.475C53.0901 30.535 53.4517 30.565 53.7851 30.565C54.2384 30.565 54.5517 30.5033 54.7251 30.38C54.9017 30.2567 54.9901 30.09 54.9901 29.88C54.9901 29.7033 54.9267 29.5633 54.8001 29.46C54.6734 29.3533 54.4251 29.2517 54.0551 29.155L53.4451 29C52.7851 28.8367 52.2867 28.58 51.9501 28.23C51.6134 27.8767 51.4451 27.41 51.4451 26.83C51.4451 26.0967 51.7134 25.525 52.2501 25.115C52.7867 24.705 53.5984 24.5 54.6851 24.5C55.0351 24.5 55.3651 24.52 55.6751 24.56C55.9851 24.6 56.2584 24.6533 56.4951 24.72V26.26C56.2651 26.1933 56.0001 26.14 55.7001 26.1C55.4001 26.0567 55.1001 26.035 54.8001 26.035C54.2401 26.035 53.8584 26.1017 53.6551 26.235C53.4517 26.365 53.3501 26.5283 53.3501 26.725C53.3501 26.8917 53.4034 27.0233 53.5101 27.12C53.6201 27.2167 53.8334 27.3083 54.1501 27.395L54.7651 27.55C55.4951 27.73 56.0317 27.9967 56.3751 28.35C56.7217 28.7033 56.8951 29.17 56.8951 29.75C56.8951 30.4733 56.6217 31.0467 56.0751 31.47C55.5284 31.89 54.7684 32.1 53.7951 32.1ZM60.5598 32.105C59.5898 32.105 58.8481 31.87 58.3348 31.4C57.8214 30.9267 57.5648 30.2167 57.5648 29.27C57.5648 28.31 57.8381 27.5967 58.3848 27.13C58.9348 26.66 59.7098 26.425 60.7098 26.425C61.1698 26.425 61.5898 26.4667 61.9698 26.55V28.02C61.7964 27.99 61.6298 27.9683 61.4698 27.955C61.3098 27.9383 61.1464 27.93 60.9798 27.93C60.4598 27.93 60.0831 28.035 59.8498 28.245C59.6164 28.455 59.4998 28.7917 59.4998 29.255C59.4998 29.7383 59.6131 30.085 59.8398 30.295C60.0664 30.5017 60.4048 30.605 60.8548 30.605C61.0281 30.605 61.1998 30.5917 61.3698 30.565C61.5431 30.535 61.7431 30.4917 61.9698 30.435V31.905C61.7731 31.9683 61.5531 32.0167 61.3098 32.05C61.0664 32.0867 60.8164 32.105 60.5598 32.105ZM62.8631 32V26.515H64.7481V32H62.8631ZM63.8081 25.855C63.4148 25.855 63.1265 25.7733 62.9431 25.61C62.7598 25.4433 62.6681 25.2083 62.6681 24.905C62.6681 24.605 62.7598 24.3717 62.9431 24.205C63.1265 24.0383 63.4148 23.955 63.8081 23.955C64.2015 23.955 64.4898 24.0383 64.6731 24.205C64.8565 24.3717 64.9481 24.605 64.9481 24.905C64.9481 25.2083 64.8565 25.4433 64.6731 25.61C64.4898 25.7733 64.2015 25.855 63.8081 25.855ZM68.7521 32.105C67.6521 32.105 66.8504 31.8783 66.3471 31.425C65.8438 30.9717 65.5921 30.2467 65.5921 29.25C65.5921 28.3633 65.8204 27.6717 66.2771 27.175C66.7338 26.675 67.3921 26.425 68.2521 26.425C69.0688 26.425 69.6854 26.6767 70.1021 27.18C70.5188 27.6833 70.7271 28.395 70.7271 29.315V29.79H67.4671C67.4938 30.1267 67.6154 30.3633 67.8321 30.5C68.0521 30.6333 68.4488 30.7 69.0221 30.7C69.2388 30.7 69.4654 30.6867 69.7021 30.66C69.9421 30.63 70.1788 30.5917 70.4121 30.545V31.935C70.1088 31.995 69.8221 32.0383 69.5521 32.065C69.2821 32.0917 69.0154 32.105 68.7521 32.105ZM68.2321 27.595C67.9821 27.595 67.7921 27.6783 67.6621 27.845C67.5354 28.0083 67.4688 28.305 67.4621 28.735H68.9871C68.9771 28.3083 68.9104 28.0117 68.7871 27.845C68.6671 27.6783 68.4821 27.595 68.2321 27.595ZM71.5155 32V26.515H73.0655L73.1905 27.05H73.2705C73.6705 26.6333 74.1938 26.425 74.8405 26.425C75.2071 26.425 75.5338 26.5 75.8205 26.65C76.1105 26.7967 76.3371 27.035 76.5005 27.365C76.6671 27.6917 76.7505 28.1217 76.7505 28.655V32H74.8705V28.775C74.8705 28.495 74.8121 28.3017 74.6955 28.195C74.5821 28.0883 74.4255 28.035 74.2255 28.035C74.0721 28.035 73.9205 28.065 73.7705 28.125C73.6205 28.185 73.4955 28.2717 73.3955 28.385V32H71.5155ZM80.55 32.105C79.58 32.105 78.8383 31.87 78.325 31.4C77.8117 30.9267 77.555 30.2167 77.555 29.27C77.555 28.31 77.8283 27.5967 78.375 27.13C78.925 26.66 79.7 26.425 80.7 26.425C81.16 26.425 81.58 26.4667 81.96 26.55V28.02C81.7867 27.99 81.62 27.9683 81.46 27.955C81.3 27.9383 81.1367 27.93 80.97 27.93C80.45 27.93 80.0733 28.035 79.84 28.245C79.6067 28.455 79.49 28.7917 79.49 29.255C79.49 29.7383 79.6033 30.085 79.83 30.295C80.0567 30.5017 80.395 30.605 80.845 30.605C81.0183 30.605 81.19 30.5917 81.36 30.565C81.5333 30.535 81.7333 30.4917 81.96 30.435V31.905C81.7633 31.9683 81.5433 32.0167 81.3 32.05C81.0567 32.0867 80.8067 32.105 80.55 32.105ZM85.6173 32.105C84.5173 32.105 83.7157 31.8783 83.2123 31.425C82.709 30.9717 82.4573 30.2467 82.4573 29.25C82.4573 28.3633 82.6857 27.6717 83.1423 27.175C83.599 26.675 84.2573 26.425 85.1173 26.425C85.934 26.425 86.5507 26.6767 86.9673 27.18C87.384 27.6833 87.5923 28.395 87.5923 29.315V29.79H84.3323C84.359 30.1267 84.4807 30.3633 84.6973 30.5C84.9173 30.6333 85.314 30.7 85.8873 30.7C86.104 30.7 86.3307 30.6867 86.5673 30.66C86.8073 30.63 87.044 30.5917 87.2773 30.545V31.935C86.974 31.995 86.6873 32.0383 86.4173 32.065C86.1473 32.0917 85.8807 32.105 85.6173 32.105ZM85.0973 27.595C84.8473 27.595 84.6573 27.6783 84.5273 27.845C84.4007 28.0083 84.334 28.305 84.3273 28.735H85.8523C85.8423 28.3083 85.7757 28.0117 85.6523 27.845C85.5323 27.6783 85.3473 27.595 85.0973 27.595ZM93.1648 32.095C92.9581 32.095 92.7264 32.0883 92.4698 32.075C92.2131 32.0617 91.9548 32.0433 91.6948 32.02C91.4381 31.9967 91.2014 31.9683 90.9848 31.935V24.78C91.3414 24.7 91.7431 24.635 92.1898 24.585C92.6398 24.5317 93.0698 24.505 93.4798 24.505C94.6231 24.505 95.4531 24.68 95.9698 25.03C96.4898 25.3767 96.7498 25.8983 96.7498 26.595C96.7498 26.9783 96.6464 27.3133 96.4398 27.6C96.2364 27.8833 95.9598 28.0783 95.6098 28.185C96.0064 28.2717 96.3281 28.4567 96.5748 28.74C96.8248 29.02 96.9498 29.4067 96.9498 29.9C96.9498 30.3633 96.8264 30.76 96.5798 31.09C96.3364 31.4167 95.9381 31.6667 95.3848 31.84C94.8314 32.01 94.0914 32.095 93.1648 32.095ZM93.7398 25.89C93.5798 25.89 93.4264 25.8967 93.2798 25.91C93.1364 25.9233 92.9964 25.9433 92.8598 25.97V27.51H93.7798C94.2164 27.51 94.5214 27.4433 94.6948 27.31C94.8681 27.1767 94.9548 26.9733 94.9548 26.7C94.9548 26.4167 94.8631 26.2117 94.6798 26.085C94.4998 25.955 94.1864 25.89 93.7398 25.89ZM93.6948 30.71C94.2648 30.71 94.6548 30.6367 94.8648 30.49C95.0781 30.3433 95.1848 30.12 95.1848 29.82C95.1848 29.5133 95.0898 29.29 94.8998 29.15C94.7098 29.0067 94.3898 28.935 93.9398 28.935H92.8598V30.675C93.0164 30.6883 93.1598 30.6983 93.2898 30.705C93.4231 30.7083 93.5581 30.71 93.6948 30.71ZM98.6957 32.095C98.3324 32.095 98.0424 31.995 97.8257 31.795C97.609 31.595 97.5007 31.3217 97.5007 30.975C97.5007 30.6283 97.6074 30.355 97.8207 30.155C98.034 29.955 98.3257 29.855 98.6957 29.855C99.069 29.855 99.3624 29.9583 99.5757 30.165C99.789 30.3683 99.8957 30.6383 99.8957 30.975C99.8957 31.3117 99.7874 31.5833 99.5707 31.79C99.354 31.9933 99.0624 32.095 98.6957 32.095ZM102.779 32.1C102.399 32.1 102.023 32.07 101.649 32.01C101.276 31.9533 100.936 31.875 100.629 31.775V30.23C100.943 30.3333 101.294 30.415 101.684 30.475C102.074 30.535 102.436 30.565 102.769 30.565C103.223 30.565 103.536 30.5033 103.709 30.38C103.886 30.2567 103.974 30.09 103.974 29.88C103.974 29.7033 103.911 29.5633 103.784 29.46C103.658 29.3533 103.409 29.2517 103.039 29.155L102.429 29C101.769 28.8367 101.271 28.58 100.934 28.23C100.598 27.8767 100.429 27.41 100.429 26.83C100.429 26.0967 100.698 25.525 101.234 25.115C101.771 24.705 102.583 24.5 103.669 24.5C104.019 24.5 104.349 24.52 104.659 24.56C104.969 24.6 105.243 24.6533 105.479 24.72V26.26C105.249 26.1933 104.984 26.14 104.684 26.1C104.384 26.0567 104.084 26.035 103.784 26.035C103.224 26.035 102.843 26.1017 102.639 26.235C102.436 26.365 102.334 26.5283 102.334 26.725C102.334 26.8917 102.388 27.0233 102.494 27.12C102.604 27.2167 102.818 27.3083 103.134 27.395L103.749 27.55C104.479 27.73 105.016 27.9967 105.359 28.35C105.706 28.7033 105.879 29.17 105.879 29.75C105.879 30.4733 105.606 31.0467 105.059 31.47C104.513 31.89 103.753 32.1 102.779 32.1ZM108.876 32V30.975L110.891 28.525C111.191 28.155 111.401 27.845 111.521 27.595C111.645 27.345 111.706 27.1117 111.706 26.895C111.706 26.6083 111.61 26.3933 111.416 26.25C111.223 26.1067 110.896 26.035 110.436 26.035C110.143 26.035 109.85 26.0617 109.556 26.115C109.263 26.1683 109.005 26.2367 108.781 26.32V24.78C109.008 24.7 109.298 24.6333 109.651 24.58C110.005 24.5267 110.336 24.5 110.646 24.5C111.623 24.5 112.358 24.6767 112.851 25.03C113.348 25.38 113.596 25.9383 113.596 26.705C113.596 27.0717 113.52 27.4433 113.366 27.82C113.216 28.1933 112.948 28.6067 112.561 29.06L111.406 30.425H113.936V32H108.876ZM116.407 32.1C116.051 32.1 115.706 32.0783 115.372 32.035C115.042 31.9917 114.729 31.93 114.432 31.85V30.435C114.716 30.5117 115.026 30.5733 115.362 30.62C115.702 30.6633 116.024 30.685 116.327 30.685C116.824 30.685 117.179 30.61 117.392 30.46C117.609 30.31 117.717 30.09 117.717 29.8C117.717 29.52 117.614 29.3067 117.407 29.16C117.201 29.0133 116.837 28.94 116.317 28.94H115.162V27.505H116.137C116.617 27.505 116.956 27.4333 117.152 27.29C117.349 27.1467 117.447 26.95 117.447 26.7C117.447 26.4433 117.352 26.2483 117.162 26.115C116.972 25.9817 116.662 25.915 116.232 25.915C115.952 25.915 115.662 25.94 115.362 25.99C115.066 26.0367 114.792 26.1033 114.542 26.19V24.775C114.786 24.695 115.082 24.63 115.432 24.58C115.786 24.5267 116.124 24.5 116.447 24.5C117.394 24.5 118.102 24.6767 118.572 25.03C119.046 25.38 119.282 25.8783 119.282 26.525C119.282 26.935 119.174 27.285 118.957 27.575C118.741 27.865 118.442 28.0667 118.062 28.18C118.529 28.28 118.889 28.4767 119.142 28.77C119.396 29.06 119.522 29.445 119.522 29.925C119.522 30.6017 119.266 31.1333 118.752 31.52C118.239 31.9067 117.457 32.1 116.407 32.1ZM120.514 27.73C120.667 27.42 120.79 27.13 120.884 26.86C120.98 26.5867 121.042 26.3167 121.069 26.05C120.769 26.0133 120.529 25.8983 120.349 25.705C120.169 25.5083 120.079 25.255 120.079 24.945C120.079 24.5917 120.184 24.3167 120.394 24.12C120.604 23.9233 120.889 23.825 121.249 23.825C122.062 23.825 122.469 24.31 122.469 25.28C122.469 25.7067 122.387 26.1367 122.224 26.57C122.064 27.0033 121.85 27.39 121.584 27.73H120.514ZM127.382 32.105C126.805 32.105 126.357 31.955 126.037 31.655C125.72 31.3517 125.562 30.9617 125.562 30.485C125.562 29.955 125.749 29.54 126.122 29.24C126.495 28.94 127.102 28.765 127.942 28.715L128.707 28.665C128.697 28.3583 128.604 28.145 128.427 28.025C128.254 27.9017 127.952 27.84 127.522 27.84C127.309 27.84 127.067 27.8583 126.797 27.895C126.53 27.9283 126.275 27.98 126.032 28.05V26.655C126.315 26.5783 126.622 26.5217 126.952 26.485C127.282 26.445 127.589 26.425 127.872 26.425C128.495 26.425 129.004 26.5017 129.397 26.655C129.79 26.805 130.079 27.0583 130.262 27.415C130.449 27.7683 130.542 28.2483 130.542 28.855V32H129.002L128.872 31.475H128.787C128.627 31.6983 128.425 31.86 128.182 31.96C127.939 32.0567 127.672 32.105 127.382 32.105ZM127.407 30.3C127.407 30.6433 127.61 30.815 128.017 30.815C128.13 30.815 128.247 30.7983 128.367 30.765C128.49 30.7317 128.604 30.6733 128.707 30.59V29.685L128.147 29.725C127.884 29.7417 127.694 29.8 127.577 29.9C127.464 30 127.407 30.1333 127.407 30.3ZM131.574 32V26.515H133.124L133.249 27.05H133.329C133.729 26.6333 134.252 26.425 134.899 26.425C135.266 26.425 135.592 26.5 135.879 26.65C136.169 26.7967 136.396 27.035 136.559 27.365C136.726 27.6917 136.809 28.1217 136.809 28.655V32H134.929V28.775C134.929 28.495 134.871 28.3017 134.754 28.195C134.641 28.0883 134.484 28.035 134.284 28.035C134.131 28.035 133.979 28.065 133.829 28.125C133.679 28.185 133.554 28.2717 133.454 28.385V32H131.574ZM139.894 32.1C139.484 32.1 139.105 32.0067 138.759 31.82C138.415 31.63 138.139 31.335 137.929 30.935C137.719 30.535 137.614 30.0133 137.614 29.37C137.614 28.4267 137.872 27.7 138.389 27.19C138.909 26.6767 139.674 26.42 140.684 26.42C140.777 26.42 140.87 26.4233 140.964 26.43C141.057 26.4367 141.144 26.4433 141.224 26.45V23.92H143.104V32H141.529L141.414 31.43H141.334C141.177 31.6333 140.979 31.7967 140.739 31.92C140.499 32.04 140.217 32.1 139.894 32.1ZM140.464 30.57C140.6 30.57 140.735 30.55 140.869 30.51C141.005 30.4667 141.124 30.4 141.224 30.31V27.885C141.147 27.8717 141.06 27.86 140.964 27.85C140.867 27.84 140.774 27.835 140.684 27.835C140.287 27.835 139.99 27.9417 139.794 28.155C139.597 28.365 139.499 28.7217 139.499 29.225C139.499 29.7483 139.587 30.1033 139.764 30.29C139.94 30.4767 140.174 30.57 140.464 30.57ZM148.766 32.1C148.386 32.1 148.009 32.07 147.636 32.01C147.262 31.9533 146.922 31.875 146.616 31.775V30.23C146.929 30.3333 147.281 30.415 147.671 30.475C148.061 30.535 148.422 30.565 148.756 30.565C149.209 30.565 149.522 30.5033 149.696 30.38C149.872 30.2567 149.961 30.09 149.961 29.88C149.961 29.7033 149.897 29.5633 149.771 29.46C149.644 29.3533 149.396 29.2517 149.026 29.155L148.416 29C147.756 28.8367 147.257 28.58 146.921 28.23C146.584 27.8767 146.416 27.41 146.416 26.83C146.416 26.0967 146.684 25.525 147.221 25.115C147.757 24.705 148.569 24.5 149.656 24.5C150.006 24.5 150.336 24.52 150.646 24.56C150.956 24.6 151.229 24.6533 151.466 24.72V26.26C151.236 26.1933 150.971 26.14 150.671 26.1C150.371 26.0567 150.071 26.035 149.771 26.035C149.211 26.035 148.829 26.1017 148.626 26.235C148.422 26.365 148.321 26.5283 148.321 26.725C148.321 26.8917 148.374 27.0233 148.481 27.12C148.591 27.2167 148.804 27.3083 149.121 27.395L149.736 27.55C150.466 27.73 151.002 27.9967 151.346 28.35C151.692 28.7033 151.866 29.17 151.866 29.75C151.866 30.4733 151.592 31.0467 151.046 31.47C150.499 31.89 149.739 32.1 148.766 32.1ZM155.15 32.105C154.45 32.105 153.913 31.9333 153.54 31.59C153.167 31.2433 152.98 30.6983 152.98 29.955V27.98H152.14V26.515H152.98L153.33 24.6H154.865V26.515H156.21V27.98H154.865V29.66C154.865 30.0067 154.927 30.245 155.05 30.375C155.173 30.5017 155.383 30.565 155.68 30.565C155.76 30.565 155.843 30.56 155.93 30.55C156.017 30.54 156.115 30.5267 156.225 30.51V31.98C156.078 32.0133 155.907 32.0417 155.71 32.065C155.517 32.0917 155.33 32.105 155.15 32.105ZM158.515 32.105C157.938 32.105 157.49 31.955 157.17 31.655C156.853 31.3517 156.695 30.9617 156.695 30.485C156.695 29.955 156.881 29.54 157.255 29.24C157.628 28.94 158.235 28.765 159.075 28.715L159.84 28.665C159.83 28.3583 159.736 28.145 159.56 28.025C159.386 27.9017 159.085 27.84 158.655 27.84C158.441 27.84 158.2 27.8583 157.93 27.895C157.663 27.9283 157.408 27.98 157.165 28.05V26.655C157.448 26.5783 157.755 26.5217 158.085 26.485C158.415 26.445 158.721 26.425 159.005 26.425C159.628 26.425 160.136 26.5017 160.53 26.655C160.923 26.805 161.211 27.0583 161.395 27.415C161.581 27.7683 161.675 28.2483 161.675 28.855V32H160.135L160.005 31.475H159.92C159.76 31.6983 159.558 31.86 159.315 31.96C159.071 32.0567 158.805 32.105 158.515 32.105ZM158.54 30.3C158.54 30.6433 158.743 30.815 159.15 30.815C159.263 30.815 159.38 30.7983 159.5 30.765C159.623 30.7317 159.736 30.6733 159.84 30.59V29.685L159.28 29.725C159.016 29.7417 158.826 29.8 158.71 29.9C158.596 30 158.54 30.1333 158.54 30.3ZM165.277 32.105C164.577 32.105 164.04 31.9333 163.667 31.59C163.294 31.2433 163.107 30.6983 163.107 29.955V27.98H162.267V26.515H163.107L163.457 24.6H164.992V26.515H166.337V27.98H164.992V29.66C164.992 30.0067 165.054 30.245 165.177 30.375C165.3 30.5017 165.51 30.565 165.807 30.565C165.887 30.565 165.97 30.56 166.057 30.55C166.144 30.54 166.242 30.5267 166.352 30.51V31.98C166.205 32.0133 166.034 32.0417 165.837 32.065C165.644 32.0917 165.457 32.105 165.277 32.105ZM167.15 32V26.515H169.035V32H167.15ZM168.095 25.855C167.702 25.855 167.414 25.7733 167.23 25.61C167.047 25.4433 166.955 25.2083 166.955 24.905C166.955 24.605 167.047 24.3717 167.23 24.205C167.414 24.0383 167.702 23.955 168.095 23.955C168.489 23.955 168.777 24.0383 168.96 24.205C169.144 24.3717 169.235 24.605 169.235 24.905C169.235 25.2083 169.144 25.4433 168.96 25.61C168.777 25.7733 168.489 25.855 168.095 25.855ZM171.834 32.105C171.504 32.105 171.181 32.085 170.864 32.045C170.551 32.005 170.261 31.9433 169.994 31.86V30.5C170.258 30.58 170.544 30.6433 170.854 30.69C171.168 30.7333 171.483 30.755 171.799 30.755C172.123 30.755 172.346 30.7183 172.469 30.645C172.593 30.5717 172.654 30.4733 172.654 30.35C172.654 30.2567 172.628 30.185 172.574 30.135C172.521 30.085 172.424 30.0467 172.284 30.02L171.339 29.855C170.819 29.7617 170.438 29.5833 170.194 29.32C169.954 29.0533 169.834 28.6933 169.834 28.24C169.834 27.69 170.058 27.25 170.504 26.92C170.951 26.59 171.638 26.425 172.564 26.425C172.841 26.425 173.113 26.4417 173.379 26.475C173.649 26.5083 173.886 26.5517 174.089 26.605V27.965C173.879 27.9083 173.648 27.8633 173.394 27.83C173.141 27.7967 172.883 27.78 172.619 27.78C172.189 27.78 171.908 27.8233 171.774 27.91C171.641 27.9933 171.574 28.09 171.574 28.2C171.574 28.2833 171.601 28.35 171.654 28.4C171.711 28.4467 171.809 28.4833 171.949 28.51L172.894 28.675C173.374 28.7617 173.744 28.9267 174.004 29.17C174.264 29.41 174.394 29.7817 174.394 30.285C174.394 30.8517 174.169 31.2967 173.719 31.62C173.273 31.9433 172.644 32.105 171.834 32.105ZM177.65 32.105C176.95 32.105 176.413 31.9333 176.04 31.59C175.667 31.2433 175.48 30.6983 175.48 29.955V27.98H174.64V26.515H175.48L175.83 24.6H177.365V26.515H178.71V27.98H177.365V29.66C177.365 30.0067 177.427 30.245 177.55 30.375C177.673 30.5017 177.883 30.565 178.18 30.565C178.26 30.565 178.343 30.56 178.43 30.55C178.517 30.54 178.615 30.5267 178.725 30.51V31.98C178.578 32.0133 178.407 32.0417 178.21 32.065C178.017 32.0917 177.83 32.105 177.65 32.105ZM179.523 32V26.515H181.408V32H179.523ZM180.468 25.855C180.075 25.855 179.787 25.7733 179.603 25.61C179.42 25.4433 179.328 25.2083 179.328 24.905C179.328 24.605 179.42 24.3717 179.603 24.205C179.787 24.0383 180.075 23.955 180.468 23.955C180.862 23.955 181.15 24.0383 181.333 24.205C181.517 24.3717 181.608 24.605 181.608 24.905C181.608 25.2083 181.517 25.4433 181.333 25.61C181.15 25.7733 180.862 25.855 180.468 25.855ZM185.247 32.105C184.277 32.105 183.536 31.87 183.022 31.4C182.509 30.9267 182.252 30.2167 182.252 29.27C182.252 28.31 182.526 27.5967 183.072 27.13C183.622 26.66 184.397 26.425 185.397 26.425C185.857 26.425 186.277 26.4667 186.657 26.55V28.02C186.484 27.99 186.317 27.9683 186.157 27.955C185.997 27.9383 185.834 27.93 185.667 27.93C185.147 27.93 184.771 28.035 184.537 28.245C184.304 28.455 184.187 28.7917 184.187 29.255C184.187 29.7383 184.301 30.085 184.527 30.295C184.754 30.5017 185.092 30.605 185.542 30.605C185.716 30.605 185.887 30.5917 186.057 30.565C186.231 30.535 186.431 30.4917 186.657 30.435V31.905C186.461 31.9683 186.241 32.0167 185.997 32.05C185.754 32.0867 185.504 32.105 185.247 32.105ZM189.11 32.105C188.78 32.105 188.456 32.085 188.14 32.045C187.826 32.005 187.536 31.9433 187.27 31.86V30.5C187.533 30.58 187.82 30.6433 188.13 30.69C188.443 30.7333 188.758 30.755 189.075 30.755C189.398 30.755 189.621 30.7183 189.745 30.645C189.868 30.5717 189.93 30.4733 189.93 30.35C189.93 30.2567 189.903 30.185 189.85 30.135C189.796 30.085 189.7 30.0467 189.56 30.02L188.615 29.855C188.095 29.7617 187.713 29.5833 187.47 29.32C187.23 29.0533 187.11 28.6933 187.11 28.24C187.11 27.69 187.333 27.25 187.78 26.92C188.226 26.59 188.913 26.425 189.84 26.425C190.116 26.425 190.388 26.4417 190.655 26.475C190.925 26.5083 191.161 26.5517 191.365 26.605V27.965C191.155 27.9083 190.923 27.8633 190.67 27.83C190.416 27.7967 190.158 27.78 189.895 27.78C189.465 27.78 189.183 27.8233 189.05 27.91C188.916 27.9933 188.85 28.09 188.85 28.2C188.85 28.2833 188.876 28.35 188.93 28.4C188.986 28.4467 189.085 28.4833 189.225 28.51L190.17 28.675C190.65 28.7617 191.02 28.9267 191.28 29.17C191.54 29.41 191.67 29.7817 191.67 30.285C191.67 30.8517 191.445 31.2967 190.995 31.62C190.548 31.9433 189.92 32.105 189.11 32.105ZM197.198 32.095C196.991 32.095 196.76 32.0883 196.503 32.075C196.246 32.0617 195.988 32.0433 195.728 32.02C195.471 31.9967 195.235 31.9683 195.018 31.935V24.78C195.375 24.7 195.776 24.635 196.223 24.585C196.673 24.5317 197.103 24.505 197.513 24.505C198.656 24.505 199.486 24.68 200.003 25.03C200.523 25.3767 200.783 25.8983 200.783 26.595C200.783 26.9783 200.68 27.3133 200.473 27.6C200.27 27.8833 199.993 28.0783 199.643 28.185C200.04 28.2717 200.361 28.4567 200.608 28.74C200.858 29.02 200.983 29.4067 200.983 29.9C200.983 30.3633 200.86 30.76 200.613 31.09C200.37 31.4167 199.971 31.6667 199.418 31.84C198.865 32.01 198.125 32.095 197.198 32.095ZM197.773 25.89C197.613 25.89 197.46 25.8967 197.313 25.91C197.17 25.9233 197.03 25.9433 196.893 25.97V27.51H197.813C198.25 27.51 198.555 27.4433 198.728 27.31C198.901 27.1767 198.988 26.9733 198.988 26.7C198.988 26.4167 198.896 26.2117 198.713 26.085C198.533 25.955 198.22 25.89 197.773 25.89ZM197.728 30.71C198.298 30.71 198.688 30.6367 198.898 30.49C199.111 30.3433 199.218 30.12 199.218 29.82C199.218 29.5133 199.123 29.29 198.933 29.15C198.743 29.0067 198.423 28.935 197.973 28.935H196.893V30.675C197.05 30.6883 197.193 30.6983 197.323 30.705C197.456 30.7083 197.591 30.71 197.728 30.71ZM202.729 32.095C202.366 32.095 202.076 31.995 201.859 31.795C201.642 31.595 201.534 31.3217 201.534 30.975C201.534 30.6283 201.641 30.355 201.854 30.155C202.067 29.955 202.359 29.855 202.729 29.855C203.102 29.855 203.396 29.9583 203.609 30.165C203.822 30.3683 203.929 30.6383 203.929 30.975C203.929 31.3117 203.821 31.5833 203.604 31.79C203.387 31.9933 203.096 32.095 202.729 32.095ZM206.813 32.1C206.433 32.1 206.056 32.07 205.683 32.01C205.309 31.9533 204.969 31.875 204.663 31.775V30.23C204.976 30.3333 205.328 30.415 205.718 30.475C206.108 30.535 206.469 30.565 206.803 30.565C207.256 30.565 207.569 30.5033 207.743 30.38C207.919 30.2567 208.008 30.09 208.008 29.88C208.008 29.7033 207.944 29.5633 207.818 29.46C207.691 29.3533 207.443 29.2517 207.073 29.155L206.463 29C205.803 28.8367 205.304 28.58 204.968 28.23C204.631 27.8767 204.463 27.41 204.463 26.83C204.463 26.0967 204.731 25.525 205.268 25.115C205.804 24.705 206.616 24.5 207.703 24.5C208.053 24.5 208.383 24.52 208.693 24.56C209.003 24.6 209.276 24.6533 209.513 24.72V26.26C209.283 26.1933 209.018 26.14 208.718 26.1C208.418 26.0567 208.118 26.035 207.818 26.035C207.258 26.035 206.876 26.1017 206.673 26.235C206.469 26.365 206.368 26.5283 206.368 26.725C206.368 26.8917 206.421 27.0233 206.528 27.12C206.638 27.2167 206.851 27.3083 207.168 27.395L207.783 27.55C208.513 27.73 209.049 27.9967 209.393 28.35C209.739 28.7033 209.913 29.17 209.913 29.75C209.913 30.4733 209.639 31.0467 209.093 31.47C208.546 31.89 207.786 32.1 206.813 32.1ZM212.909 32V30.975L214.924 28.525C215.224 28.155 215.434 27.845 215.554 27.595C215.678 27.345 215.739 27.1117 215.739 26.895C215.739 26.6083 215.643 26.3933 215.449 26.25C215.256 26.1067 214.929 26.035 214.469 26.035C214.176 26.035 213.883 26.0617 213.589 26.115C213.296 26.1683 213.038 26.2367 212.814 26.32V24.78C213.041 24.7 213.331 24.6333 213.684 24.58C214.038 24.5267 214.369 24.5 214.679 24.5C215.656 24.5 216.391 24.6767 216.884 25.03C217.381 25.38 217.629 25.9383 217.629 26.705C217.629 27.0717 217.553 27.4433 217.399 27.82C217.249 28.1933 216.981 28.6067 216.594 29.06L215.439 30.425H217.969V32H212.909ZM220.441 32.1C220.084 32.1 219.739 32.0783 219.406 32.035C219.076 31.9917 218.762 31.93 218.466 31.85V30.435C218.749 30.5117 219.059 30.5733 219.396 30.62C219.736 30.6633 220.057 30.685 220.361 30.685C220.857 30.685 221.212 30.61 221.426 30.46C221.642 30.31 221.751 30.09 221.751 29.8C221.751 29.52 221.647 29.3067 221.441 29.16C221.234 29.0133 220.871 28.94 220.351 28.94H219.196V27.505H220.171C220.651 27.505 220.989 27.4333 221.186 27.29C221.382 27.1467 221.481 26.95 221.481 26.7C221.481 26.4433 221.386 26.2483 221.196 26.115C221.006 25.9817 220.696 25.915 220.266 25.915C219.986 25.915 219.696 25.94 219.396 25.99C219.099 26.0367 218.826 26.1033 218.576 26.19V24.775C218.819 24.695 219.116 24.63 219.466 24.58C219.819 24.5267 220.157 24.5 220.481 24.5C221.427 24.5 222.136 24.6767 222.606 25.03C223.079 25.38 223.316 25.8783 223.316 26.525C223.316 26.935 223.207 27.285 222.991 27.575C222.774 27.865 222.476 28.0667 222.096 28.18C222.562 28.28 222.922 28.4767 223.176 28.77C223.429 29.06 223.556 29.445 223.556 29.925C223.556 30.6017 223.299 31.1333 222.786 31.52C222.272 31.9067 221.491 32.1 220.441 32.1ZM224.547 27.73C224.7 27.42 224.824 27.13 224.917 26.86C225.014 26.5867 225.075 26.3167 225.102 26.05C224.802 26.0133 224.562 25.8983 224.382 25.705C224.202 25.5083 224.112 25.255 224.112 24.945C224.112 24.5917 224.217 24.3167 224.427 24.12C224.637 23.9233 224.922 23.825 225.282 23.825C226.095 23.825 226.502 24.31 226.502 25.28C226.502 25.7067 226.42 26.1367 226.257 26.57C226.097 27.0033 225.884 27.39 225.617 27.73H224.547Z" fill="white"/>
<path d="M25.6934 45V38.34H26.6474V45H25.6934ZM27.99 45V40.104H28.773L28.8405 40.6395H28.8945C29.2935 40.2315 29.7945 40.0275 30.3975 40.0275C30.7095 40.0275 30.9855 40.086 31.2255 40.203C31.4685 40.32 31.659 40.5105 31.797 40.7745C31.935 41.0355 32.004 41.385 32.004 41.823V45H31.0635V41.8725C31.0635 41.4915 30.981 41.226 30.816 41.076C30.651 40.926 30.426 40.851 30.141 40.851C29.94 40.851 29.727 40.896 29.502 40.986C29.28 41.073 29.0895 41.22 28.9305 41.427V45H27.99ZM35.186 45.0855C34.658 45.0855 34.2485 44.952 33.9575 44.685C33.6695 44.418 33.5255 43.9905 33.5255 43.4025V40.8645H32.6435V40.104H33.5255L33.6875 38.34H34.466V40.104H35.924V40.8645H34.466V43.2495C34.466 43.6395 34.5425 43.911 34.6955 44.064C34.8515 44.217 35.09 44.2935 35.411 44.2935C35.573 44.2935 35.7635 44.2695 35.9825 44.2215V44.9955C35.7185 45.0555 35.453 45.0855 35.186 45.0855ZM38.8518 45.09C38.0388 45.09 37.4298 44.892 37.0248 44.496C36.6198 44.097 36.4173 43.449 36.4173 42.552C36.4173 41.706 36.6018 41.0745 36.9708 40.6575C37.3398 40.2375 37.8453 40.0275 38.4873 40.0275C39.1173 40.0275 39.6018 40.2375 39.9408 40.6575C40.2798 41.0775 40.4493 41.7165 40.4493 42.5745V42.8445H37.3668C37.3848 43.3965 37.5213 43.785 37.7763 44.01C38.0313 44.235 38.4303 44.3475 38.9733 44.3475C39.1593 44.3475 39.3543 44.3325 39.5583 44.3025C39.7623 44.2695 39.9753 44.223 40.1973 44.163V44.901C39.9543 44.967 39.7233 45.015 39.5043 45.045C39.2853 45.075 39.0678 45.09 38.8518 45.09ZM38.4783 40.671C38.1393 40.671 37.8708 40.788 37.6728 41.022C37.4778 41.253 37.3743 41.6625 37.3623 42.2505H39.5583C39.5493 41.6655 39.4518 41.256 39.2658 41.022C39.0798 40.788 38.8173 40.671 38.4783 40.671ZM41.4109 45V40.104H42.1894L42.2659 40.752H42.3154C42.4744 40.518 42.6769 40.3425 42.9229 40.2255C43.1689 40.1085 43.4299 40.05 43.7059 40.05C43.8409 40.05 43.9714 40.062 44.0974 40.086V40.9455C44.0254 40.9335 43.9519 40.926 43.8769 40.923C43.8049 40.917 43.7314 40.914 43.6564 40.914C43.4254 40.914 43.1869 40.9665 42.9409 41.0715C42.6949 41.1735 42.4984 41.3295 42.3514 41.5395V45H41.4109ZM46.8762 45.09C46.0632 45.09 45.4542 44.892 45.0492 44.496C44.6442 44.097 44.4417 43.449 44.4417 42.552C44.4417 41.706 44.6262 41.0745 44.9952 40.6575C45.3642 40.2375 45.8697 40.0275 46.5117 40.0275C47.1417 40.0275 47.6262 40.2375 47.9652 40.6575C48.3042 41.0775 48.4737 41.7165 48.4737 42.5745V42.8445H45.3912C45.4092 43.3965 45.5457 43.785 45.8007 44.01C46.0557 44.235 46.4547 44.3475 46.9977 44.3475C47.1837 44.3475 47.3787 44.3325 47.5827 44.3025C47.7867 44.2695 47.9997 44.223 48.2217 44.163V44.901C47.9787 44.967 47.7477 45.015 47.5287 45.045C47.3097 45.075 47.0922 45.09 46.8762 45.09ZM46.5027 40.671C46.1637 40.671 45.8952 40.788 45.6972 41.022C45.5022 41.253 45.3987 41.6625 45.3867 42.2505H47.5827C47.5737 41.6655 47.4762 41.256 47.2902 41.022C47.1042 40.788 46.8417 40.671 46.5027 40.671ZM50.6863 45.09C50.1643 45.09 49.6903 45.0225 49.2643 44.8875V44.163C49.7293 44.301 50.2018 44.37 50.6818 44.37C51.0748 44.37 51.3568 44.307 51.5278 44.181C51.7018 44.055 51.7888 43.878 51.7888 43.65C51.7888 43.458 51.7378 43.3125 51.6358 43.2135C51.5368 43.1115 51.3688 43.035 51.1318 42.984L50.4298 42.8445C49.9768 42.7545 49.6513 42.597 49.4533 42.372C49.2583 42.147 49.1608 41.853 49.1608 41.49C49.1608 41.061 49.3288 40.71 49.6648 40.437C50.0008 40.164 50.5183 40.0275 51.2173 40.0275C51.4333 40.0275 51.6418 40.041 51.8428 40.068C52.0468 40.092 52.2388 40.128 52.4188 40.176V40.9005C52.0378 40.7985 51.6448 40.7475 51.2398 40.7475C50.7898 40.7475 50.4793 40.818 50.3083 40.959C50.1373 41.097 50.0518 41.2665 50.0518 41.4675C50.0518 41.6355 50.0983 41.7735 50.1913 41.8815C50.2873 41.9865 50.4538 42.066 50.6908 42.12L51.3928 42.255C51.8398 42.348 52.1653 42.501 52.3693 42.714C52.5763 42.927 52.6798 43.2255 52.6798 43.6095C52.6798 44.0685 52.5088 44.43 52.1668 44.694C51.8278 44.958 51.3343 45.09 50.6863 45.09ZM55.5151 45.0855C54.9871 45.0855 54.5776 44.952 54.2866 44.685C53.9986 44.418 53.8546 43.9905 53.8546 43.4025V40.8645H52.9726V40.104H53.8546L54.0166 38.34H54.7951V40.104H56.2531V40.8645H54.7951V43.2495C54.7951 43.6395 54.8716 43.911 55.0246 44.064C55.1806 44.217 55.4191 44.2935 55.7401 44.2935C55.9021 44.2935 56.0926 44.2695 56.3116 44.2215V44.9955C56.0476 45.0555 55.7821 45.0855 55.5151 45.0855ZM58.1921 45.09C57.6701 45.09 57.1961 45.0225 56.7701 44.8875V44.163C57.2351 44.301 57.7076 44.37 58.1876 44.37C58.5806 44.37 58.8626 44.307 59.0336 44.181C59.2076 44.055 59.2946 43.878 59.2946 43.65C59.2946 43.458 59.2436 43.3125 59.1416 43.2135C59.0426 43.1115 58.8746 43.035 58.6376 42.984L57.9356 42.8445C57.4826 42.7545 57.1571 42.597 56.9591 42.372C56.7641 42.147 56.6666 41.853 56.6666 41.49C56.6666 41.061 56.8346 40.71 57.1706 40.437C57.5066 40.164 58.0241 40.0275 58.7231 40.0275C58.9391 40.0275 59.1476 40.041 59.3486 40.068C59.5526 40.092 59.7446 40.128 59.9246 40.176V40.9005C59.5436 40.7985 59.1506 40.7475 58.7456 40.7475C58.2956 40.7475 57.9851 40.818 57.8141 40.959C57.6431 41.097 57.5576 41.2665 57.5576 41.4675C57.5576 41.6355 57.6041 41.7735 57.6971 41.8815C57.7931 41.9865 57.9596 42.066 58.1966 42.12L58.8986 42.255C59.3456 42.348 59.6711 42.501 59.8751 42.714C60.0821 42.927 60.1856 43.2255 60.1856 43.6095C60.1856 44.0685 60.0146 44.43 59.6726 44.694C59.3336 44.958 58.8401 45.09 58.1921 45.09ZM63.322 45V40.104H64.2625V45H63.322ZM63.7945 39.15C63.3805 39.15 63.1735 38.97 63.1735 38.61C63.1735 38.439 63.226 38.3055 63.331 38.2095C63.436 38.1105 63.5905 38.061 63.7945 38.061C63.9985 38.061 64.153 38.1105 64.258 38.2095C64.363 38.3055 64.4155 38.439 64.4155 38.61C64.4155 38.97 64.2085 39.15 63.7945 39.15ZM65.5368 45V40.104H66.3198L66.3873 40.6395H66.4413C66.8403 40.2315 67.3413 40.0275 67.9443 40.0275C68.2563 40.0275 68.5323 40.086 68.7723 40.203C69.0153 40.32 69.2058 40.5105 69.3438 40.7745C69.4818 41.0355 69.5508 41.385 69.5508 41.823V45H68.6103V41.8725C68.6103 41.4915 68.5278 41.226 68.3628 41.076C68.1978 40.926 67.9728 40.851 67.6878 40.851C67.4868 40.851 67.2738 40.896 67.0488 40.986C66.8268 41.073 66.6363 41.22 66.4773 41.427V45H65.5368ZM73.0577 45V38.34H77.3237V39.1365H74.0117V41.274H76.8782V42.0705H74.0117V45H73.0577ZM77.8943 45V40.104H78.6728L78.7493 40.752H78.7988C78.9578 40.518 79.1603 40.3425 79.4063 40.2255C79.6523 40.1085 79.9133 40.05 80.1893 40.05C80.3243 40.05 80.4548 40.062 80.5808 40.086V40.9455C80.5088 40.9335 80.4353 40.926 80.3603 40.923C80.2883 40.917 80.2148 40.914 80.1398 40.914C79.9088 40.914 79.6703 40.9665 79.4243 41.0715C79.1783 41.1735 78.9818 41.3295 78.8348 41.5395V45H77.8943ZM83.1031 45.09C82.4401 45.09 81.9106 44.8875 81.5146 44.4825C81.1216 44.0745 80.9251 43.434 80.9251 42.561C80.9251 41.685 81.1201 41.0445 81.5101 40.6395C81.9001 40.2315 82.4311 40.0275 83.1031 40.0275C83.7751 40.0275 84.3061 40.2315 84.6961 40.6395C85.0861 41.0445 85.2811 41.6835 85.2811 42.5565C85.2811 43.4265 85.0831 44.067 84.6871 44.478C84.2941 44.886 83.7661 45.09 83.1031 45.09ZM83.1031 44.3475C83.3551 44.3475 83.5726 44.2935 83.7556 44.1855C83.9386 44.0745 84.0796 43.89 84.1786 43.632C84.2776 43.371 84.3271 43.0155 84.3271 42.5655C84.3271 42.1095 84.2776 41.751 84.1786 41.49C84.0796 41.229 83.9386 41.0445 83.7556 40.9365C83.5726 40.8255 83.3551 40.77 83.1031 40.77C82.8511 40.77 82.6336 40.8255 82.4506 40.9365C82.2676 41.0445 82.1266 41.2275 82.0276 41.4855C81.9286 41.7435 81.8791 42.0975 81.8791 42.5475C81.8791 43.0035 81.9286 43.362 82.0276 43.623C82.1266 43.884 82.2676 44.07 82.4506 44.181C82.6336 44.292 82.8511 44.3475 83.1031 44.3475ZM86.3054 45V40.104H87.0884L87.1559 40.6395H87.2099C87.6089 40.2315 88.1099 40.0275 88.7129 40.0275C89.0249 40.0275 89.3009 40.086 89.5409 40.203C89.7839 40.32 89.9744 40.5105 90.1124 40.7745C90.2504 41.0355 90.3194 41.385 90.3194 41.823V45H89.3789V41.8725C89.3789 41.4915 89.2964 41.226 89.1314 41.076C88.9664 40.926 88.7414 40.851 88.4564 40.851C88.2554 40.851 88.0424 40.896 87.8174 40.986C87.5954 41.073 87.4049 41.22 87.2459 41.427V45H86.3054ZM93.5014 45.0855C92.9734 45.0855 92.5639 44.952 92.2729 44.685C91.9849 44.418 91.8409 43.9905 91.8409 43.4025V40.8645H90.9589V40.104H91.8409L92.0029 38.34H92.7814V40.104H94.2394V40.8645H92.7814V43.2495C92.7814 43.6395 92.8579 43.911 93.0109 44.064C93.1669 44.217 93.4054 44.2935 93.7264 44.2935C93.8884 44.2935 94.0789 44.2695 94.2979 44.2215V44.9955C94.0339 45.0555 93.7684 45.0855 93.5014 45.0855ZM94.9888 42.8535V42.0705H97.6078V42.8535H94.9888ZM98.9415 45V38.34H103.234V39.1275H99.8865V41.193H102.789V41.9805H99.8865V44.2125H103.279V45H98.9415ZM104.235 45V40.104H105.018L105.086 40.6395H105.14C105.539 40.2315 106.04 40.0275 106.643 40.0275C106.955 40.0275 107.231 40.086 107.471 40.203C107.714 40.32 107.904 40.5105 108.042 40.7745C108.18 41.0355 108.249 41.385 108.249 41.823V45H107.309V41.8725C107.309 41.4915 107.226 41.226 107.061 41.076C106.896 40.926 106.671 40.851 106.386 40.851C106.185 40.851 105.972 40.896 105.747 40.986C105.525 41.073 105.335 41.22 105.176 41.427V45H104.235ZM111.17 45.0855C110.813 45.0855 110.486 45.0045 110.189 44.8425C109.895 44.6805 109.66 44.4225 109.483 44.0685C109.306 43.7115 109.217 43.239 109.217 42.651C109.217 41.778 109.432 41.1225 109.861 40.6845C110.293 40.2465 110.923 40.0275 111.751 40.0275C111.877 40.0275 112.003 40.0335 112.129 40.0455C112.255 40.0545 112.37 40.0665 112.475 40.0815V37.728H113.416V45H112.619L112.561 44.4735H112.507C112.363 44.6565 112.177 44.805 111.949 44.919C111.721 45.03 111.461 45.0855 111.17 45.0855ZM111.413 44.298C111.611 44.298 111.805 44.256 111.994 44.172C112.183 44.088 112.343 43.956 112.475 43.776V40.8465C112.376 40.8225 112.261 40.8045 112.129 40.7925C111.997 40.7775 111.868 40.77 111.742 40.77C111.223 40.77 110.831 40.911 110.567 41.193C110.303 41.472 110.171 41.9325 110.171 42.5745C110.171 43.0185 110.224 43.3665 110.329 43.6185C110.434 43.8675 110.579 44.043 110.765 44.145C110.954 44.247 111.17 44.298 111.413 44.298ZM116.977 45V38.34H121.27V39.1275H117.922V41.193H120.824V41.9805H117.922V44.2125H121.315V45H116.977ZM122.27 45V40.104H123.053L123.121 40.6395H123.175C123.574 40.2315 124.075 40.0275 124.678 40.0275C124.99 40.0275 125.266 40.086 125.506 40.203C125.749 40.32 125.939 40.5105 126.077 40.7745C126.215 41.0355 126.284 41.385 126.284 41.823V45H125.344V41.8725C125.344 41.4915 125.261 41.226 125.096 41.076C124.931 40.926 124.706 40.851 124.421 40.851C124.22 40.851 124.007 40.896 123.782 40.986C123.56 41.073 123.37 41.22 123.211 41.427V45H122.27ZM129.079 47.07C128.842 47.07 128.59 47.052 128.323 47.016C128.059 46.983 127.81 46.9305 127.576 46.8585V46.0935C127.834 46.1715 128.083 46.2285 128.323 46.2645C128.566 46.3035 128.797 46.323 129.016 46.323C129.529 46.323 129.906 46.2165 130.146 46.0035C130.389 45.7905 130.51 45.426 130.51 44.91V44.4825H130.461C130.314 44.6535 130.128 44.7915 129.903 44.8965C129.681 45.0015 129.424 45.054 129.133 45.054C128.797 45.054 128.487 44.9745 128.202 44.8155C127.917 44.6535 127.687 44.397 127.513 44.046C127.339 43.692 127.252 43.227 127.252 42.651C127.252 40.902 128.11 40.0275 129.826 40.0275C130.099 40.0275 130.38 40.0485 130.668 40.0905C130.956 40.1325 131.217 40.191 131.451 40.266V44.7525C131.451 45.5775 131.253 46.17 130.857 46.53C130.464 46.89 129.871 47.07 129.079 47.07ZM129.448 44.2665C129.643 44.2665 129.835 44.2275 130.024 44.1495C130.216 44.0715 130.378 43.95 130.51 43.785V40.86C130.411 40.833 130.294 40.812 130.159 40.797C130.027 40.779 129.891 40.77 129.75 40.77C129.249 40.77 128.866 40.9095 128.602 41.1885C128.338 41.4675 128.206 41.9265 128.206 42.5655C128.206 43.0095 128.259 43.3545 128.364 43.6005C128.472 43.8465 128.619 44.019 128.805 44.118C128.991 44.217 129.205 44.2665 129.448 44.2665ZM132.72 45V40.104H133.661V45H132.72ZM133.193 39.15C132.779 39.15 132.572 38.97 132.572 38.61C132.572 38.439 132.624 38.3055 132.729 38.2095C132.834 38.1105 132.989 38.061 133.193 38.061C133.397 38.061 133.551 38.1105 133.656 38.2095C133.761 38.3055 133.814 38.439 133.814 38.61C133.814 38.97 133.607 39.15 133.193 39.15ZM134.935 45V40.104H135.718L135.786 40.6395H135.84C136.239 40.2315 136.74 40.0275 137.343 40.0275C137.655 40.0275 137.931 40.086 138.171 40.203C138.414 40.32 138.604 40.5105 138.742 40.7745C138.88 41.0355 138.949 41.385 138.949 41.823V45H138.009V41.8725C138.009 41.4915 137.926 41.226 137.761 41.076C137.596 40.926 137.371 40.851 137.086 40.851C136.885 40.851 136.672 40.896 136.447 40.986C136.225 41.073 136.035 41.22 135.876 41.427V45H134.935ZM142.352 45.09C141.539 45.09 140.93 44.892 140.525 44.496C140.12 44.097 139.917 43.449 139.917 42.552C139.917 41.706 140.102 41.0745 140.471 40.6575C140.84 40.2375 141.345 40.0275 141.987 40.0275C142.617 40.0275 143.102 40.2375 143.441 40.6575C143.78 41.0775 143.949 41.7165 143.949 42.5745V42.8445H140.867C140.885 43.3965 141.021 43.785 141.276 44.01C141.531 44.235 141.93 44.3475 142.473 44.3475C142.659 44.3475 142.854 44.3325 143.058 44.3025C143.262 44.2695 143.475 44.223 143.697 44.163V44.901C143.454 44.967 143.223 45.015 143.004 45.045C142.785 45.075 142.568 45.09 142.352 45.09ZM141.978 40.671C141.639 40.671 141.371 40.788 141.173 41.022C140.978 41.253 140.874 41.6625 140.862 42.2505H143.058C143.049 41.6655 142.952 41.256 142.766 41.022C142.58 40.788 142.317 40.671 141.978 40.671ZM147.098 45.09C146.285 45.09 145.676 44.892 145.271 44.496C144.866 44.097 144.663 43.449 144.663 42.552C144.663 41.706 144.848 41.0745 145.217 40.6575C145.586 40.2375 146.091 40.0275 146.733 40.0275C147.363 40.0275 147.848 40.2375 148.187 40.6575C148.526 41.0775 148.695 41.7165 148.695 42.5745V42.8445H145.613C145.631 43.3965 145.767 43.785 146.022 44.01C146.277 44.235 146.676 44.3475 147.219 44.3475C147.405 44.3475 147.6 44.3325 147.804 44.3025C148.008 44.2695 148.221 44.223 148.443 44.163V44.901C148.2 44.967 147.969 45.015 147.75 45.045C147.531 45.075 147.314 45.09 147.098 45.09ZM146.724 40.671C146.385 40.671 146.117 40.788 145.919 41.022C145.724 41.253 145.62 41.6625 145.608 42.2505H147.804C147.795 41.6655 147.698 41.256 147.512 41.022C147.326 40.788 147.063 40.671 146.724 40.671ZM149.657 45V40.104H150.435L150.512 40.752H150.561C150.72 40.518 150.923 40.3425 151.169 40.2255C151.415 40.1085 151.676 40.05 151.952 40.05C152.087 40.05 152.217 40.062 152.343 40.086V40.9455C152.271 40.9335 152.198 40.926 152.123 40.923C152.051 40.917 151.977 40.914 151.902 40.914C151.671 40.914 151.433 40.9665 151.187 41.0715C150.941 41.1735 150.744 41.3295 150.597 41.5395V45H149.657ZM153.076 45V40.104H154.016V45H153.076ZM153.548 39.15C153.134 39.15 152.927 38.97 152.927 38.61C152.927 38.439 152.98 38.3055 153.085 38.2095C153.19 38.1105 153.344 38.061 153.548 38.061C153.752 38.061 153.907 38.1105 154.012 38.2095C154.117 38.3055 154.169 38.439 154.169 38.61C154.169 38.97 153.962 39.15 153.548 39.15ZM155.291 45V40.104H156.074L156.141 40.6395H156.195C156.594 40.2315 157.095 40.0275 157.698 40.0275C158.01 40.0275 158.286 40.086 158.526 40.203C158.769 40.32 158.96 40.5105 159.098 40.7745C159.236 41.0355 159.305 41.385 159.305 41.823V45H158.364V41.8725C158.364 41.4915 158.282 41.226 158.117 41.076C157.952 40.926 157.727 40.851 157.442 40.851C157.241 40.851 157.028 40.896 156.803 40.986C156.581 41.073 156.39 41.22 156.231 41.427V45H155.291ZM162.1 47.07C161.863 47.07 161.611 47.052 161.344 47.016C161.08 46.983 160.831 46.9305 160.597 46.8585V46.0935C160.855 46.1715 161.104 46.2285 161.344 46.2645C161.587 46.3035 161.818 46.323 162.037 46.323C162.55 46.323 162.926 46.2165 163.166 46.0035C163.409 45.7905 163.531 45.426 163.531 44.91V44.4825H163.481C163.334 44.6535 163.148 44.7915 162.923 44.8965C162.701 45.0015 162.445 45.054 162.154 45.054C161.818 45.054 161.507 44.9745 161.222 44.8155C160.937 44.6535 160.708 44.397 160.534 44.046C160.36 43.692 160.273 43.227 160.273 42.651C160.273 40.902 161.131 40.0275 162.847 40.0275C163.12 40.0275 163.4 40.0485 163.688 40.0905C163.976 40.1325 164.237 40.191 164.471 40.266V44.7525C164.471 45.5775 164.273 46.17 163.877 46.53C163.484 46.89 162.892 47.07 162.1 47.07ZM162.469 44.2665C162.664 44.2665 162.856 44.2275 163.045 44.1495C163.237 44.0715 163.399 43.95 163.531 43.785V40.86C163.432 40.833 163.315 40.812 163.18 40.797C163.048 40.779 162.911 40.77 162.77 40.77C162.269 40.77 161.887 40.9095 161.623 41.1885C161.359 41.4675 161.227 41.9265 161.227 42.5655C161.227 43.0095 161.279 43.3545 161.384 43.6005C161.492 43.8465 161.639 44.019 161.825 44.118C162.011 44.217 162.226 44.2665 162.469 44.2665ZM165.777 46.458C165.879 46.2 165.961 45.9585 166.024 45.7335C166.09 45.5085 166.131 45.2835 166.146 45.0585C165.972 45.0465 165.831 44.9865 165.723 44.8785C165.618 44.7675 165.565 44.6235 165.565 44.4465C165.565 44.2575 165.622 44.109 165.736 44.001C165.85 43.89 166.003 43.8345 166.195 43.8345C166.633 43.8345 166.852 44.103 166.852 44.64C166.852 44.967 166.803 45.288 166.704 45.603C166.605 45.918 166.477 46.203 166.321 46.458H165.777ZM172.781 45.0855C171.893 45.0855 171.242 44.868 170.828 44.433C170.414 43.995 170.207 43.32 170.207 42.408V38.34H171.161V42.507C171.161 43.125 171.291 43.575 171.552 43.857C171.816 44.139 172.226 44.28 172.781 44.28C173.336 44.28 173.744 44.139 174.005 43.857C174.266 43.575 174.396 43.125 174.396 42.507V38.34H175.332V42.408C175.332 43.32 175.127 43.995 174.716 44.433C174.308 44.868 173.663 45.0855 172.781 45.0855ZM176.725 45V38.34H177.679V45H176.725ZM178.387 46.08L180.47 37.728H181.397L179.314 46.08H178.387ZM184.655 45.0855C183.767 45.0855 183.116 44.868 182.702 44.433C182.288 43.995 182.081 43.32 182.081 42.408V38.34H183.035V42.507C183.035 43.125 183.165 43.575 183.426 43.857C183.69 44.139 184.1 44.28 184.655 44.28C185.21 44.28 185.618 44.139 185.879 43.857C186.14 43.575 186.27 43.125 186.27 42.507V38.34H187.206V42.408C187.206 43.32 187.001 43.995 186.59 44.433C186.182 44.868 185.537 45.0855 184.655 45.0855ZM187.8 45L190.185 41.589L187.908 38.34H188.988L190.752 40.869L192.52 38.34H193.573L191.31 41.5755L193.699 45H192.619L190.743 42.2955L188.862 45H187.8ZM194.482 46.458C194.584 46.2 194.667 45.9585 194.73 45.7335C194.796 45.5085 194.836 45.2835 194.851 45.0585C194.677 45.0465 194.536 44.9865 194.428 44.8785C194.323 44.7675 194.271 44.6235 194.271 44.4465C194.271 44.2575 194.328 44.109 194.442 44.001C194.556 43.89 194.709 43.8345 194.901 43.8345C195.339 43.8345 195.558 44.103 195.558 44.64C195.558 44.967 195.508 45.288 195.409 45.603C195.31 45.918 195.183 46.203 195.027 46.458H194.482ZM39.5146 56V49.34H40.6621L42.8446 54.0965L44.9911 49.34H46.1386V56H45.2431V50.681L43.2406 55.064H42.4126L40.4101 50.7575V56H39.5146ZM48.7616 56.081C48.2876 56.081 47.9156 55.9595 47.6456 55.7165C47.3786 55.4735 47.2451 55.142 47.2451 54.722C47.2451 54.287 47.3906 53.9465 47.6816 53.7005C47.9756 53.4545 48.4481 53.303 49.0991 53.246L50.1206 53.1425V52.832C50.1206 52.421 50.0216 52.142 49.8236 51.995C49.6256 51.845 49.3181 51.77 48.9011 51.77C48.7151 51.77 48.5051 51.7865 48.2711 51.8195C48.0371 51.8525 47.8061 51.9065 47.5781 51.9815V51.2435C47.7971 51.1715 48.0386 51.1175 48.3026 51.0815C48.5666 51.0455 48.8141 51.0275 49.0451 51.0275C49.4921 51.0275 49.8626 51.086 50.1566 51.203C50.4536 51.317 50.6741 51.509 50.8181 51.779C50.9651 52.049 51.0386 52.418 51.0386 52.886V56H50.2601L50.1926 55.4735H50.1386C49.9826 55.6745 49.7831 55.826 49.5401 55.928C49.3001 56.03 49.0406 56.081 48.7616 56.081ZM48.1856 54.6365C48.1856 55.1405 48.4661 55.3925 49.0271 55.3925C49.2191 55.3925 49.4096 55.3535 49.5986 55.2755C49.7906 55.1975 49.9646 55.067 50.1206 54.884V53.7275L49.1801 53.822C48.8261 53.858 48.5711 53.9435 48.4151 54.0785C48.2621 54.2135 48.1856 54.3995 48.1856 54.6365ZM54.2995 56.09C53.5645 56.09 52.999 55.8875 52.603 55.4825C52.21 55.0745 52.0135 54.4325 52.0135 53.5565C52.0135 52.6745 52.2265 52.0325 52.6525 51.6305C53.0785 51.2285 53.6845 51.0275 54.4705 51.0275C54.6475 51.0275 54.823 51.038 54.997 51.059C55.174 51.08 55.342 51.11 55.501 51.149V51.923C55.183 51.845 54.877 51.806 54.583 51.806C54.04 51.806 53.638 51.938 53.377 52.202C53.116 52.463 52.9855 52.91 52.9855 53.543C52.9855 54.188 53.1085 54.644 53.3545 54.911C53.6005 55.175 53.962 55.307 54.439 55.307C54.592 55.307 54.754 55.2935 54.925 55.2665C55.096 55.2365 55.288 55.1885 55.501 55.1225V55.892C55.12 56.024 54.7195 56.09 54.2995 56.09ZM56.3655 56V48.728H57.306V51.635H57.3555C57.7365 51.23 58.224 51.0275 58.818 51.0275C59.115 51.0275 59.3805 51.086 59.6145 51.203C59.8515 51.32 60.0375 51.509 60.1725 51.77C60.3105 52.031 60.3795 52.3805 60.3795 52.8185V56H59.439V52.8725C59.439 52.4885 59.355 52.2245 59.187 52.0805C59.019 51.9335 58.7955 51.86 58.5165 51.86C58.3095 51.86 58.095 51.905 57.873 51.995C57.651 52.082 57.462 52.2275 57.306 52.4315V56H56.3655ZM61.5949 56V51.104H62.5354V56H61.5949ZM62.0674 50.15C61.6534 50.15 61.4464 49.97 61.4464 49.61C61.4464 49.439 61.4989 49.3055 61.6039 49.2095C61.7089 49.1105 61.8634 49.061 62.0674 49.061C62.2714 49.061 62.4259 49.1105 62.5309 49.2095C62.6359 49.3055 62.6884 49.439 62.6884 49.61C62.6884 49.97 62.4814 50.15 62.0674 50.15ZM63.8098 56V51.104H64.5928L64.6603 51.6395H64.7143C65.1133 51.2315 65.6143 51.0275 66.2173 51.0275C66.5293 51.0275 66.8053 51.086 67.0453 51.203C67.2883 51.32 67.4788 51.5105 67.6168 51.7745C67.7548 52.0355 67.8238 52.385 67.8238 52.823V56H66.8833V52.8725C66.8833 52.4915 66.8008 52.226 66.6358 52.076C66.4708 51.926 66.2458 51.851 65.9608 51.851C65.7598 51.851 65.5468 51.896 65.3218 51.986C65.0998 52.073 64.9093 52.22 64.7503 52.427V56H63.8098ZM71.2263 56.09C70.4133 56.09 69.8043 55.892 69.3993 55.496C68.9943 55.097 68.7918 54.449 68.7918 53.552C68.7918 52.706 68.9763 52.0745 69.3453 51.6575C69.7143 51.2375 70.2198 51.0275 70.8618 51.0275C71.4918 51.0275 71.9763 51.2375 72.3153 51.6575C72.6543 52.0775 72.8238 52.7165 72.8238 53.5745V53.8445H69.7413C69.7593 54.3965 69.8958 54.785 70.1508 55.01C70.4058 55.235 70.8048 55.3475 71.3478 55.3475C71.5338 55.3475 71.7288 55.3325 71.9328 55.3025C72.1368 55.2695 72.3498 55.223 72.5718 55.163V55.901C72.3288 55.967 72.0978 56.015 71.8788 56.045C71.6598 56.075 71.4423 56.09 71.2263 56.09ZM70.8528 51.671C70.5138 51.671 70.2453 51.788 70.0473 52.022C69.8523 52.253 69.7488 52.6625 69.7368 53.2505H71.9328C71.9238 52.6655 71.8263 52.256 71.6403 52.022C71.4543 51.788 71.1918 51.671 70.8528 51.671ZM76.0767 56V49.34H77.0307V55.1855H80.2437V56H76.0767ZM82.9597 56.09C82.1467 56.09 81.5377 55.892 81.1327 55.496C80.7277 55.097 80.5252 54.449 80.5252 53.552C80.5252 52.706 80.7097 52.0745 81.0787 51.6575C81.4477 51.2375 81.9532 51.0275 82.5952 51.0275C83.2252 51.0275 83.7097 51.2375 84.0487 51.6575C84.3877 52.0775 84.5572 52.7165 84.5572 53.5745V53.8445H81.4747C81.4927 54.3965 81.6292 54.785 81.8842 55.01C82.1392 55.235 82.5382 55.3475 83.0812 55.3475C83.2672 55.3475 83.4622 55.3325 83.6662 55.3025C83.8702 55.2695 84.0832 55.223 84.3052 55.163V55.901C84.0622 55.967 83.8312 56.015 83.6122 56.045C83.3932 56.075 83.1757 56.09 82.9597 56.09ZM82.5862 51.671C82.2472 51.671 81.9787 51.788 81.7807 52.022C81.5857 52.253 81.4822 52.6625 81.4702 53.2505H83.6662C83.6572 52.6655 83.5597 52.256 83.3737 52.022C83.1877 51.788 82.9252 51.671 82.5862 51.671ZM86.7391 56.081C86.2651 56.081 85.8931 55.9595 85.6231 55.7165C85.3561 55.4735 85.2226 55.142 85.2226 54.722C85.2226 54.287 85.3681 53.9465 85.6591 53.7005C85.9531 53.4545 86.4256 53.303 87.0766 53.246L88.0981 53.1425V52.832C88.0981 52.421 87.9991 52.142 87.8011 51.995C87.6031 51.845 87.2956 51.77 86.8786 51.77C86.6926 51.77 86.4826 51.7865 86.2486 51.8195C86.0146 51.8525 85.7836 51.9065 85.5556 51.9815V51.2435C85.7746 51.1715 86.0161 51.1175 86.2801 51.0815C86.5441 51.0455 86.7916 51.0275 87.0226 51.0275C87.4696 51.0275 87.8401 51.086 88.1341 51.203C88.4311 51.317 88.6516 51.509 88.7956 51.779C88.9426 52.049 89.0161 52.418 89.0161 52.886V56H88.2376L88.1701 55.4735H88.1161C87.9601 55.6745 87.7606 55.826 87.5176 55.928C87.2776 56.03 87.0181 56.081 86.7391 56.081ZM86.1631 54.6365C86.1631 55.1405 86.4436 55.3925 87.0046 55.3925C87.1966 55.3925 87.3871 55.3535 87.5761 55.2755C87.7681 55.1975 87.9421 55.067 88.0981 54.884V53.7275L87.1576 53.822C86.8036 53.858 86.5486 53.9435 86.3926 54.0785C86.2396 54.2135 86.1631 54.3995 86.1631 54.6365ZM90.2385 56V51.104H91.017L91.0935 51.752H91.143C91.302 51.518 91.5045 51.3425 91.7505 51.2255C91.9965 51.1085 92.2575 51.05 92.5335 51.05C92.6685 51.05 92.799 51.062 92.925 51.086V51.9455C92.853 51.9335 92.7795 51.926 92.7045 51.923C92.6325 51.917 92.559 51.914 92.484 51.914C92.253 51.914 92.0145 51.9665 91.7685 52.0715C91.5225 52.1735 91.326 52.3295 91.179 52.5395V56H90.2385ZM93.6135 56V51.104H94.3965L94.464 51.6395H94.518C94.917 51.2315 95.418 51.0275 96.021 51.0275C96.333 51.0275 96.609 51.086 96.849 51.203C97.092 51.32 97.2825 51.5105 97.4205 51.7745C97.5585 52.0355 97.6275 52.385 97.6275 52.823V56H96.687V52.8725C96.687 52.4915 96.6045 52.226 96.4395 52.076C96.2745 51.926 96.0495 51.851 95.7645 51.851C95.5635 51.851 95.3505 51.896 95.1255 51.986C94.9035 52.073 94.713 52.22 94.554 52.427V56H93.6135ZM98.843 56V51.104H99.7835V56H98.843ZM99.3155 50.15C98.9015 50.15 98.6945 49.97 98.6945 49.61C98.6945 49.439 98.747 49.3055 98.852 49.2095C98.957 49.1105 99.1115 49.061 99.3155 49.061C99.5195 49.061 99.674 49.1105 99.779 49.2095C99.884 49.3055 99.9365 49.439 99.9365 49.61C99.9365 49.97 99.7295 50.15 99.3155 50.15ZM101.058 56V51.104H101.841L101.908 51.6395H101.962C102.361 51.2315 102.862 51.0275 103.465 51.0275C103.777 51.0275 104.053 51.086 104.293 51.203C104.536 51.32 104.727 51.5105 104.865 51.7745C105.003 52.0355 105.072 52.385 105.072 52.823V56H104.131V52.8725C104.131 52.4915 104.049 52.226 103.884 52.076C103.719 51.926 103.494 51.851 103.209 51.851C103.008 51.851 102.795 51.896 102.57 51.986C102.348 52.073 102.157 52.22 101.998 52.427V56H101.058ZM107.867 58.07C107.63 58.07 107.378 58.052 107.111 58.016C106.847 57.983 106.598 57.9305 106.364 57.8585V57.0935C106.622 57.1715 106.871 57.2285 107.111 57.2645C107.354 57.3035 107.585 57.323 107.804 57.323C108.317 57.323 108.693 57.2165 108.933 57.0035C109.176 56.7905 109.298 56.426 109.298 55.91V55.4825H109.248C109.101 55.6535 108.915 55.7915 108.69 55.8965C108.468 56.0015 108.212 56.054 107.921 56.054C107.585 56.054 107.274 55.9745 106.989 55.8155C106.704 55.6535 106.475 55.397 106.301 55.046C106.127 54.692 106.04 54.227 106.04 53.651C106.04 51.902 106.898 51.0275 108.614 51.0275C108.887 51.0275 109.167 51.0485 109.455 51.0905C109.743 51.1325 110.004 51.191 110.238 51.266V55.7525C110.238 56.5775 110.04 57.17 109.644 57.53C109.251 57.89 108.659 58.07 107.867 58.07ZM108.236 55.2665C108.431 55.2665 108.623 55.2275 108.812 55.1495C109.004 55.0715 109.166 54.95 109.298 54.785V51.86C109.199 51.833 109.082 51.812 108.947 51.797C108.815 51.779 108.678 51.77 108.537 51.77C108.036 51.77 107.654 51.9095 107.39 52.1885C107.126 52.4675 106.994 52.9265 106.994 53.5655C106.994 54.0095 107.046 54.3545 107.151 54.6005C107.259 54.8465 107.406 55.019 107.592 55.118C107.778 55.217 107.993 55.2665 108.236 55.2665ZM114.978 56.081C114.504 56.081 114.132 55.9595 113.862 55.7165C113.595 55.4735 113.462 55.142 113.462 54.722C113.462 54.287 113.607 53.9465 113.898 53.7005C114.192 53.4545 114.665 53.303 115.316 53.246L116.337 53.1425V52.832C116.337 52.421 116.238 52.142 116.04 51.995C115.842 51.845 115.535 51.77 115.118 51.77C114.932 51.77 114.722 51.7865 114.488 51.8195C114.254 51.8525 114.023 51.9065 113.795 51.9815V51.2435C114.014 51.1715 114.255 51.1175 114.519 51.0815C114.783 51.0455 115.031 51.0275 115.262 51.0275C115.709 51.0275 116.079 51.086 116.373 51.203C116.67 51.317 116.891 51.509 117.035 51.779C117.182 52.049 117.255 52.418 117.255 52.886V56H116.477L116.409 55.4735H116.355C116.199 55.6745 116 55.826 115.757 55.928C115.517 56.03 115.257 56.081 114.978 56.081ZM114.402 54.6365C114.402 55.1405 114.683 55.3925 115.244 55.3925C115.436 55.3925 115.626 55.3535 115.815 55.2755C116.007 55.1975 116.181 55.067 116.337 54.884V53.7275L115.397 53.822C115.043 53.858 114.788 53.9435 114.632 54.0785C114.479 54.2135 114.402 54.3995 114.402 54.6365ZM118.478 56V51.104H119.261L119.328 51.6395H119.382C119.781 51.2315 120.282 51.0275 120.885 51.0275C121.197 51.0275 121.473 51.086 121.713 51.203C121.956 51.32 122.147 51.5105 122.285 51.7745C122.423 52.0355 122.492 52.385 122.492 52.823V56H121.551V52.8725C121.551 52.4915 121.469 52.226 121.304 52.076C121.139 51.926 120.914 51.851 120.629 51.851C120.428 51.851 120.215 51.896 119.99 51.986C119.768 52.073 119.577 52.22 119.418 52.427V56H118.478ZM125.413 56.0855C125.056 56.0855 124.729 56.0045 124.432 55.8425C124.138 55.6805 123.902 55.4225 123.725 55.0685C123.548 54.7115 123.46 54.239 123.46 53.651C123.46 52.778 123.674 52.1225 124.103 51.6845C124.535 51.2465 125.165 51.0275 125.993 51.0275C126.119 51.0275 126.245 51.0335 126.371 51.0455C126.497 51.0545 126.613 51.0665 126.718 51.0815V48.728H127.658V56H126.862L126.803 55.4735H126.749C126.605 55.6565 126.419 55.805 126.191 55.919C125.963 56.03 125.704 56.0855 125.413 56.0855ZM125.656 55.298C125.854 55.298 126.047 55.256 126.236 55.172C126.425 55.088 126.586 54.956 126.718 54.776V51.8465C126.619 51.8225 126.503 51.8045 126.371 51.7925C126.239 51.7775 126.11 51.77 125.984 51.77C125.465 51.77 125.074 51.911 124.81 52.193C124.546 52.472 124.414 52.9325 124.414 53.5745C124.414 54.0185 124.466 54.3665 124.571 54.6185C124.676 54.8675 124.822 55.043 125.008 55.145C125.197 55.247 125.413 55.298 125.656 55.298ZM132.871 56.0585C132.613 56.0585 132.347 56.051 132.074 56.036C131.804 56.021 131.519 55.9955 131.219 55.9595V49.4615C131.501 49.4015 131.804 49.355 132.128 49.322C132.452 49.289 132.767 49.2725 133.073 49.2725C134.204 49.2725 135.058 49.55 135.634 50.105C136.213 50.657 136.502 51.512 136.502 52.67C136.502 53.852 136.198 54.713 135.589 55.253C134.983 55.79 134.077 56.0585 132.871 56.0585ZM133.087 55.262C133.9 55.262 134.509 55.061 134.914 54.659C135.319 54.257 135.521 53.5925 135.521 52.6655C135.521 51.7505 135.322 51.089 134.923 50.681C134.524 50.27 133.924 50.0645 133.123 50.0645C132.976 50.0645 132.82 50.072 132.655 50.087C132.493 50.102 132.332 50.1215 132.173 50.1455V55.2125C132.317 55.2305 132.463 55.244 132.61 55.253C132.757 55.259 132.916 55.262 133.087 55.262ZM138.814 56.081C138.34 56.081 137.968 55.9595 137.698 55.7165C137.431 55.4735 137.298 55.142 137.298 54.722C137.298 54.287 137.443 53.9465 137.734 53.7005C138.028 53.4545 138.501 53.303 139.152 53.246L140.173 53.1425V52.832C140.173 52.421 140.074 52.142 139.876 51.995C139.678 51.845 139.371 51.77 138.954 51.77C138.768 51.77 138.558 51.7865 138.324 51.8195C138.09 51.8525 137.859 51.9065 137.631 51.9815V51.2435C137.85 51.1715 138.091 51.1175 138.355 51.0815C138.619 51.0455 138.867 51.0275 139.098 51.0275C139.545 51.0275 139.915 51.086 140.209 51.203C140.506 51.317 140.727 51.509 140.871 51.779C141.018 52.049 141.091 52.418 141.091 52.886V56H140.313L140.245 55.4735H140.191C140.035 55.6745 139.836 55.826 139.593 55.928C139.353 56.03 139.093 56.081 138.814 56.081ZM138.238 54.6365C138.238 55.1405 138.519 55.3925 139.08 55.3925C139.272 55.3925 139.462 55.3535 139.651 55.2755C139.843 55.1975 140.017 55.067 140.173 54.884V53.7275L139.233 53.822C138.879 53.858 138.624 53.9435 138.468 54.0785C138.315 54.2135 138.238 54.3995 138.238 54.6365ZM144.28 56.0855C143.752 56.0855 143.343 55.952 143.052 55.685C142.764 55.418 142.62 54.9905 142.62 54.4025V51.8645H141.738V51.104H142.62L142.782 49.34H143.56V51.104H145.018V51.8645H143.56V54.2495C143.56 54.6395 143.637 54.911 143.79 55.064C143.946 55.217 144.184 55.2935 144.505 55.2935C144.667 55.2935 144.858 55.2695 145.077 55.2215V55.9955C144.813 56.0555 144.547 56.0855 144.28 56.0855ZM147.067 56.081C146.593 56.081 146.221 55.9595 145.951 55.7165C145.684 55.4735 145.551 55.142 145.551 54.722C145.551 54.287 145.696 53.9465 145.987 53.7005C146.281 53.4545 146.754 53.303 147.405 53.246L148.426 53.1425V52.832C148.426 52.421 148.327 52.142 148.129 51.995C147.931 51.845 147.624 51.77 147.207 51.77C147.021 51.77 146.811 51.7865 146.577 51.8195C146.343 51.8525 146.112 51.9065 145.884 51.9815V51.2435C146.103 51.1715 146.344 51.1175 146.608 51.0815C146.872 51.0455 147.12 51.0275 147.351 51.0275C147.798 51.0275 148.168 51.086 148.462 51.203C148.759 51.317 148.98 51.509 149.124 51.779C149.271 52.049 149.344 52.418 149.344 52.886V56H148.566L148.498 55.4735H148.444C148.288 55.6745 148.089 55.826 147.846 55.928C147.606 56.03 147.346 56.081 147.067 56.081ZM146.491 54.6365C146.491 55.1405 146.772 55.3925 147.333 55.3925C147.525 55.3925 147.715 55.3535 147.904 55.2755C148.096 55.1975 148.27 55.067 148.426 54.884V53.7275L147.486 53.822C147.132 53.858 146.877 53.9435 146.721 54.0785C146.568 54.2135 146.491 54.3995 146.491 54.6365ZM154.284 56.0855C153.999 56.0855 153.708 56.0615 153.411 56.0135C153.114 55.9685 152.835 55.901 152.574 55.811V55.01C152.853 55.106 153.143 55.178 153.443 55.226C153.743 55.271 154.025 55.2935 154.289 55.2935C154.808 55.2935 155.187 55.2005 155.427 55.0145C155.667 54.8285 155.787 54.56 155.787 54.209C155.787 53.909 155.696 53.6795 155.513 53.5205C155.333 53.3615 155.021 53.2235 154.577 53.1065L154.172 53.003C153.599 52.856 153.168 52.634 152.88 52.337C152.595 52.04 152.453 51.6455 152.453 51.1535C152.453 50.5625 152.661 50.099 153.078 49.763C153.495 49.424 154.118 49.2545 154.946 49.2545C155.504 49.2545 156.002 49.3205 156.44 49.4525V50.2535C155.993 50.1155 155.508 50.0465 154.986 50.0465C154.428 50.0465 154.026 50.141 153.78 50.33C153.534 50.516 153.411 50.774 153.411 51.104C153.411 51.392 153.492 51.6155 153.654 51.7745C153.819 51.9335 154.109 52.067 154.523 52.175L154.928 52.2785C155.552 52.4345 156.011 52.6625 156.305 52.9625C156.599 53.2595 156.746 53.654 156.746 54.146C156.746 54.758 156.53 55.235 156.098 55.577C155.669 55.916 155.064 56.0855 154.284 56.0855ZM159.839 56.09C159.104 56.09 158.538 55.8875 158.142 55.4825C157.749 55.0745 157.553 54.4325 157.553 53.5565C157.553 52.6745 157.766 52.0325 158.192 51.6305C158.618 51.2285 159.224 51.0275 160.01 51.0275C160.187 51.0275 160.362 51.038 160.536 51.059C160.713 51.08 160.881 51.11 161.04 51.149V51.923C160.722 51.845 160.416 51.806 160.122 51.806C159.579 51.806 159.177 51.938 158.916 52.202C158.655 52.463 158.525 52.91 158.525 53.543C158.525 54.188 158.648 54.644 158.894 54.911C159.14 55.175 159.501 55.307 159.978 55.307C160.131 55.307 160.293 55.2935 160.464 55.2665C160.635 55.2365 160.827 55.1885 161.04 55.1225V55.892C160.659 56.024 160.259 56.09 159.839 56.09ZM161.905 56V51.104H162.845V56H161.905ZM162.377 50.15C161.963 50.15 161.756 49.97 161.756 49.61C161.756 49.439 161.809 49.3055 161.914 49.2095C162.019 49.1105 162.173 49.061 162.377 49.061C162.581 49.061 162.736 49.1105 162.841 49.2095C162.946 49.3055 162.998 49.439 162.998 49.61C162.998 49.97 162.791 50.15 162.377 50.15ZM166.306 56.09C165.493 56.09 164.884 55.892 164.479 55.496C164.074 55.097 163.872 54.449 163.872 53.552C163.872 52.706 164.056 52.0745 164.425 51.6575C164.794 51.2375 165.3 51.0275 165.942 51.0275C166.572 51.0275 167.056 51.2375 167.395 51.6575C167.734 52.0775 167.904 52.7165 167.904 53.5745V53.8445H164.821C164.839 54.3965 164.976 54.785 165.231 55.01C165.486 55.235 165.885 55.3475 166.428 55.3475C166.614 55.3475 166.809 55.3325 167.013 55.3025C167.217 55.2695 167.43 55.223 167.652 55.163V55.901C167.409 55.967 167.178 56.015 166.959 56.045C166.74 56.075 166.522 56.09 166.306 56.09ZM165.933 51.671C165.594 51.671 165.325 51.788 165.127 52.022C164.932 52.253 164.829 52.6625 164.817 53.2505H167.013C167.004 52.6655 166.906 52.256 166.72 52.022C166.534 51.788 166.272 51.671 165.933 51.671ZM168.865 56V51.104H169.648L169.716 51.6395H169.77C170.169 51.2315 170.67 51.0275 171.273 51.0275C171.585 51.0275 171.861 51.086 172.101 51.203C172.344 51.32 172.534 51.5105 172.672 51.7745C172.81 52.0355 172.879 52.385 172.879 52.823V56H171.939V52.8725C171.939 52.4915 171.856 52.226 171.691 52.076C171.526 51.926 171.301 51.851 171.016 51.851C170.815 51.851 170.602 51.896 170.377 51.986C170.155 52.073 169.965 52.22 169.806 52.427V56H168.865ZM176.133 56.09C175.398 56.09 174.833 55.8875 174.437 55.4825C174.044 55.0745 173.847 54.4325 173.847 53.5565C173.847 52.6745 174.06 52.0325 174.486 51.6305C174.912 51.2285 175.518 51.0275 176.304 51.0275C176.481 51.0275 176.657 51.038 176.831 51.059C177.008 51.08 177.176 51.11 177.335 51.149V51.923C177.017 51.845 176.711 51.806 176.417 51.806C175.874 51.806 175.472 51.938 175.211 52.202C174.95 52.463 174.819 52.91 174.819 53.543C174.819 54.188 174.942 54.644 175.188 54.911C175.434 55.175 175.796 55.307 176.273 55.307C176.426 55.307 176.588 55.2935 176.759 55.2665C176.93 55.2365 177.122 55.1885 177.335 55.1225V55.892C176.954 56.024 176.553 56.09 176.133 56.09ZM180.29 56.09C179.477 56.09 178.868 55.892 178.463 55.496C178.058 55.097 177.855 54.449 177.855 53.552C177.855 52.706 178.04 52.0745 178.409 51.6575C178.778 51.2375 179.283 51.0275 179.925 51.0275C180.555 51.0275 181.04 51.2375 181.379 51.6575C181.718 52.0775 181.887 52.7165 181.887 53.5745V53.8445H178.805C178.823 54.3965 178.959 54.785 179.214 55.01C179.469 55.235 179.868 55.3475 180.411 55.3475C180.597 55.3475 180.792 55.3325 180.996 55.3025C181.2 55.2695 181.413 55.223 181.635 55.163V55.901C181.392 55.967 181.161 56.015 180.942 56.045C180.723 56.075 180.506 56.09 180.29 56.09ZM179.916 51.671C179.577 51.671 179.309 51.788 179.111 52.022C178.916 52.253 178.812 52.6625 178.8 53.2505H180.996C180.987 52.6655 180.89 52.256 180.704 52.022C180.518 51.788 180.255 51.671 179.916 51.671Z" fill="white"/>
</svg>
