<svg class="transform hover:-translate-y-1 hover:scale-110 transition duration-500 ease-in-out" viewBox="0 0 51 39" fill="none" xmlns="http://www.w3.org/2000/svg">

                <path d="M45.3973 9.7195C45.4294 10.146 45.4294 10.5727 45.4294 10.9992C45.4294 24.0093 34.9999 39 15.9377 39C10.0651 39 4.60963 37.3851 0.0205994 34.5821C0.854996 34.6734 1.65719 34.7039 2.52369 34.7039C7.36935 34.7039 11.8301 33.1501 15.3922 30.4993C10.8353 30.4078 7.01641 27.5742 5.70066 23.6742C6.34253 23.7656 6.98431 23.8265 7.65829 23.8265C8.58889 23.8265 9.5196 23.7046 10.386 23.4914C5.63655 22.5773 2.07434 18.6164 2.07434 13.8328V13.711C3.4542 14.4422 5.05889 14.8992 6.75958 14.9601C3.96766 13.1929 2.13855 10.1765 2.13855 6.76399C2.13855 4.9359 2.65191 3.26012 3.55051 1.79761C8.653 7.76948 16.3228 11.6694 24.9231 12.0961C24.7627 11.3648 24.6664 10.6032 24.6664 9.84142C24.6664 4.41792 29.2875 0 35.0318 0C38.0162 0 40.7118 1.18828 42.6053 3.10781C44.9478 2.68127 47.1942 1.85857 49.1839 0.731255C48.4136 3.01646 46.777 4.936 44.627 6.15466C46.7129 5.94148 48.7347 5.39293 50.5959 4.63128C49.1841 6.5812 47.419 8.31785 45.3973 9.7195Z" fill="white" />
              </svg>